*
%LPD*%
%LNBinaryWatch_Rev_A.cmp*%
%FSLAX24Y24*%
%MOIN*%
%AD*%
%ADD10C,0.020000*%
%ADD11C,0.039400*%
%ADD12R,0.040000X0.040000*%
%ADD13O,0.078000X0.039000*%
%ADD14R,0.040000X0.030000*%
%ADD15R,0.040000X0.020000*%
%ADD16R,0.040000X0.100000*%
%ADD17R,0.013800X0.068900*%
%ADD18R,0.051200X0.074800*%
%ADD19C,0.031700*%
%ADD20C,0.010000*%
%ADD21C,0.039600*%
%ADD22C,0.040000*%
%ADD23C,0.030000*%
G54D10*
G1X7989Y9240D2*
G1X7989Y9690D1*
G1X7989Y10140D1*
G1X13189Y17790D2*
G1X13639Y17790D1*
G1X14239Y17790D2*
G1X14239Y17490D1*
G1X14239Y17140D1*
G1X14239Y17790D2*
G1X14239Y18140D1*
G1X14239Y18540D1*
G1X14239Y18940D1*
G1X14239Y19290D1*
G1X14239Y19590D1*
G1X14239Y19940D1*
G1X13639Y19940D2*
G1X13139Y19940D1*
G1X13139Y19590D2*
G1X13639Y19590D1*
G1X13639Y19290D2*
G1X13239Y19290D1*
G1X13139Y18940D2*
G1X13639Y18940D1*
G1X3139Y19290D2*
G1X3139Y19590D1*
G1X3139Y19940D1*
G54D11*
G1X3439Y7440D3*
G1X13939Y7440D3*
G1X13939Y21440D3*
G54D12*
G1X11689Y18740D3*
G1X11689Y18040D3*
G1X10939Y17140D3*
G1X10939Y16440D3*
G1X10189Y18040D3*
G1X10189Y18740D3*
G1X9439Y17140D3*
G1X9439Y16440D3*
G1X9739Y15140D3*
G1X9039Y15140D3*
G1X7939Y16440D3*
G1X7939Y17140D3*
G1X7189Y18040D3*
G1X7189Y18740D3*
G1X6439Y17140D3*
G1X6439Y16440D3*
G1X5689Y18040D3*
G1X5689Y18740D3*
G1X4939Y17140D3*
G1X4939Y16440D3*
G1X8689Y18040D3*
G1X8689Y18740D3*
G1X12439Y17140D3*
G1X12439Y16440D3*
G1X8689Y10140D3*
G1X8689Y9240D3*
G1X7989Y9240D3*
G1X7989Y10140D3*
G54D13*
G1X3389Y14860D3*
G1X3389Y15352D3*
G1X3389Y15844D3*
G1X3389Y16336D3*
G1X3389Y16829D3*
G1X3389Y17321D3*
G54D14*
G1X3139Y18940D3*
G1X3739Y18940D3*
G1X3739Y19940D3*
G1X3139Y19940D3*
G1X13639Y19940D3*
G1X14239Y19940D3*
G1X14239Y18940D3*
G1X13639Y18940D3*
G1X13639Y18140D3*
G1X14239Y18140D3*
G1X14239Y17140D3*
G1X13639Y17140D3*
G54D15*
G1X13639Y17490D3*
G1X13639Y17790D3*
G1X14239Y17790D3*
G1X14239Y17490D3*
G1X14239Y19290D3*
G1X14239Y19590D3*
G1X13639Y19590D3*
G1X13639Y19290D3*
G1X3739Y19290D3*
G1X3739Y19590D3*
G1X3139Y19590D3*
G1X3139Y19290D3*
G54D16*
G1X2889Y10690D3*
G1X3489Y10690D3*
G1X3489Y8690D3*
G1X2889Y8690D3*
G1X13889Y8690D3*
G1X14489Y8690D3*
G1X14489Y10690D3*
G1X13889Y10690D3*
G54D17*
G1X10552Y11303D3*
G1X10297Y11303D3*
G1X10041Y11303D3*
G1X9785Y11303D3*
G1X9529Y11303D3*
G1X9273Y11303D3*
G1X9017Y11303D3*
G1X8761Y11303D3*
G1X8505Y11303D3*
G1X8249Y11303D3*
G1X7993Y11303D3*
G1X7737Y11303D3*
G1X7482Y11303D3*
G1X7226Y11303D3*
G1X7226Y14078D3*
G1X7482Y14078D3*
G1X7737Y14078D3*
G1X7993Y14078D3*
G1X8249Y14078D3*
G1X8505Y14078D3*
G1X8761Y14078D3*
G1X9017Y14078D3*
G1X9273Y14078D3*
G1X9529Y14078D3*
G1X9785Y14078D3*
G1X10041Y14078D3*
G1X10297Y14078D3*
G1X10552Y14078D3*
G54D18*
G1X9556Y10320D3*
G1X9556Y9060D3*
G1X11722Y9060D3*
G1X11722Y10320D3*
G54D19*
G1X11939Y15440D3*
G1X12739Y15990D3*
G1X11939Y17140D3*
G1X12439Y18390D3*
G1X11089Y18090D3*
G1X10939Y17690D3*
G1X10639Y17990D3*
G1X10939Y18690D3*
G1X9539Y18090D3*
G1X9439Y18740D3*
G1X9089Y17890D3*
G1X7939Y18740D3*
G1X7589Y18040D3*
G1X7189Y16790D3*
G1X6039Y15590D3*
G1X5639Y15490D3*
G1X5339Y15190D3*
G1X5689Y16790D3*
G1X6089Y18040D3*
G1X6439Y18740D3*
G1X4939Y18740D3*
G1X3189Y9690D3*
G1X10989Y15990D3*
G1X10989Y15990D2*
G54D20*
G1X10889Y15890D1*
G1X10889Y13740D1*
G1X10689Y13540D1*
G1X8889Y13540D1*
G1X8761Y13668D1*
G1X8761Y14078D1*
G1X8542Y13534D2*
G1X8639Y13437D1*
G1X6996Y13437D1*
G1X7074Y13534D2*
G1X7377Y13534D1*
G1X7633Y13534D1*
G1X7889Y13534D1*
G1X8145Y13534D1*
G1X8401Y13534D1*
G1X8542Y13534D1*
G1X8639Y13437D2*
G1X8786Y13290D1*
G1X10386Y13290D1*
G1X9386Y12290D1*
G1X8686Y12290D1*
G1X8539Y12144D1*
G1X8414Y12019D1*
G1X6292Y14140D1*
G1X6957Y14140D1*
G1X6957Y13651D1*
G1X7074Y13534D1*
G1X7072Y13535D2*
G1X6897Y13535D1*
G1X6974Y13634D2*
G1X6799Y13634D1*
G1X6700Y13733D2*
G1X6957Y13733D1*
G1X6957Y13831D2*
G1X6602Y13831D1*
G1X6503Y13930D2*
G1X6957Y13930D1*
G1X6957Y14028D2*
G1X6405Y14028D1*
G1X6306Y14127D2*
G1X6957Y14127D1*
G1X7226Y14078D2*
G1X7226Y14354D1*
G1X7189Y14390D1*
G1X5989Y14390D1*
G1X5339Y15040D1*
G1X5339Y15190D1*
G1X5639Y15040D2*
G1X5639Y15490D1*
G1X5639Y15040D2*
G1X6089Y14590D1*
G1X7339Y14590D1*
G1X7482Y14448D1*
G1X7482Y14078D1*
G1X7639Y14590D2*
G1X7439Y14790D1*
G1X6189Y14790D1*
G1X6039Y14940D1*
G1X6039Y15590D1*
G1X6289Y15333D2*
G1X6343Y15387D1*
G1X6398Y15519D1*
G1X6398Y15640D1*
G1X7936Y15640D1*
G1X8143Y15640D1*
G1X8289Y15787D1*
G1X8289Y15325D1*
G1X8523Y15090D1*
G1X8639Y14975D1*
G1X8639Y14857D1*
G1X8656Y14840D1*
G1X7743Y14840D1*
G1X7689Y14894D1*
G1X7543Y15040D1*
G1X6293Y15040D1*
G1X6289Y15044D1*
G1X6289Y15333D1*
G1X6289Y15309D2*
G1X8304Y15309D1*
G1X8289Y15408D2*
G1X6352Y15408D1*
G1X6393Y15506D2*
G1X8289Y15506D1*
G1X8289Y15605D2*
G1X6398Y15605D1*
G1X6289Y15211D2*
G1X8403Y15211D1*
G1X8502Y15112D2*
G1X6289Y15112D1*
G1X5589Y15890D2*
G1X8039Y15890D1*
G1X8339Y16190D1*
G1X8339Y17190D1*
G1X8539Y17390D1*
G1X8839Y17390D1*
G1X9039Y17190D1*
G1X9039Y16840D1*
G1X9439Y16440D1*
G1X9089Y16108D2*
G1X9156Y16040D1*
G1X9722Y16040D1*
G1X9739Y16058D1*
G1X9739Y15737D1*
G1X9839Y15637D1*
G1X9839Y15590D1*
G1X9789Y15590D1*
G1X9789Y15190D1*
G1X9689Y15190D1*
G1X9689Y15590D1*
G1X9435Y15590D1*
G1X9354Y15508D1*
G1X9322Y15540D1*
G1X9205Y15540D1*
G1X9089Y15656D1*
G1X9089Y16108D1*
G1X9089Y16098D2*
G1X9099Y16098D1*
G1X9089Y15999D2*
G1X9739Y15999D1*
G1X9739Y15900D2*
G1X9089Y15900D1*
G1X9089Y15802D2*
G1X9739Y15802D1*
G1X9772Y15703D2*
G1X9089Y15703D1*
G1X9140Y15605D2*
G1X9839Y15605D1*
G1X9789Y15506D2*
G1X9689Y15506D1*
G1X9689Y15408D2*
G1X9789Y15408D1*
G1X9789Y15309D2*
G1X9689Y15309D1*
G1X9689Y15211D2*
G1X9789Y15211D1*
G1X9739Y15140D2*
G1X9529Y14930D1*
G1X9529Y14078D1*
G1X9785Y14078D2*
G1X9785Y14536D1*
G1X10089Y14840D1*
G1X10089Y15740D1*
G1X9989Y15840D1*
G1X9989Y17590D1*
G1X9839Y17740D1*
G1X9839Y18340D1*
G1X9889Y18390D1*
G1X11339Y18390D1*
G1X11689Y18040D1*
G1X11389Y17690D2*
G1X13089Y17690D1*
G1X13189Y17790D1*
G1X13239Y18090D2*
G1X13065Y18090D1*
G1X12915Y17940D1*
G1X12089Y17940D1*
G1X12089Y18323D1*
G1X12022Y18390D1*
G1X12089Y18457D1*
G1X12089Y18640D1*
G1X12736Y18640D1*
G1X13239Y18137D1*
G1X13239Y18090D1*
G1X13209Y18167D2*
G1X12089Y18167D1*
G1X12089Y18266D2*
G1X13110Y18266D1*
G1X13012Y18364D2*
G1X12048Y18364D1*
G1X12089Y18463D2*
G1X12913Y18463D1*
G1X12815Y18561D2*
G1X12089Y18561D1*
G1X11839Y18890D2*
G1X12839Y18890D1*
G1X13589Y18140D1*
G1X13639Y18140D1*
G1X13593Y18490D2*
G1X13492Y18590D1*
G1X13886Y18590D1*
G1X13935Y18540D1*
G1X13885Y18490D1*
G1X13593Y18490D1*
G1X13522Y18561D2*
G1X13915Y18561D1*
G1X13935Y18540D2*
G1X14214Y18540D1*
G1X13935Y18540D1*
G1X14214Y18540D2*
G1X14214Y18915D1*
G1X14264Y18915D1*
G1X14264Y18540D1*
G1X14264Y18166D1*
G1X14214Y18166D1*
G1X14214Y18540D1*
G1X14214Y18561D2*
G1X14264Y18561D1*
G1X14264Y18540D2*
G1X14543Y18540D1*
G1X14689Y18687D1*
G1X14689Y18915D1*
G1X14264Y18915D1*
G1X14264Y18940D1*
G1X14543Y18940D1*
G1X14568Y18965D1*
G1X14689Y18965D1*
G1X14689Y19087D1*
G1X14689Y19290D1*
G1X14593Y19290D1*
G1X14593Y19290D1*
G1X14689Y19290D1*
G1X14689Y19494D1*
G1X14689Y19590D1*
G1X14593Y19590D1*
G1X14593Y19590D1*
G1X14689Y19590D1*
G1X14689Y19687D1*
G1X14689Y19915D1*
G1X14568Y19915D1*
G1X14543Y19940D1*
G1X14264Y19940D1*
G1X14264Y19965D1*
G1X14689Y19965D1*
G1X14689Y20194D1*
G1X14543Y20340D1*
G1X14264Y20340D1*
G1X14264Y19966D1*
G1X14214Y19966D1*
G1X14214Y20340D1*
G1X13935Y20340D1*
G1X13885Y20290D1*
G1X13356Y20290D1*
G1X13306Y20240D1*
G1X13015Y20240D1*
G1X12839Y20065D1*
G1X12839Y19994D1*
G1X12786Y19940D1*
G1X6536Y19940D1*
G1X6389Y19794D1*
G1X5736Y19140D1*
G1X5406Y19140D1*
G1X5289Y19023D1*
G1X5289Y18457D1*
G1X5356Y18390D1*
G1X5289Y18323D1*
G1X5289Y18144D1*
G1X4739Y18694D1*
G1X4739Y19544D1*
G1X4593Y19690D1*
G1X4239Y20044D1*
G1X4139Y20144D1*
G1X4139Y20173D1*
G1X4022Y20290D1*
G1X3493Y20290D1*
G1X3443Y20340D1*
G1X3164Y20340D1*
G1X3164Y19966D1*
G1X3114Y19966D1*
G1X3114Y20340D1*
G1X2835Y20340D1*
G1X2689Y20194D1*
G1X2689Y19965D1*
G1X3114Y19965D1*
G1X3114Y19940D1*
G1X2835Y19940D1*
G1X2810Y19915D1*
G1X2689Y19915D1*
G1X2689Y19794D1*
G1X2689Y19590D1*
G1X2689Y19387D1*
G1X2689Y19290D1*
G1X2689Y19087D1*
G1X2739Y19037D1*
G1X2739Y18707D1*
G1X2796Y18651D1*
G1X2689Y18544D1*
G1X2689Y21337D1*
G1X2689Y21440D1*
G1X2691Y21499D1*
G1X2710Y21615D1*
G1X2746Y21727D1*
G1X2800Y21832D1*
G1X2869Y21927D1*
G1X2952Y22011D1*
G1X3047Y22080D1*
G1X3152Y22133D1*
G1X3264Y22170D1*
G1X3380Y22188D1*
G1X3439Y22190D1*
G1X3543Y22190D1*
G1X13707Y22190D1*
G1X13676Y22181D1*
G1X13610Y22154D1*
G1X13546Y22121D1*
G1X13486Y22082D1*
G1X13429Y22039D1*
G1X13429Y22039D1*
G1X13377Y21990D1*
G1X13377Y21990D1*
G1X13329Y21936D1*
G1X13287Y21879D1*
G1X13250Y21818D1*
G1X13218Y21753D1*
G1X13193Y21687D1*
G1X13173Y21618D1*
G1X13173Y21618D1*
G1X13161Y21550D1*
G1X13118Y21624D1*
G1X13118Y21624D1*
G1X13026Y21726D1*
G1X12916Y21806D1*
G1X12916Y21806D1*
G1X12791Y21862D1*
G1X12702Y21881D1*
G1X12693Y21890D1*
G1X12589Y21890D1*
G1X12559Y21890D1*
G1X12485Y21890D1*
G1X4686Y21890D1*
G1X4676Y21881D1*
G1X4587Y21862D1*
G1X4462Y21806D1*
G1X4352Y21726D1*
G1X4260Y21624D1*
G1X4192Y21506D1*
G1X4150Y21376D1*
G1X4136Y21240D1*
G1X4150Y21104D1*
G1X4192Y20975D1*
G1X4192Y20974D1*
G1X4260Y20856D1*
G1X4352Y20755D1*
G1X4462Y20674D1*
G1X4587Y20619D1*
G1X4676Y20600D1*
G1X4686Y20590D1*
G1X4779Y20590D1*
G1X4789Y20590D1*
G1X4893Y20590D1*
G1X12485Y20590D1*
G1X12589Y20590D1*
G1X12598Y20590D1*
G1X12693Y20590D1*
G1X12702Y20600D1*
G1X12791Y20619D1*
G1X12916Y20674D1*
G1X13026Y20755D1*
G1X13118Y20856D1*
G1X13186Y20974D1*
G1X13186Y20975D1*
G1X13228Y21104D1*
G1X13228Y21104D1*
G1X13228Y21106D1*
G1X13250Y21063D1*
G1X13287Y21002D1*
G1X13329Y20944D1*
G1X13377Y20891D1*
G1X13377Y20891D1*
G1X13429Y20842D1*
G1X13429Y20842D1*
G1X13486Y20798D1*
G1X13546Y20760D1*
G1X13610Y20727D1*
G1X13676Y20700D1*
G1X13744Y20679D1*
G1X13744Y20679D1*
G1X13814Y20664D1*
G1X13814Y20664D1*
G1X13885Y20656D1*
G1X13885Y20656D1*
G1X13957Y20654D1*
G1X14028Y20659D1*
G1X14099Y20671D1*
G1X14168Y20688D1*
G1X14236Y20712D1*
G1X14301Y20742D1*
G1X14363Y20778D1*
G1X14421Y20819D1*
G1X14476Y20866D1*
G1X14526Y20917D1*
G1X14571Y20973D1*
G1X14611Y21032D1*
G1X14645Y21095D1*
G1X14673Y21160D1*
G1X14689Y21208D1*
G1X14689Y11494D1*
G1X14593Y11590D1*
G1X11939Y14244D1*
G1X11939Y15082D1*
G1X12010Y15082D1*
G1X12142Y15136D1*
G1X12243Y15237D1*
G1X12253Y15261D1*
G1X12389Y15125D1*
G1X12389Y14325D1*
G1X12623Y14090D1*
G1X12955Y14090D1*
G1X13189Y14325D1*
G1X13189Y15125D1*
G1X13189Y15456D1*
G1X12950Y15694D1*
G1X13043Y15787D1*
G1X13098Y15919D1*
G1X13098Y16062D1*
G1X13043Y16194D1*
G1X12942Y16294D1*
G1X12839Y16337D1*
G1X12839Y16723D1*
G1X12772Y16790D1*
G1X13356Y16790D1*
G1X13885Y16790D1*
G1X13935Y16740D1*
G1X14214Y16740D1*
G1X14214Y17115D1*
G1X14264Y17115D1*
G1X14264Y16740D1*
G1X14543Y16740D1*
G1X14689Y16887D1*
G1X14689Y17115D1*
G1X14264Y17115D1*
G1X14264Y17140D1*
G1X14543Y17140D1*
G1X14568Y17165D1*
G1X14689Y17165D1*
G1X14689Y17287D1*
G1X14689Y17490D1*
G1X14593Y17490D1*
G1X14593Y17490D1*
G1X14689Y17490D1*
G1X14689Y17694D1*
G1X14689Y17790D1*
G1X14593Y17790D1*
G1X14593Y17790D1*
G1X14689Y17790D1*
G1X14689Y17994D1*
G1X14689Y18115D1*
G1X14568Y18115D1*
G1X14543Y18140D1*
G1X14264Y18140D1*
G1X14264Y18165D1*
G1X14689Y18165D1*
G1X14689Y18394D1*
G1X14543Y18540D1*
G1X14264Y18540D1*
G1X14239Y18540D2*
G1X14639Y18540D1*
G1X14639Y15590D1*
G1X14689Y15605D2*
G1X13040Y15605D1*
G1X12959Y15703D2*
G1X14689Y15703D1*
G1X14689Y15802D2*
G1X13049Y15802D1*
G1X13090Y15900D2*
G1X14689Y15900D1*
G1X14689Y15999D2*
G1X13098Y15999D1*
G1X13083Y16098D2*
G1X14689Y16098D1*
G1X14689Y16196D2*
G1X13041Y16196D1*
G1X12942Y16295D2*
G1X14689Y16295D1*
G1X14689Y16393D2*
G1X12839Y16393D1*
G1X12839Y16492D2*
G1X14689Y16492D1*
G1X14689Y16590D2*
G1X12839Y16590D1*
G1X12839Y16689D2*
G1X14689Y16689D1*
G1X14689Y16787D2*
G1X14590Y16787D1*
G1X14688Y16886D2*
G1X14689Y16886D1*
G1X14689Y16984D2*
G1X14689Y16984D1*
G1X14689Y17083D2*
G1X14689Y17083D1*
G1X14689Y17182D2*
G1X14689Y17182D1*
G1X14689Y17280D2*
G1X14689Y17280D1*
G1X14689Y17379D2*
G1X14689Y17379D1*
G1X14689Y17477D2*
G1X14689Y17477D1*
G1X14593Y17490D2*
G1X14593Y17490D1*
G1X14689Y17576D2*
G1X14689Y17576D1*
G1X14689Y17674D2*
G1X14689Y17674D1*
G1X14689Y17773D2*
G1X14689Y17773D1*
G1X14593Y17790D2*
G1X14593Y17790D1*
G1X14689Y17871D2*
G1X14689Y17871D1*
G1X14689Y17970D2*
G1X14689Y17970D1*
G1X14689Y18068D2*
G1X14689Y18068D1*
G1X14689Y18167D2*
G1X14689Y18167D1*
G1X14689Y18266D2*
G1X14689Y18266D1*
G1X14689Y18364D2*
G1X14689Y18364D1*
G1X14689Y18463D2*
G1X14620Y18463D1*
G1X14639Y18540D2*
G1X14639Y20290D1*
G1X14489Y20440D1*
G1X14548Y20335D2*
G1X14689Y20335D1*
G1X14689Y20433D2*
G1X2689Y20433D1*
G1X2689Y20335D2*
G1X2830Y20335D1*
G1X2739Y20290D2*
G1X2889Y20440D1*
G1X2739Y20290D2*
G1X2739Y18890D1*
G1X2739Y18857D2*
G1X2689Y18857D1*
G1X2689Y18955D2*
G1X2739Y18955D1*
G1X2722Y19054D2*
G1X2689Y19054D1*
G1X2689Y19152D2*
G1X2689Y19152D1*
G1X2689Y19251D2*
G1X2689Y19251D1*
G1X2689Y19290D2*
G1X2786Y19290D1*
G1X2785Y19290D1*
G1X2689Y19290D1*
G1X2689Y19349D2*
G1X2689Y19349D1*
G1X2689Y19448D2*
G1X2689Y19448D1*
G1X2689Y19547D2*
G1X2689Y19547D1*
G1X2689Y19590D2*
G1X2785Y19590D1*
G1X2786Y19590D1*
G1X2785Y19590D1*
G1X2689Y19590D1*
G1X2689Y19645D2*
G1X2689Y19645D1*
G1X2689Y19744D2*
G1X2689Y19744D1*
G1X2689Y19842D2*
G1X2689Y19842D1*
G1X2689Y19941D2*
G1X3114Y19941D1*
G1X3139Y19915D2*
G1X3139Y19591D1*
G1X3139Y19591D1*
G1X3139Y19915D1*
G1X3139Y19915D1*
G1X3139Y19842D2*
G1X3139Y19842D1*
G1X3139Y19744D2*
G1X3139Y19744D1*
G1X3139Y19645D2*
G1X3139Y19645D1*
G1X3139Y19590D2*
G1X3139Y19291D1*
G1X3139Y19590D1*
G1X3139Y19590D1*
G1X3139Y19547D2*
G1X3139Y19547D1*
G1X3139Y19448D2*
G1X3139Y19448D1*
G1X3139Y19349D2*
G1X3139Y19349D1*
G1X3139Y19291D2*
G1X3139Y19291D1*
G1X3139Y18940D2*
G1X3139Y18640D1*
G1X2639Y18140D1*
G1X2639Y15340D1*
G1X3119Y14860D1*
G1X3389Y14860D1*
G1X3389Y14740D1*
G1X5739Y12390D1*
G1X6489Y12390D1*
G1X7226Y11654D1*
G1X7226Y11303D1*
G1X7482Y11303D2*
G1X7482Y11698D1*
G1X4439Y14740D1*
G1X4439Y15940D1*
G1X4939Y16440D1*
G1X5339Y16540D2*
G1X5339Y16723D1*
G1X5272Y16790D1*
G1X5339Y16857D1*
G1X5339Y17087D1*
G1X5386Y17040D1*
G1X5593Y17040D1*
G1X6039Y17040D1*
G1X6039Y16857D1*
G1X6106Y16790D1*
G1X6039Y16723D1*
G1X6039Y16540D1*
G1X5493Y16540D1*
G1X5339Y16540D1*
G1X5339Y16590D2*
G1X6039Y16590D1*
G1X6039Y16689D2*
G1X5339Y16689D1*
G1X5275Y16787D2*
G1X6103Y16787D1*
G1X6039Y16886D2*
G1X5339Y16886D1*
G1X5339Y16984D2*
G1X6039Y16984D1*
G1X6289Y17290D2*
G1X6439Y17140D1*
G1X6289Y17290D2*
G1X5489Y17290D1*
G1X4289Y18490D1*
G1X4289Y19290D1*
G1X3989Y19590D1*
G1X3739Y19590D1*
G1X3739Y19290D2*
G1X3989Y19290D1*
G1X4089Y19190D1*
G1X4089Y18390D1*
G1X4939Y17540D1*
G1X4939Y17140D1*
G1X5339Y17083D2*
G1X5343Y17083D1*
G1X5589Y17490D2*
G1X4489Y18590D1*
G1X4489Y19440D1*
G1X3989Y19940D1*
G1X3739Y19940D1*
G1X4076Y20236D2*
G1X13011Y20236D1*
G1X12912Y20138D2*
G1X4145Y20138D1*
G1X4239Y20044D2*
G1X4239Y20044D1*
G1X4244Y20039D2*
G1X12839Y20039D1*
G1X12786Y19941D2*
G1X4342Y19941D1*
G1X4441Y19842D2*
G1X6437Y19842D1*
G1X6339Y19744D2*
G1X4539Y19744D1*
G1X4593Y19690D2*
G1X4593Y19690D1*
G1X4638Y19645D2*
G1X6240Y19645D1*
G1X6142Y19547D2*
G1X4736Y19547D1*
G1X4739Y19448D2*
G1X6043Y19448D1*
G1X5945Y19349D2*
G1X4739Y19349D1*
G1X4739Y19251D2*
G1X5846Y19251D1*
G1X5748Y19152D2*
G1X4739Y19152D1*
G1X4739Y19054D2*
G1X5320Y19054D1*
G1X5289Y18955D2*
G1X4739Y18955D1*
G1X4739Y18857D2*
G1X5289Y18857D1*
G1X5289Y18758D2*
G1X4739Y18758D1*
G1X4773Y18660D2*
G1X5289Y18660D1*
G1X5289Y18561D2*
G1X4872Y18561D1*
G1X4970Y18463D2*
G1X5289Y18463D1*
G1X5330Y18364D2*
G1X5069Y18364D1*
G1X5167Y18266D2*
G1X5289Y18266D1*
G1X5289Y18167D2*
G1X5266Y18167D1*
G1X5589Y17490D2*
G1X7589Y17490D1*
G1X7939Y17140D1*
G1X7893Y17540D2*
G1X7725Y17708D1*
G1X7792Y17736D1*
G1X7893Y17837D1*
G1X7948Y17969D1*
G1X7948Y18112D1*
G1X7893Y18244D1*
G1X7792Y18344D1*
G1X7660Y18399D1*
G1X7531Y18399D1*
G1X7589Y18457D1*
G1X7589Y18787D1*
G1X8043Y19240D1*
G1X8836Y19240D1*
G1X8736Y19140D1*
G1X8406Y19140D1*
G1X8289Y19023D1*
G1X8289Y18457D1*
G1X8356Y18390D1*
G1X8289Y18323D1*
G1X8289Y17757D1*
G1X8406Y17640D1*
G1X8736Y17640D1*
G1X8832Y17640D1*
G1X8832Y17640D1*
G1X8736Y17640D1*
G1X8436Y17640D1*
G1X8289Y17494D1*
G1X8279Y17483D1*
G1X8222Y17540D1*
G1X7893Y17540D1*
G1X7857Y17576D2*
G1X8371Y17576D1*
G1X8372Y17674D2*
G1X7759Y17674D1*
G1X7829Y17773D2*
G1X8289Y17773D1*
G1X8289Y17871D2*
G1X7907Y17871D1*
G1X7948Y17970D2*
G1X8289Y17970D1*
G1X8289Y18068D2*
G1X7948Y18068D1*
G1X7925Y18167D2*
G1X8289Y18167D1*
G1X8289Y18266D2*
G1X7871Y18266D1*
G1X7745Y18364D2*
G1X8330Y18364D1*
G1X8289Y18463D2*
G1X7589Y18463D1*
G1X7589Y18561D2*
G1X8289Y18561D1*
G1X8289Y18660D2*
G1X7589Y18660D1*
G1X7589Y18758D2*
G1X8289Y18758D1*
G1X8289Y18857D2*
G1X7659Y18857D1*
G1X7758Y18955D2*
G1X8289Y18955D1*
G1X8320Y19054D2*
G1X7856Y19054D1*
G1X7955Y19152D2*
G1X8748Y19152D1*
G1X8689Y18740D2*
G1X9239Y19290D1*
G1X13239Y19290D1*
G1X13039Y19490D2*
G1X13139Y19590D1*
G1X13039Y19490D2*
G1X7939Y19490D1*
G1X7189Y18740D1*
G1X6789Y18758D2*
G1X6089Y18758D1*
G1X6089Y18787D2*
G1X6743Y19440D1*
G1X7536Y19440D1*
G1X7236Y19140D1*
G1X6906Y19140D1*
G1X6789Y19023D1*
G1X6789Y18457D1*
G1X6856Y18390D1*
G1X6789Y18323D1*
G1X6789Y17757D1*
G1X6806Y17740D1*
G1X6296Y17740D1*
G1X6393Y17837D1*
G1X6448Y17969D1*
G1X6448Y18112D1*
G1X6393Y18244D1*
G1X6292Y18344D1*
G1X6160Y18399D1*
G1X6031Y18399D1*
G1X6089Y18457D1*
G1X6089Y18787D1*
G1X6159Y18857D2*
G1X6789Y18857D1*
G1X6789Y18955D2*
G1X6258Y18955D1*
G1X6356Y19054D2*
G1X6820Y19054D1*
G1X6652Y19349D2*
G1X7445Y19349D1*
G1X7346Y19251D2*
G1X6553Y19251D1*
G1X6455Y19152D2*
G1X7248Y19152D1*
G1X6789Y18660D2*
G1X6089Y18660D1*
G1X6089Y18561D2*
G1X6789Y18561D1*
G1X6789Y18463D2*
G1X6089Y18463D1*
G1X6245Y18364D2*
G1X6830Y18364D1*
G1X6789Y18266D2*
G1X6371Y18266D1*
G1X6425Y18167D2*
G1X6789Y18167D1*
G1X6789Y18068D2*
G1X6448Y18068D1*
G1X6448Y17970D2*
G1X6789Y17970D1*
G1X6789Y17871D2*
G1X6407Y17871D1*
G1X6329Y17773D2*
G1X6789Y17773D1*
G1X7189Y18040D2*
G1X7589Y18040D1*
G1X7486Y17240D2*
G1X7539Y17187D1*
G1X7539Y16857D1*
G1X7606Y16790D1*
G1X7539Y16723D1*
G1X7539Y16394D1*
G1X7486Y16340D1*
G1X6839Y16340D1*
G1X6839Y16723D1*
G1X6772Y16790D1*
G1X6839Y16857D1*
G1X6839Y17240D1*
G1X7486Y17240D1*
G1X7539Y17182D2*
G1X6839Y17182D1*
G1X6839Y17083D2*
G1X7539Y17083D1*
G1X7539Y16984D2*
G1X6839Y16984D1*
G1X6839Y16886D2*
G1X7539Y16886D1*
G1X7603Y16787D2*
G1X6775Y16787D1*
G1X6839Y16689D2*
G1X7539Y16689D1*
G1X7539Y16590D2*
G1X6839Y16590D1*
G1X6839Y16492D2*
G1X7539Y16492D1*
G1X7538Y16393D2*
G1X6839Y16393D1*
G1X6439Y16440D2*
G1X6289Y16290D1*
G1X5389Y16290D1*
G1X4639Y15540D1*
G1X4639Y14840D1*
G1X7737Y11742D1*
G1X7737Y11303D1*
G1X7993Y11303D2*
G1X7993Y11786D1*
G1X4839Y14940D1*
G1X4839Y15440D1*
G1X5489Y16090D1*
G1X7589Y16090D1*
G1X7939Y16440D1*
G1X8206Y15703D2*
G1X8289Y15703D1*
G1X8600Y15014D2*
G1X7569Y15014D1*
G1X7668Y14915D2*
G1X8639Y14915D1*
G1X8889Y14590D2*
G1X7639Y14590D1*
G1X7094Y13338D2*
G1X8737Y13338D1*
G1X9017Y14078D2*
G1X9017Y14462D1*
G1X8889Y14590D1*
G1X9273Y14906D2*
G1X9039Y15140D1*
G1X9273Y14906D2*
G1X9273Y14078D1*
G1X10041Y14078D2*
G1X10041Y14492D1*
G1X10289Y14740D1*
G1X10289Y15840D1*
G1X10189Y15940D1*
G1X10189Y18040D1*
G1X10389Y17590D2*
G1X10639Y17840D1*
G1X10639Y17990D1*
G1X10839Y17690D2*
G1X10589Y17440D1*
G1X10589Y16140D1*
G1X10689Y16040D1*
G1X10689Y14540D1*
G1X10552Y14404D1*
G1X10552Y14078D1*
G1X10297Y14078D2*
G1X10297Y14448D1*
G1X10489Y14640D1*
G1X10489Y15940D1*
G1X10389Y16040D1*
G1X10389Y17590D1*
G1X10839Y17690D2*
G1X10939Y17690D1*
G1X11089Y17990D2*
G1X11389Y17690D1*
G1X11289Y17490D2*
G1X13639Y17490D1*
G1X13888Y16787D2*
G1X12775Y16787D1*
G1X12772Y16790D2*
G1X12772Y16790D1*
G1X12439Y16440D2*
G1X12289Y16290D1*
G1X12039Y16290D1*
G1X11289Y15540D1*
G1X11289Y13540D1*
G1X9589Y11840D1*
G1X8889Y11840D1*
G1X8761Y11712D1*
G1X8761Y11303D1*
G1X8505Y11303D2*
G1X8505Y11756D1*
G1X8789Y12040D1*
G1X9489Y12040D1*
G1X11089Y13640D1*
G1X11089Y15640D1*
G1X11289Y15840D1*
G1X11289Y16140D1*
G1X10989Y16440D1*
G1X10939Y16440D1*
G1X11339Y16444D2*
G1X11339Y16723D1*
G1X11272Y16790D1*
G1X11339Y16857D1*
G1X11339Y17187D1*
G1X11393Y17240D1*
G1X12039Y17240D1*
G1X12039Y16857D1*
G1X12106Y16790D1*
G1X12039Y16723D1*
G1X12039Y16540D1*
G1X11936Y16540D1*
G1X11539Y16144D1*
G1X11539Y16244D1*
G1X11339Y16444D1*
G1X11339Y16492D2*
G1X11887Y16492D1*
G1X11788Y16393D2*
G1X11390Y16393D1*
G1X11488Y16295D2*
G1X11690Y16295D1*
G1X11591Y16196D2*
G1X11539Y16196D1*
G1X11339Y16590D2*
G1X12039Y16590D1*
G1X12039Y16689D2*
G1X11339Y16689D1*
G1X11275Y16787D2*
G1X12103Y16787D1*
G1X12039Y16886D2*
G1X11339Y16886D1*
G1X11339Y16984D2*
G1X12039Y16984D1*
G1X12039Y17083D2*
G1X11339Y17083D1*
G1X11339Y17182D2*
G1X12039Y17182D1*
G1X12089Y17970D2*
G1X12944Y17970D1*
G1X13043Y18068D2*
G1X12089Y18068D1*
G1X11689Y18740D2*
G1X11839Y18890D1*
G1X11289Y18840D2*
G1X11289Y18640D1*
G1X11236Y18640D1*
G1X10589Y18640D1*
G1X10589Y18787D1*
G1X10643Y18840D1*
G1X11289Y18840D1*
G1X11289Y18758D2*
G1X10589Y18758D1*
G1X10589Y18660D2*
G1X11289Y18660D1*
G1X11089Y18090D2*
G1X11089Y17990D1*
G1X11289Y17490D2*
G1X10939Y17140D1*
G1X10189Y18740D2*
G1X10539Y19090D1*
G1X12989Y19090D1*
G1X13139Y18940D1*
G1X12889Y19690D2*
G1X13139Y19940D1*
G1X12889Y19690D2*
G1X6639Y19690D1*
G1X5689Y18740D1*
G1X5689Y18040D2*
G1X6089Y18040D1*
G1X5589Y15890D2*
G1X5039Y15340D1*
G1X5039Y15040D1*
G1X8249Y11830D1*
G1X8249Y11303D1*
G1X8353Y10758D2*
G1X8098Y10758D1*
G1X7842Y10758D1*
G1X7586Y10758D1*
G1X7330Y10758D1*
G1X7074Y10758D1*
G1X6957Y10875D1*
G1X3889Y10875D1*
G1X3889Y10973D2*
G1X6957Y10973D1*
G1X6957Y10875D2*
G1X6957Y11569D1*
G1X6386Y12140D1*
G1X5843Y12140D1*
G1X5636Y12140D1*
G1X3311Y14465D1*
G1X3030Y14465D1*
G1X2799Y14696D1*
G1X2799Y14827D1*
G1X2689Y14937D1*
G1X2689Y11390D1*
G1X3172Y11390D1*
G1X3189Y11373D1*
G1X3206Y11390D1*
G1X3772Y11390D1*
G1X3889Y11273D1*
G1X3889Y10107D1*
G1X3824Y10042D1*
G1X3942Y9993D1*
G1X4042Y9893D1*
G1X4096Y9761D1*
G1X4096Y9619D1*
G1X4042Y9488D1*
G1X3942Y9387D1*
G1X3874Y9359D1*
G1X3939Y9294D1*
G1X3939Y8740D1*
G1X3539Y8740D1*
G1X3539Y8640D1*
G1X3939Y8640D1*
G1X3939Y8087D1*
G1X3917Y8064D1*
G1X3921Y8061D1*
G1X3921Y8061D1*
G1X3975Y8015D1*
G1X3976Y8015D1*
G1X4026Y7964D1*
G1X4026Y7964D1*
G1X4071Y7908D1*
G1X4071Y7908D1*
G1X4111Y7849D1*
G1X4111Y7849D1*
G1X4145Y7786D1*
G1X4145Y7786D1*
G1X4150Y7775D1*
G1X4150Y7776D1*
G1X4150Y7776D1*
G1X4192Y7906D1*
G1X4192Y7906D1*
G1X4260Y8024D1*
G1X4260Y8024D1*
G1X4352Y8126D1*
G1X4352Y8126D1*
G1X4462Y8206D1*
G1X4462Y8206D1*
G1X4587Y8262D1*
G1X4587Y8262D1*
G1X4676Y8281D1*
G1X4686Y8290D1*
G1X12693Y8290D1*
G1X12702Y8281D1*
G1X12791Y8262D1*
G1X12916Y8206D1*
G1X13026Y8126D1*
G1X13026Y8126D1*
G1X13118Y8024D1*
G1X13118Y8024D1*
G1X13186Y7906D1*
G1X13186Y7906D1*
G1X13228Y7776D1*
G1X13228Y7776D1*
G1X13228Y7774D1*
G1X13250Y7818D1*
G1X13287Y7879D1*
G1X13329Y7936D1*
G1X13377Y7990D1*
G1X13377Y7990D1*
G1X13429Y8039D1*
G1X13429Y8039D1*
G1X13486Y8082D1*
G1X13503Y8093D1*
G1X13489Y8107D1*
G1X13489Y9273D1*
G1X13554Y9338D1*
G1X13437Y9387D1*
G1X13336Y9488D1*
G1X13282Y9619D1*
G1X13282Y9761D1*
G1X13336Y9893D1*
G1X13437Y9993D1*
G1X13504Y10021D1*
G1X13439Y10087D1*
G1X13439Y10640D1*
G1X13839Y10640D1*
G1X13839Y9994D1*
G1X13842Y9993D1*
G1X13942Y9893D1*
G1X13996Y9761D1*
G1X13996Y9619D1*
G1X13942Y9488D1*
G1X13845Y9390D1*
G1X14172Y9390D1*
G1X14189Y9373D1*
G1X14206Y9390D1*
G1X14484Y9390D1*
G1X14386Y9488D1*
G1X14332Y9619D1*
G1X14332Y9761D1*
G1X14386Y9893D1*
G1X14484Y9990D1*
G1X14243Y9990D1*
G1X14193Y9940D1*
G1X13939Y9940D1*
G1X13939Y10640D1*
G1X13839Y10640D1*
G1X13839Y10740D1*
G1X13439Y10740D1*
G1X13439Y11294D1*
G1X13585Y11440D1*
G1X13839Y11440D1*
G1X13839Y10740D1*
G1X13939Y10740D1*
G1X13939Y11440D1*
G1X14036Y11440D1*
G1X11739Y13737D1*
G1X11739Y13337D1*
G1X11593Y13190D1*
G1X10802Y12400D1*
G1X10802Y11749D1*
G1X10821Y11730D1*
G1X10821Y10875D1*
G1X11364Y10875D1*
G1X11383Y10894D2*
G1X11266Y10777D1*
G1X11266Y9863D1*
G1X11383Y9746D1*
G1X12060Y9746D1*
G1X12178Y9863D1*
G1X12178Y10777D1*
G1X12060Y10894D1*
G1X11383Y10894D1*
G1X11266Y10776D2*
G1X10722Y10776D1*
G1X10704Y10758D2*
G1X10821Y10875D1*
G1X10821Y10973D2*
G1X13439Y10973D1*
G1X13439Y10875D2*
G1X12080Y10875D1*
G1X12178Y10776D2*
G1X13439Y10776D1*
G1X13439Y10579D2*
G1X12178Y10579D1*
G1X12178Y10481D2*
G1X13439Y10481D1*
G1X13439Y10382D2*
G1X12178Y10382D1*
G1X12178Y10284D2*
G1X13439Y10284D1*
G1X13439Y10185D2*
G1X12178Y10185D1*
G1X12178Y10086D2*
G1X13439Y10086D1*
G1X13431Y9988D2*
G1X12178Y9988D1*
G1X12178Y9889D2*
G1X13335Y9889D1*
G1X13294Y9791D2*
G1X12105Y9791D1*
G1X12060Y9634D2*
G1X11383Y9634D1*
G1X11266Y9517D1*
G1X11266Y8604D1*
G1X11383Y8486D1*
G1X12060Y8486D1*
G1X12178Y8604D1*
G1X12178Y9517D1*
G1X12060Y9634D1*
G1X12101Y9594D2*
G1X13292Y9594D1*
G1X13282Y9692D2*
G1X10291Y9692D1*
G1X10291Y9594D2*
G1X11342Y9594D1*
G1X11266Y9495D2*
G1X10197Y9495D1*
G1X10291Y9588D2*
G1X10012Y9310D1*
G1X10012Y8604D1*
G1X9895Y8486D1*
G1X9218Y8486D1*
G1X9100Y8604D1*
G1X9100Y8990D1*
G1X9089Y8990D1*
G1X9089Y8957D1*
G1X8972Y8840D1*
G1X8406Y8840D1*
G1X8374Y8872D1*
G1X8293Y8790D1*
G1X8039Y8790D1*
G1X8039Y9190D1*
G1X7939Y9190D1*
G1X7939Y8790D1*
G1X7685Y8790D1*
G1X7539Y8937D1*
G1X7539Y9190D1*
G1X7939Y9190D1*
G1X7939Y9290D1*
G1X7539Y9290D1*
G1X7539Y9544D1*
G1X7685Y9690D1*
G1X7939Y9690D1*
G1X7939Y9290D1*
G1X8039Y9290D1*
G1X8039Y9690D1*
G1X8293Y9690D1*
G1X8374Y9608D1*
G1X8406Y9640D1*
G1X8972Y9640D1*
G1X9089Y9523D1*
G1X9089Y9490D1*
G1X9100Y9490D1*
G1X9100Y9517D1*
G1X9218Y9634D1*
G1X9630Y9634D1*
G1X9741Y9746D1*
G1X9218Y9746D1*
G1X9100Y9863D1*
G1X9100Y9890D1*
G1X9089Y9890D1*
G1X9089Y9857D1*
G1X8972Y9740D1*
G1X8406Y9740D1*
G1X8374Y9772D1*
G1X8293Y9690D1*
G1X8039Y9690D1*
G1X8039Y10090D1*
G1X7939Y10090D1*
G1X7939Y9690D1*
G1X7685Y9690D1*
G1X7539Y9837D1*
G1X7539Y10090D1*
G1X7939Y10090D1*
G1X7939Y10190D1*
G1X7539Y10190D1*
G1X7539Y10444D1*
G1X7685Y10590D1*
G1X7939Y10590D1*
G1X7939Y10190D1*
G1X8039Y10190D1*
G1X8039Y10590D1*
G1X8293Y10590D1*
G1X8374Y10508D1*
G1X8406Y10540D1*
G1X8972Y10540D1*
G1X9089Y10423D1*
G1X9089Y10390D1*
G1X9100Y10390D1*
G1X9100Y10708D1*
G1X9017Y10708D1*
G1X9017Y10862D1*
G1X9017Y10862D1*
G1X9017Y10862D1*
G1X9017Y10708D1*
G1X8845Y10708D1*
G1X8795Y10758D1*
G1X8609Y10758D1*
G1X8353Y10758D1*
G1X8304Y10579D2*
G1X9100Y10579D1*
G1X9100Y10481D2*
G1X9032Y10481D1*
G1X9100Y10678D2*
G1X3889Y10678D1*
G1X3889Y10776D2*
G1X7056Y10776D1*
G1X6957Y11072D2*
G1X3889Y11072D1*
G1X3889Y11170D2*
G1X6957Y11170D1*
G1X6957Y11269D2*
G1X3889Y11269D1*
G1X3795Y11367D2*
G1X6957Y11367D1*
G1X6957Y11466D2*
G1X2689Y11466D1*
G1X2689Y11565D2*
G1X6957Y11565D1*
G1X6863Y11663D2*
G1X2689Y11663D1*
G1X2689Y11762D2*
G1X6764Y11762D1*
G1X6666Y11860D2*
G1X2689Y11860D1*
G1X2689Y11959D2*
G1X6567Y11959D1*
G1X6469Y12057D2*
G1X2689Y12057D1*
G1X2689Y12156D2*
G1X5620Y12156D1*
G1X5521Y12254D2*
G1X2689Y12254D1*
G1X2689Y12353D2*
G1X5423Y12353D1*
G1X5324Y12451D2*
G1X2689Y12451D1*
G1X2689Y12550D2*
G1X5226Y12550D1*
G1X5127Y12649D2*
G1X2689Y12649D1*
G1X2689Y12747D2*
G1X5029Y12747D1*
G1X4930Y12846D2*
G1X2689Y12846D1*
G1X2689Y12944D2*
G1X4832Y12944D1*
G1X4733Y13043D2*
G1X2689Y13043D1*
G1X2689Y13141D2*
G1X4635Y13141D1*
G1X4536Y13240D2*
G1X2689Y13240D1*
G1X2689Y13338D2*
G1X4437Y13338D1*
G1X4339Y13437D2*
G1X2689Y13437D1*
G1X2689Y13535D2*
G1X4240Y13535D1*
G1X4142Y13634D2*
G1X2689Y13634D1*
G1X2689Y13733D2*
G1X4043Y13733D1*
G1X3945Y13831D2*
G1X2689Y13831D1*
G1X2689Y13930D2*
G1X3846Y13930D1*
G1X3748Y14028D2*
G1X2689Y14028D1*
G1X2689Y14127D2*
G1X3649Y14127D1*
G1X3551Y14225D2*
G1X2689Y14225D1*
G1X2689Y14324D2*
G1X3452Y14324D1*
G1X3354Y14422D2*
G1X2689Y14422D1*
G1X2689Y14521D2*
G1X2975Y14521D1*
G1X2876Y14619D2*
G1X2689Y14619D1*
G1X2689Y14718D2*
G1X2799Y14718D1*
G1X2799Y14816D2*
G1X2689Y14816D1*
G1X2689Y14915D2*
G1X2711Y14915D1*
G1X3127Y15352D2*
G1X2839Y15640D1*
G1X2839Y18040D1*
G1X3739Y18940D1*
G1X3743Y18590D2*
G1X3839Y18590D1*
G1X3839Y18494D1*
G1X3839Y18287D1*
G1X4621Y17505D1*
G1X4539Y17423D1*
G1X4539Y16857D1*
G1X4606Y16790D1*
G1X4539Y16723D1*
G1X4539Y16394D1*
G1X4189Y16044D1*
G1X4189Y15837D1*
G1X4189Y14637D1*
G1X4336Y14490D1*
G1X6186Y12640D1*
G1X5843Y12640D1*
G1X3883Y14600D1*
G1X3979Y14696D1*
G1X3979Y15024D1*
G1X3897Y15106D1*
G1X3979Y15189D1*
G1X3979Y15516D1*
G1X3932Y15563D1*
G1X4029Y15660D1*
G1X4029Y15835D1*
G1X3398Y15835D1*
G1X3398Y15853D1*
G1X4029Y15853D1*
G1X4029Y16029D1*
G1X3932Y16126D1*
G1X3979Y16173D1*
G1X3979Y16500D1*
G1X3897Y16582D1*
G1X3979Y16665D1*
G1X3979Y16992D1*
G1X3897Y17075D1*
G1X3979Y17157D1*
G1X3979Y17484D1*
G1X3748Y17716D1*
G1X3089Y17716D1*
G1X3089Y17937D1*
G1X3743Y18590D1*
G1X3713Y18561D2*
G1X3839Y18561D1*
G1X3839Y18463D2*
G1X3615Y18463D1*
G1X3516Y18364D2*
G1X3839Y18364D1*
G1X3860Y18266D2*
G1X3418Y18266D1*
G1X3319Y18167D2*
G1X3959Y18167D1*
G1X4057Y18068D2*
G1X3221Y18068D1*
G1X3122Y17970D2*
G1X4156Y17970D1*
G1X4254Y17871D2*
G1X3089Y17871D1*
G1X3089Y17773D2*
G1X4353Y17773D1*
G1X4452Y17674D2*
G1X3789Y17674D1*
G1X3888Y17576D2*
G1X4550Y17576D1*
G1X4593Y17477D2*
G1X3979Y17477D1*
G1X3979Y17379D2*
G1X4539Y17379D1*
G1X4539Y17280D2*
G1X3979Y17280D1*
G1X3979Y17182D2*
G1X4539Y17182D1*
G1X4539Y17083D2*
G1X3905Y17083D1*
G1X3979Y16984D2*
G1X4539Y16984D1*
G1X4539Y16886D2*
G1X3979Y16886D1*
G1X3979Y16787D2*
G1X4603Y16787D1*
G1X4539Y16689D2*
G1X3979Y16689D1*
G1X3904Y16590D2*
G1X4539Y16590D1*
G1X4539Y16492D2*
G1X3979Y16492D1*
G1X3979Y16393D2*
G1X4538Y16393D1*
G1X4440Y16295D2*
G1X3979Y16295D1*
G1X3979Y16196D2*
G1X4341Y16196D1*
G1X4243Y16098D2*
G1X3960Y16098D1*
G1X4029Y15999D2*
G1X4189Y15999D1*
G1X4189Y15900D2*
G1X4029Y15900D1*
G1X4029Y15802D2*
G1X4189Y15802D1*
G1X4189Y15703D2*
G1X4029Y15703D1*
G1X3974Y15605D2*
G1X4189Y15605D1*
G1X4189Y15506D2*
G1X3979Y15506D1*
G1X3979Y15408D2*
G1X4189Y15408D1*
G1X4189Y15309D2*
G1X3979Y15309D1*
G1X3979Y15211D2*
G1X4189Y15211D1*
G1X4189Y15112D2*
G1X3903Y15112D1*
G1X3979Y15014D2*
G1X4189Y15014D1*
G1X4189Y14915D2*
G1X3979Y14915D1*
G1X3979Y14816D2*
G1X4189Y14816D1*
G1X4189Y14718D2*
G1X3979Y14718D1*
G1X3902Y14619D2*
G1X4206Y14619D1*
G1X4305Y14521D2*
G1X3962Y14521D1*
G1X4061Y14422D2*
G1X4404Y14422D1*
G1X4336Y14490D2*
G1X4336Y14490D1*
G1X4502Y14324D2*
G1X4159Y14324D1*
G1X4258Y14225D2*
G1X4601Y14225D1*
G1X4699Y14127D2*
G1X4356Y14127D1*
G1X4455Y14028D2*
G1X4798Y14028D1*
G1X4896Y13930D2*
G1X4553Y13930D1*
G1X4652Y13831D2*
G1X4995Y13831D1*
G1X5093Y13733D2*
G1X4750Y13733D1*
G1X4849Y13634D2*
G1X5192Y13634D1*
G1X5290Y13535D2*
G1X4947Y13535D1*
G1X5046Y13437D2*
G1X5389Y13437D1*
G1X5488Y13338D2*
G1X5144Y13338D1*
G1X5243Y13240D2*
G1X5586Y13240D1*
G1X5685Y13141D2*
G1X5342Y13141D1*
G1X5440Y13043D2*
G1X5783Y13043D1*
G1X5882Y12944D2*
G1X5539Y12944D1*
G1X5637Y12846D2*
G1X5980Y12846D1*
G1X6079Y12747D2*
G1X5736Y12747D1*
G1X5834Y12649D2*
G1X6177Y12649D1*
G1X7193Y13240D2*
G1X10335Y13240D1*
G1X10237Y13141D2*
G1X7292Y13141D1*
G1X7390Y13043D2*
G1X10138Y13043D1*
G1X10039Y12944D2*
G1X7489Y12944D1*
G1X7587Y12846D2*
G1X9941Y12846D1*
G1X9842Y12747D2*
G1X7686Y12747D1*
G1X7784Y12649D2*
G1X9744Y12649D1*
G1X9645Y12550D2*
G1X7883Y12550D1*
G1X7981Y12451D2*
G1X9547Y12451D1*
G1X9448Y12353D2*
G1X8080Y12353D1*
G1X8178Y12254D2*
G1X8650Y12254D1*
G1X8551Y12156D2*
G1X8277Y12156D1*
G1X8376Y12057D2*
G1X8453Y12057D1*
G1X9017Y11303D2*
G1X9017Y10868D1*
G1X8839Y10690D1*
G1X8539Y10690D1*
G1X7989Y10140D1*
G1X7939Y10185D2*
G1X3889Y10185D1*
G1X3889Y10284D2*
G1X7539Y10284D1*
G1X7539Y10382D2*
G1X3889Y10382D1*
G1X3889Y10481D2*
G1X7576Y10481D1*
G1X7674Y10579D2*
G1X3889Y10579D1*
G1X3868Y10086D2*
G1X7539Y10086D1*
G1X7539Y9988D2*
G1X3947Y9988D1*
G1X4044Y9889D2*
G1X7539Y9889D1*
G1X7585Y9791D2*
G1X4084Y9791D1*
G1X4096Y9692D2*
G1X7684Y9692D1*
G1X7589Y9594D2*
G1X4086Y9594D1*
G1X4045Y9495D2*
G1X7539Y9495D1*
G1X7539Y9397D2*
G1X3951Y9397D1*
G1X3935Y9298D2*
G1X7539Y9298D1*
G1X7539Y9101D2*
G1X3939Y9101D1*
G1X3939Y9002D2*
G1X7539Y9002D1*
G1X7572Y8904D2*
G1X3939Y8904D1*
G1X3939Y8805D2*
G1X7670Y8805D1*
G1X7939Y8805D2*
G1X8039Y8805D1*
G1X8039Y8904D2*
G1X7939Y8904D1*
G1X7939Y9002D2*
G1X8039Y9002D1*
G1X8039Y9101D2*
G1X7939Y9101D1*
G1X7939Y9200D2*
G1X3939Y9200D1*
G1X3539Y9200D2*
G1X3439Y9200D1*
G1X3439Y9298D2*
G1X3539Y9298D1*
G1X3539Y9386D2*
G1X3539Y8740D1*
G1X3439Y8740D1*
G1X3439Y9433D1*
G1X3465Y9459D1*
G1X3537Y9387D1*
G1X3539Y9386D1*
G1X3527Y9397D2*
G1X3439Y9397D1*
G1X3439Y9101D2*
G1X3539Y9101D1*
G1X3539Y9002D2*
G1X3439Y9002D1*
G1X3439Y8904D2*
G1X3539Y8904D1*
G1X3539Y8805D2*
G1X3439Y8805D1*
G1X3539Y8707D2*
G1X9100Y8707D1*
G1X9100Y8805D2*
G1X8308Y8805D1*
G1X8039Y9298D2*
G1X7939Y9298D1*
G1X7939Y9397D2*
G1X8039Y9397D1*
G1X8039Y9495D2*
G1X7939Y9495D1*
G1X7939Y9594D2*
G1X8039Y9594D1*
G1X8039Y9692D2*
G1X7939Y9692D1*
G1X7939Y9791D2*
G1X8039Y9791D1*
G1X8039Y9889D2*
G1X7939Y9889D1*
G1X7939Y9988D2*
G1X8039Y9988D1*
G1X8039Y10086D2*
G1X7939Y10086D1*
G1X7939Y10284D2*
G1X8039Y10284D1*
G1X8039Y10382D2*
G1X7939Y10382D1*
G1X7939Y10481D2*
G1X8039Y10481D1*
G1X8039Y10579D2*
G1X7939Y10579D1*
G1X8294Y9692D2*
G1X9688Y9692D1*
G1X10041Y9692D2*
G1X9556Y9208D1*
G1X9524Y9240D1*
G1X8689Y9240D1*
G1X9089Y9495D2*
G1X9100Y9495D1*
G1X9177Y9594D2*
G1X9018Y9594D1*
G1X9022Y9791D2*
G1X9173Y9791D1*
G1X9100Y9889D2*
G1X9089Y9889D1*
G1X9376Y10140D2*
G1X8689Y10140D1*
G1X9017Y10776D2*
G1X9017Y10776D1*
G1X9556Y10320D2*
G1X9376Y10140D1*
G1X9556Y10320D2*
G1X9556Y10458D1*
G1X9785Y10686D1*
G1X9785Y11303D1*
G1X10041Y11303D2*
G1X10041Y9692D1*
G1X10099Y9397D2*
G1X11266Y9397D1*
G1X11266Y9298D2*
G1X10012Y9298D1*
G1X10012Y9200D2*
G1X11266Y9200D1*
G1X11266Y9101D2*
G1X10012Y9101D1*
G1X10012Y9002D2*
G1X11266Y9002D1*
G1X11266Y8904D2*
G1X10012Y8904D1*
G1X10012Y8805D2*
G1X11266Y8805D1*
G1X11266Y8707D2*
G1X10012Y8707D1*
G1X10012Y8608D2*
G1X11266Y8608D1*
G1X11360Y8510D2*
G1X9918Y8510D1*
G1X9556Y9060D2*
G1X9556Y9208D1*
G1X9100Y8904D2*
G1X9035Y8904D1*
G1X9100Y8608D2*
G1X3939Y8608D1*
G1X3939Y8510D2*
G1X9194Y8510D1*
G1X10291Y9588D2*
G1X10291Y9795D1*
G1X10291Y10758D1*
G1X10401Y10758D1*
G1X10704Y10758D1*
G1X10821Y11072D2*
G1X13439Y11072D1*
G1X13439Y11170D2*
G1X10821Y11170D1*
G1X10821Y11269D2*
G1X13439Y11269D1*
G1X13513Y11367D2*
G1X10821Y11367D1*
G1X10821Y11466D2*
G1X14010Y11466D1*
G1X13939Y11367D2*
G1X13839Y11367D1*
G1X13839Y11269D2*
G1X13939Y11269D1*
G1X13939Y11170D2*
G1X13839Y11170D1*
G1X13839Y11072D2*
G1X13939Y11072D1*
G1X13939Y10973D2*
G1X13839Y10973D1*
G1X13839Y10875D2*
G1X13939Y10875D1*
G1X13939Y10776D2*
G1X13839Y10776D1*
G1X13839Y10678D2*
G1X12178Y10678D1*
G1X12178Y9495D2*
G1X13333Y9495D1*
G1X13427Y9397D2*
G1X12178Y9397D1*
G1X12178Y9298D2*
G1X13514Y9298D1*
G1X13489Y9200D2*
G1X12178Y9200D1*
G1X12178Y9101D2*
G1X13489Y9101D1*
G1X13489Y9002D2*
G1X12178Y9002D1*
G1X12178Y8904D2*
G1X13489Y8904D1*
G1X13489Y8805D2*
G1X12178Y8805D1*
G1X12178Y8707D2*
G1X13489Y8707D1*
G1X13489Y8608D2*
G1X12178Y8608D1*
G1X12084Y8510D2*
G1X13489Y8510D1*
G1X13489Y8411D2*
G1X3939Y8411D1*
G1X3939Y8313D2*
G1X13489Y8313D1*
G1X13489Y8214D2*
G1X12898Y8214D1*
G1X13036Y8116D2*
G1X13489Y8116D1*
G1X13406Y8017D2*
G1X13122Y8017D1*
G1X13179Y7918D2*
G1X13316Y7918D1*
G1X13251Y7820D2*
G1X13214Y7820D1*
G1X13161Y7331D2*
G1X13173Y7263D1*
G1X13193Y7194D1*
G1X13218Y7127D1*
G1X13250Y7063D1*
G1X13287Y7002D1*
G1X13329Y6944D1*
G1X13377Y6891D1*
G1X13377Y6891D1*
G1X13429Y6842D1*
G1X13429Y6842D1*
G1X13486Y6798D1*
G1X13546Y6760D1*
G1X13610Y6727D1*
G1X13676Y6700D1*
G1X13707Y6690D1*
G1X3673Y6690D1*
G1X3736Y6712D1*
G1X3801Y6742D1*
G1X3863Y6778D1*
G1X3921Y6819D1*
G1X3976Y6866D1*
G1X4026Y6917D1*
G1X4071Y6973D1*
G1X4111Y7032D1*
G1X4145Y7095D1*
G1X4173Y7160D1*
G1X4196Y7228D1*
G1X4212Y7298D1*
G1X4217Y7332D1*
G1X4260Y7256D1*
G1X4352Y7155D1*
G1X4462Y7074D1*
G1X4587Y7019D1*
G1X4676Y7000D1*
G1X4686Y6990D1*
G1X12693Y6990D1*
G1X12702Y7000D1*
G1X12791Y7019D1*
G1X12916Y7074D1*
G1X13026Y7155D1*
G1X13118Y7256D1*
G1X13161Y7331D1*
G1X13159Y7327D2*
G1X13161Y7327D1*
G1X13173Y7263D2*
G1X13173Y7263D1*
G1X13183Y7229D2*
G1X13093Y7229D1*
G1X13118Y7256D2*
G1X13118Y7256D1*
G1X13193Y7194D2*
G1X13193Y7194D1*
G1X13217Y7130D2*
G1X12993Y7130D1*
G1X13026Y7155D2*
G1X13026Y7155D1*
G1X13026Y7155D1*
G1X12916Y7074D2*
G1X12916Y7074D1*
G1X12820Y7032D2*
G1X13269Y7032D1*
G1X13287Y7002D2*
G1X13287Y7002D1*
G1X13250Y7063D2*
G1X13250Y7063D1*
G1X13218Y7127D2*
G1X13218Y7127D1*
G1X13329Y6944D2*
G1X13329Y6944D1*
G1X13339Y6933D2*
G1X4039Y6933D1*
G1X3976Y6866D2*
G1X3976Y6866D1*
G1X3939Y6834D2*
G1X13439Y6834D1*
G1X13486Y6798D2*
G1X13486Y6798D1*
G1X13546Y6760D2*
G1X13546Y6760D1*
G1X13592Y6736D2*
G1X3787Y6736D1*
G1X3801Y6742D2*
G1X3801Y6742D1*
G1X3863Y6778D2*
G1X3863Y6778D1*
G1X3736Y6712D2*
G1X3736Y6712D1*
G1X4110Y7032D2*
G1X4558Y7032D1*
G1X4587Y7019D2*
G1X4587Y7019D1*
G1X4462Y7074D2*
G1X4462Y7074D1*
G1X4385Y7130D2*
G1X4160Y7130D1*
G1X4196Y7229D2*
G1X4285Y7229D1*
G1X4260Y7256D2*
G1X4260Y7256D1*
G1X4219Y7327D2*
G1X4216Y7327D1*
G1X4352Y7155D2*
G1X4352Y7155D1*
G1X4164Y7820D2*
G1X4126Y7820D1*
G1X4062Y7918D2*
G1X4199Y7918D1*
G1X4256Y8017D2*
G1X3973Y8017D1*
G1X3939Y8116D2*
G1X4342Y8116D1*
G1X4352Y8126D2*
G1X4352Y8126D1*
G1X4480Y8214D2*
G1X3939Y8214D1*
G1X2889Y9390D2*
G1X3189Y9690D1*
G1X2889Y9390D2*
G1X2889Y8690D1*
G1X3127Y15352D2*
G1X3389Y15352D1*
G1X2706Y18561D2*
G1X2689Y18561D1*
G1X2689Y18660D2*
G1X2787Y18660D1*
G1X2739Y18758D2*
G1X2689Y18758D1*
G1X2689Y20039D2*
G1X2689Y20039D1*
G1X2689Y20138D2*
G1X2689Y20138D1*
G1X2689Y20236D2*
G1X2732Y20236D1*
G1X2689Y20532D2*
G1X14689Y20532D1*
G1X14689Y20631D2*
G1X12817Y20631D1*
G1X12791Y20619D2*
G1X12791Y20619D1*
G1X12916Y20674D2*
G1X12916Y20674D1*
G1X12991Y20729D2*
G1X13605Y20729D1*
G1X13610Y20727D2*
G1X13610Y20727D1*
G1X13676Y20700D2*
G1X13676Y20700D1*
G1X13546Y20760D2*
G1X13546Y20760D1*
G1X13486Y20798D2*
G1X13486Y20798D1*
G1X13448Y20828D2*
G1X13092Y20828D1*
G1X13118Y20856D2*
G1X13118Y20856D1*
G1X13158Y20926D2*
G1X13345Y20926D1*
G1X13329Y20944D2*
G1X13329Y20944D1*
G1X13287Y21002D2*
G1X13287Y21002D1*
G1X13273Y21025D2*
G1X13202Y21025D1*
G1X13250Y21063D2*
G1X13250Y21063D1*
G1X13377Y20891D2*
G1X13377Y20891D1*
G1X13026Y20755D2*
G1X13026Y20755D1*
G1X13026Y20755D1*
G1X13123Y21616D2*
G1X13173Y21616D1*
G1X13193Y21687D2*
G1X13193Y21687D1*
G1X13203Y21715D2*
G1X13037Y21715D1*
G1X13026Y21726D2*
G1X13026Y21726D1*
G1X12900Y21813D2*
G1X13247Y21813D1*
G1X13218Y21753D2*
G1X13218Y21753D1*
G1X13311Y21912D2*
G1X2857Y21912D1*
G1X2790Y21813D2*
G1X4478Y21813D1*
G1X4462Y21806D2*
G1X4462Y21806D1*
G1X4341Y21715D2*
G1X2742Y21715D1*
G1X2710Y21616D2*
G1X4255Y21616D1*
G1X4260Y21624D2*
G1X4260Y21624D1*
G1X4199Y21517D2*
G1X2694Y21517D1*
G1X2689Y21419D2*
G1X4164Y21419D1*
G1X4150Y21376D2*
G1X4150Y21376D1*
G1X4144Y21320D2*
G1X2689Y21320D1*
G1X2689Y21222D2*
G1X4137Y21222D1*
G1X4136Y21240D2*
G1X4136Y21240D1*
G1X4148Y21123D2*
G1X2689Y21123D1*
G1X2689Y21025D2*
G1X4176Y21025D1*
G1X4150Y21104D2*
G1X4150Y21104D1*
G1X4220Y20926D2*
G1X2689Y20926D1*
G1X2689Y20828D2*
G1X4286Y20828D1*
G1X4260Y20856D2*
G1X4260Y20856D1*
G1X4352Y20755D2*
G1X4352Y20755D1*
G1X4387Y20729D2*
G1X2689Y20729D1*
G1X2689Y20631D2*
G1X4561Y20631D1*
G1X4587Y20619D2*
G1X4587Y20619D1*
G1X4462Y20674D2*
G1X4462Y20674D1*
G1X4192Y21506D2*
G1X4192Y21506D1*
G1X3448Y20335D2*
G1X13930Y20335D1*
G1X14214Y20335D2*
G1X14264Y20335D1*
G1X14264Y20236D2*
G1X14214Y20236D1*
G1X14214Y20138D2*
G1X14264Y20138D1*
G1X14264Y20039D2*
G1X14214Y20039D1*
G1X14264Y19941D2*
G1X14689Y19941D1*
G1X14689Y20039D2*
G1X14689Y20039D1*
G1X14689Y20138D2*
G1X14689Y20138D1*
G1X14689Y20236D2*
G1X14646Y20236D1*
G1X14689Y19842D2*
G1X14689Y19842D1*
G1X14689Y19744D2*
G1X14689Y19744D1*
G1X14689Y19645D2*
G1X14689Y19645D1*
G1X14689Y19547D2*
G1X14689Y19547D1*
G1X14689Y19448D2*
G1X14689Y19448D1*
G1X14689Y19349D2*
G1X14689Y19349D1*
G1X14689Y19251D2*
G1X14689Y19251D1*
G1X14689Y19152D2*
G1X14689Y19152D1*
G1X14689Y19054D2*
G1X14689Y19054D1*
G1X14689Y18955D2*
G1X14558Y18955D1*
G1X14689Y18857D2*
G1X14689Y18857D1*
G1X14689Y18758D2*
G1X14689Y18758D1*
G1X14689Y18660D2*
G1X14662Y18660D1*
G1X14689Y18561D2*
G1X14563Y18561D1*
G1X14264Y18463D2*
G1X14214Y18463D1*
G1X14214Y18364D2*
G1X14264Y18364D1*
G1X14264Y18266D2*
G1X14214Y18266D1*
G1X14214Y18167D2*
G1X14264Y18167D1*
G1X14239Y18115D2*
G1X14239Y17840D1*
G1X14239Y18115D1*
G1X14239Y18115D1*
G1X14239Y18068D2*
G1X14239Y18068D1*
G1X14239Y17970D2*
G1X14239Y17970D1*
G1X14239Y17871D2*
G1X14239Y17871D1*
G1X14239Y17840D2*
G1X14239Y17791D1*
G1X14239Y17791D1*
G1X14239Y17840D1*
G1X14239Y17790D2*
G1X14239Y17491D1*
G1X14239Y17491D1*
G1X14239Y17790D1*
G1X14239Y17790D1*
G1X14239Y17773D2*
G1X14239Y17773D1*
G1X14239Y17674D2*
G1X14239Y17674D1*
G1X14239Y17576D2*
G1X14239Y17576D1*
G1X14239Y17490D2*
G1X14239Y17166D1*
G1X14239Y17490D1*
G1X14239Y17490D1*
G1X14239Y17477D2*
G1X14239Y17477D1*
G1X14239Y17379D2*
G1X14239Y17379D1*
G1X14239Y17280D2*
G1X14239Y17280D1*
G1X14239Y17182D2*
G1X14239Y17182D1*
G1X14239Y17166D2*
G1X14239Y17166D1*
G1X14214Y17083D2*
G1X14264Y17083D1*
G1X14264Y16984D2*
G1X14214Y16984D1*
G1X14214Y16886D2*
G1X14264Y16886D1*
G1X14264Y16787D2*
G1X14214Y16787D1*
G1X14689Y15506D2*
G1X13139Y15506D1*
G1X13189Y15408D2*
G1X14689Y15408D1*
G1X14689Y15309D2*
G1X13189Y15309D1*
G1X13189Y15211D2*
G1X14689Y15211D1*
G1X14689Y15112D2*
G1X13189Y15112D1*
G1X13189Y15014D2*
G1X14689Y15014D1*
G1X14689Y14915D2*
G1X13189Y14915D1*
G1X13189Y14816D2*
G1X14689Y14816D1*
G1X14689Y14718D2*
G1X13189Y14718D1*
G1X13189Y14619D2*
G1X14689Y14619D1*
G1X14689Y14521D2*
G1X13189Y14521D1*
G1X13189Y14422D2*
G1X14689Y14422D1*
G1X14689Y14324D2*
G1X13188Y14324D1*
G1X13090Y14225D2*
G1X14689Y14225D1*
G1X14689Y14127D2*
G1X12991Y14127D1*
G1X12647Y13535D2*
G1X14689Y13535D1*
G1X14689Y13437D2*
G1X12746Y13437D1*
G1X12844Y13338D2*
G1X14689Y13338D1*
G1X14689Y13240D2*
G1X12943Y13240D1*
G1X13042Y13141D2*
G1X14689Y13141D1*
G1X14689Y13043D2*
G1X13140Y13043D1*
G1X13239Y12944D2*
G1X14689Y12944D1*
G1X14689Y12846D2*
G1X13337Y12846D1*
G1X13436Y12747D2*
G1X14689Y12747D1*
G1X14689Y12649D2*
G1X13534Y12649D1*
G1X13633Y12550D2*
G1X14689Y12550D1*
G1X14689Y12451D2*
G1X13731Y12451D1*
G1X13830Y12353D2*
G1X14689Y12353D1*
G1X14689Y12254D2*
G1X13928Y12254D1*
G1X14027Y12156D2*
G1X14689Y12156D1*
G1X14689Y12057D2*
G1X14126Y12057D1*
G1X14224Y11959D2*
G1X14689Y11959D1*
G1X14689Y11860D2*
G1X14323Y11860D1*
G1X14421Y11762D2*
G1X14689Y11762D1*
G1X14689Y11663D2*
G1X14520Y11663D1*
G1X14618Y11565D2*
G1X14689Y11565D1*
G1X14489Y11340D2*
G1X14489Y10690D1*
G1X14489Y11340D2*
G1X11689Y14140D1*
G1X11689Y15190D1*
G1X11939Y15440D1*
G1X12084Y15112D2*
G1X12389Y15112D1*
G1X12389Y15014D2*
G1X11939Y15014D1*
G1X11939Y14915D2*
G1X12389Y14915D1*
G1X12389Y14816D2*
G1X11939Y14816D1*
G1X11939Y14718D2*
G1X12389Y14718D1*
G1X12389Y14619D2*
G1X11939Y14619D1*
G1X11939Y14521D2*
G1X12389Y14521D1*
G1X12389Y14422D2*
G1X11939Y14422D1*
G1X11939Y14324D2*
G1X12390Y14324D1*
G1X12488Y14225D2*
G1X11958Y14225D1*
G1X12056Y14127D2*
G1X12587Y14127D1*
G1X12352Y13831D2*
G1X14689Y13831D1*
G1X14689Y13733D2*
G1X12450Y13733D1*
G1X12549Y13634D2*
G1X14689Y13634D1*
G1X14689Y13930D2*
G1X12253Y13930D1*
G1X12155Y14028D2*
G1X14689Y14028D1*
G1X13419Y12057D2*
G1X10802Y12057D1*
G1X10802Y11959D2*
G1X13517Y11959D1*
G1X13616Y11860D2*
G1X10802Y11860D1*
G1X10802Y11762D2*
G1X13714Y11762D1*
G1X13813Y11663D2*
G1X10821Y11663D1*
G1X10821Y11565D2*
G1X13911Y11565D1*
G1X13320Y12156D2*
G1X10802Y12156D1*
G1X10802Y12254D2*
G1X13221Y12254D1*
G1X13123Y12353D2*
G1X10802Y12353D1*
G1X10854Y12451D2*
G1X13024Y12451D1*
G1X12926Y12550D2*
G1X10952Y12550D1*
G1X11051Y12649D2*
G1X12827Y12649D1*
G1X12729Y12747D2*
G1X11149Y12747D1*
G1X11248Y12846D2*
G1X12630Y12846D1*
G1X12532Y12944D2*
G1X11346Y12944D1*
G1X11445Y13043D2*
G1X12433Y13043D1*
G1X12335Y13141D2*
G1X11544Y13141D1*
G1X11642Y13240D2*
G1X12236Y13240D1*
G1X12138Y13338D2*
G1X11739Y13338D1*
G1X11739Y13437D2*
G1X12039Y13437D1*
G1X11940Y13535D2*
G1X11739Y13535D1*
G1X11739Y13634D2*
G1X11842Y13634D1*
G1X11743Y13733D2*
G1X11739Y13733D1*
G1X11489Y13440D2*
G1X11489Y15440D1*
G1X12139Y16090D1*
G1X12639Y16090D1*
G1X12739Y15990D1*
G1X12303Y15211D2*
G1X12217Y15211D1*
G1X11489Y13440D2*
G1X10552Y12504D1*
G1X10552Y11303D1*
G1X10291Y10678D2*
G1X11266Y10678D1*
G1X11266Y10579D2*
G1X10291Y10579D1*
G1X10291Y10481D2*
G1X11266Y10481D1*
G1X11266Y10382D2*
G1X10291Y10382D1*
G1X10291Y10284D2*
G1X11266Y10284D1*
G1X11266Y10185D2*
G1X10291Y10185D1*
G1X10291Y10086D2*
G1X11266Y10086D1*
G1X11266Y9988D2*
G1X10291Y9988D1*
G1X10291Y9889D2*
G1X11266Y9889D1*
G1X11338Y9791D2*
G1X10291Y9791D1*
G1X12791Y7019D2*
G1X12791Y7019D1*
G1X13377Y6891D2*
G1X13377Y6891D1*
G1X13610Y6727D2*
G1X13610Y6727D1*
G1X13676Y6700D2*
G1X13676Y6700D1*
G1X13851Y9397D2*
G1X14477Y9397D1*
G1X14383Y9495D2*
G1X13945Y9495D1*
G1X13986Y9594D2*
G1X14342Y9594D1*
G1X14332Y9692D2*
G1X13996Y9692D1*
G1X13984Y9791D2*
G1X14344Y9791D1*
G1X14385Y9889D2*
G1X13944Y9889D1*
G1X13939Y9988D2*
G1X13847Y9988D1*
G1X13839Y10086D2*
G1X13939Y10086D1*
G1X13939Y10185D2*
G1X13839Y10185D1*
G1X13839Y10284D2*
G1X13939Y10284D1*
G1X13939Y10382D2*
G1X13839Y10382D1*
G1X13839Y10481D2*
G1X13939Y10481D1*
G1X13939Y10579D2*
G1X13839Y10579D1*
G1X14240Y9988D2*
G1X14481Y9988D1*
G1X9439Y17140D2*
G1X9539Y17240D1*
G1X9539Y18090D1*
G1X9594Y18449D2*
G1X9468Y18449D1*
G1X9336Y18394D1*
G1X9235Y18294D1*
G1X9208Y18229D1*
G1X9160Y18249D1*
G1X9089Y18249D1*
G1X9089Y18323D1*
G1X9022Y18390D1*
G1X9089Y18457D1*
G1X9089Y18787D1*
G1X9343Y19040D1*
G1X9806Y19040D1*
G1X9789Y19023D1*
G1X9789Y18640D1*
G1X9786Y18640D1*
G1X9639Y18494D1*
G1X9594Y18449D1*
G1X9608Y18463D2*
G1X9089Y18463D1*
G1X9089Y18561D2*
G1X9706Y18561D1*
G1X9789Y18660D2*
G1X9089Y18660D1*
G1X9089Y18758D2*
G1X9789Y18758D1*
G1X9789Y18857D2*
G1X9159Y18857D1*
G1X9258Y18955D2*
G1X9789Y18955D1*
G1X9305Y18364D2*
G1X9048Y18364D1*
G1X9089Y18266D2*
G1X9223Y18266D1*
G1X9089Y17890D2*
G1X8839Y17890D1*
G1X8689Y18040D1*
G1X12589Y21890D2*
G1X12589Y21890D1*
G1X12791Y21862D2*
G1X12791Y21862D1*
G1X13399Y22010D2*
G1X2951Y22010D1*
G1X3104Y22109D2*
G1X13527Y22109D1*
G1X13957Y20654D2*
G1X13957Y20654D1*
G1X14028Y20659D2*
G1X14028Y20659D1*
G1X14099Y20671D2*
G1X14099Y20671D1*
G1X14272Y20729D2*
G1X14689Y20729D1*
G1X14689Y20828D2*
G1X14431Y20828D1*
G1X14476Y20866D2*
G1X14476Y20866D1*
G1X14533Y20926D2*
G1X14689Y20926D1*
G1X14689Y21025D2*
G1X14606Y21025D1*
G1X14657Y21123D2*
G1X14689Y21123D1*
G1X14239Y19915D2*
G1X14239Y19640D1*
G1X14239Y19915D1*
G1X14239Y19915D1*
G1X14239Y19842D2*
G1X14239Y19842D1*
G1X14239Y19744D2*
G1X14239Y19744D1*
G1X14239Y19645D2*
G1X14239Y19645D1*
G1X14239Y19640D2*
G1X14239Y19591D1*
G1X14239Y19591D1*
G1X14239Y19640D1*
G1X14239Y19590D2*
G1X14239Y19291D1*
G1X14239Y19291D1*
G1X14239Y19590D1*
G1X14239Y19590D1*
G1X14239Y19547D2*
G1X14239Y19547D1*
G1X14239Y19448D2*
G1X14239Y19448D1*
G1X14239Y19349D2*
G1X14239Y19349D1*
G1X14239Y19290D2*
G1X14239Y18966D1*
G1X14239Y19290D1*
G1X14239Y19290D1*
G1X14239Y19251D2*
G1X14239Y19251D1*
G1X14239Y19152D2*
G1X14239Y19152D1*
G1X14239Y19054D2*
G1X14239Y19054D1*
G1X14239Y18966D2*
G1X14239Y18966D1*
G1X14214Y18857D2*
G1X14264Y18857D1*
G1X14264Y18758D2*
G1X14214Y18758D1*
G1X14214Y18660D2*
G1X14264Y18660D1*
G1X14593Y19290D2*
G1X14593Y19290D1*
G1X14593Y19590D2*
G1X14593Y19590D1*
G1X3164Y20039D2*
G1X3114Y20039D1*
G1X3114Y20138D2*
G1X3164Y20138D1*
G1X3164Y20236D2*
G1X3114Y20236D1*
G1X3114Y20335D2*
G1X3164Y20335D1*
G54D21*
G1X3139Y20340D3*
G1X4289Y21990D3*
G1X4089Y17790D3*
G1X6639Y15390D3*
G1X5889Y12740D3*
G1X3989Y10990D3*
G1X3939Y8990D3*
G1X4289Y6890D3*
G1X7989Y9690D3*
G1X8889Y12690D3*
G1X9739Y15590D3*
G1X8689Y17040D3*
G1X12189Y14540D3*
G1X12789Y14490D3*
G1X12589Y15490D3*
G1X13739Y14990D3*
G1X14239Y18540D3*
G1X13089Y21990D3*
G1X13439Y10990D3*
G1X13089Y6890D3*
G1X13889Y10690D2*
G54D22*
G1X13889Y10990D1*
G1X13439Y10990D1*
G1X12789Y14490D2*
G1X12789Y15290D1*
G1X12589Y15490D1*
G1X9739Y15590D2*
G1X9739Y15140D1*
G1X9039Y15140D2*
G1X8689Y15490D1*
G1X8689Y17040D1*
G1X5889Y12740D2*
G1X4089Y14540D1*
G1X4089Y15844D1*
G1X4089Y17790D1*
G1X3939Y8990D2*
G1X3489Y8990D1*
G1X3489Y8690D1*
G1X3389Y15844D2*
G54D23*
G1X4089Y15844D1*
G1X3139Y19940D2*
G1X3139Y20340D1*
G1X12439Y17140D2*
G1X13639Y17140D1*
M2*
