*
%LPD*%
%LNBinaryWatch_Rev_A.plc*%
%FSLAX24Y24*%
%MOIN*%
%AD*%
%ADD20C,0.010000*%
%ADD24C,0.012000*%
%ADD25C,0.013000*%
%ADD26C,0.008000*%
%ADD27C,0.001000*%
%ADD28C,0.000000*%
%ADD29C,0.005000*%
G54D20*
G1X3439Y6440D2*
G1X13939Y6440D1*
G1X14002Y6442D1*
G1X14064Y6448D1*
G1X14126Y6458D1*
G1X14188Y6471D1*
G1X14248Y6489D1*
G1X14307Y6510D1*
G1X14365Y6535D1*
G1X14421Y6564D1*
G1X14475Y6596D1*
G1X14527Y6631D1*
G1X14576Y6669D1*
G1X14624Y6711D1*
G1X14668Y6755D1*
G1X14710Y6803D1*
G1X14748Y6852D1*
G1X14783Y6904D1*
G1X14815Y6958D1*
G1X14844Y7014D1*
G1X14869Y7072D1*
G1X14890Y7131D1*
G1X14908Y7191D1*
G1X14921Y7253D1*
G1X14931Y7315D1*
G1X14937Y7377D1*
G1X14939Y7440D1*
G1X14939Y21440D1*
G1X14937Y21503D1*
G1X14931Y21565D1*
G1X14921Y21627D1*
G1X14908Y21689D1*
G1X14890Y21749D1*
G1X14869Y21808D1*
G1X14844Y21866D1*
G1X14815Y21922D1*
G1X14783Y21976D1*
G1X14748Y22028D1*
G1X14710Y22077D1*
G1X14668Y22125D1*
G1X14624Y22169D1*
G1X14576Y22211D1*
G1X14527Y22249D1*
G1X14475Y22284D1*
G1X14421Y22316D1*
G1X14365Y22345D1*
G1X14307Y22370D1*
G1X14248Y22391D1*
G1X14188Y22409D1*
G1X14126Y22422D1*
G1X14064Y22432D1*
G1X14002Y22438D1*
G1X13939Y22440D1*
G1X3439Y22440D1*
G1X3376Y22438D1*
G1X3314Y22432D1*
G1X3252Y22422D1*
G1X3190Y22409D1*
G1X3130Y22391D1*
G1X3071Y22370D1*
G1X3013Y22345D1*
G1X2957Y22316D1*
G1X2903Y22284D1*
G1X2851Y22249D1*
G1X2802Y22211D1*
G1X2754Y22169D1*
G1X2710Y22125D1*
G1X2668Y22077D1*
G1X2630Y22028D1*
G1X2595Y21976D1*
G1X2563Y21922D1*
G1X2534Y21866D1*
G1X2509Y21808D1*
G1X2488Y21749D1*
G1X2470Y21689D1*
G1X2457Y21627D1*
G1X2447Y21565D1*
G1X2441Y21503D1*
G1X2439Y21440D1*
G1X2439Y7440D1*
G1X2439Y8790D2*
G1X2639Y8790D1*
G1X2439Y8790D2*
G1X2439Y9440D1*
G1X2439Y9690D2*
G1X2439Y9940D1*
G1X2439Y9690D2*
G1X2439Y9440D1*
G1X2439Y9940D2*
G1X2439Y10540D1*
G1X2639Y10540D1*
G1X3739Y10540D2*
G1X3939Y10540D1*
G1X3939Y8790D1*
G1X3739Y8790D1*
G1X2439Y7440D2*
G1X2441Y7377D1*
G1X2447Y7315D1*
G1X2457Y7253D1*
G1X2470Y7191D1*
G1X2488Y7131D1*
G1X2509Y7072D1*
G1X2534Y7014D1*
G1X2563Y6958D1*
G1X2595Y6904D1*
G1X2630Y6852D1*
G1X2668Y6803D1*
G1X2710Y6755D1*
G1X2754Y6711D1*
G1X2802Y6669D1*
G1X2851Y6631D1*
G1X2903Y6596D1*
G1X2957Y6564D1*
G1X3013Y6535D1*
G1X3071Y6510D1*
G1X3130Y6489D1*
G1X3190Y6471D1*
G1X3252Y6458D1*
G1X3314Y6448D1*
G1X3376Y6442D1*
G1X3439Y6440D1*
G1X4789Y7240D2*
G1X12589Y7240D1*
G1X12628Y7242D1*
G1X12667Y7248D1*
G1X12705Y7257D1*
G1X12742Y7270D1*
G1X12778Y7287D1*
G1X12811Y7307D1*
G1X12843Y7331D1*
G1X12872Y7357D1*
G1X12898Y7386D1*
G1X12922Y7418D1*
G1X12942Y7451D1*
G1X12959Y7487D1*
G1X12972Y7524D1*
G1X12981Y7562D1*
G1X12987Y7601D1*
G1X12989Y7640D1*
G1X12987Y7679D1*
G1X12981Y7718D1*
G1X12972Y7756D1*
G1X12959Y7793D1*
G1X12942Y7829D1*
G1X12922Y7862D1*
G1X12898Y7894D1*
G1X12872Y7923D1*
G1X12843Y7949D1*
G1X12811Y7973D1*
G1X12778Y7993D1*
G1X12742Y8010D1*
G1X12705Y8023D1*
G1X12667Y8032D1*
G1X12628Y8038D1*
G1X12589Y8040D1*
G1X4789Y8040D1*
G1X4750Y8038D1*
G1X4711Y8032D1*
G1X4673Y8023D1*
G1X4636Y8010D1*
G1X4600Y7993D1*
G1X4567Y7973D1*
G1X4535Y7949D1*
G1X4506Y7923D1*
G1X4480Y7894D1*
G1X4456Y7862D1*
G1X4436Y7829D1*
G1X4419Y7793D1*
G1X4406Y7756D1*
G1X4397Y7718D1*
G1X4391Y7679D1*
G1X4389Y7640D1*
G1X4391Y7601D1*
G1X4397Y7562D1*
G1X4406Y7524D1*
G1X4419Y7487D1*
G1X4436Y7451D1*
G1X4456Y7418D1*
G1X4480Y7386D1*
G1X4506Y7357D1*
G1X4535Y7331D1*
G1X4567Y7307D1*
G1X4600Y7287D1*
G1X4636Y7270D1*
G1X4673Y7257D1*
G1X4711Y7248D1*
G1X4750Y7242D1*
G1X4789Y7240D1*
G1X6464Y11558D2*
G1X6466Y11585D1*
G1X6472Y11611D1*
G1X6482Y11637D1*
G1X6495Y11660D1*
G1X6512Y11681D1*
G1X6532Y11700D1*
G1X6555Y11715D1*
G1X6579Y11726D1*
G1X6605Y11734D1*
G1X6631Y11738D1*
G1X6659Y11738D1*
G1X6685Y11734D1*
G1X6711Y11726D1*
G1X6736Y11715D1*
G1X6758Y11700D1*
G1X6778Y11681D1*
G1X6795Y11660D1*
G1X6808Y11637D1*
G1X6818Y11611D1*
G1X6824Y11585D1*
G1X6826Y11558D1*
G1X6824Y11531D1*
G1X6818Y11505D1*
G1X6808Y11479D1*
G1X6795Y11456D1*
G1X6778Y11435D1*
G1X6758Y11416D1*
G1X6735Y11401D1*
G1X6711Y11390D1*
G1X6685Y11382D1*
G1X6659Y11378D1*
G1X6631Y11378D1*
G1X6605Y11382D1*
G1X6579Y11390D1*
G1X6554Y11401D1*
G1X6532Y11416D1*
G1X6512Y11435D1*
G1X6495Y11456D1*
G1X6482Y11479D1*
G1X6472Y11505D1*
G1X6466Y11531D1*
G1X6464Y11558D1*
G1X8846Y12690D2*
G1X8848Y12703D1*
G1X8854Y12715D1*
G1X8864Y12725D1*
G1X8876Y12731D1*
G1X8889Y12733D1*
G1X8902Y12731D1*
G1X8914Y12725D1*
G1X8924Y12715D1*
G1X8930Y12703D1*
G1X8932Y12690D1*
G1X8930Y12677D1*
G1X8924Y12665D1*
G1X8914Y12655D1*
G1X8902Y12649D1*
G1X8889Y12647D1*
G1X8876Y12649D1*
G1X8864Y12655D1*
G1X8854Y12665D1*
G1X8848Y12677D1*
G1X8846Y12690D1*
G1X9064Y10438D2*
G1X9064Y9927D1*
G1X9064Y9454D1*
G1X9064Y8942D1*
G1X9182Y8942D1*
G1X9064Y9454D2*
G1X9094Y9456D1*
G1X9123Y9461D1*
G1X9151Y9471D1*
G1X9178Y9483D1*
G1X9203Y9499D1*
G1X9226Y9518D1*
G1X9246Y9540D1*
G1X9263Y9564D1*
G1X9278Y9590D1*
G1X9288Y9617D1*
G1X9296Y9646D1*
G1X9300Y9675D1*
G1X9300Y9705D1*
G1X9296Y9734D1*
G1X9288Y9763D1*
G1X9278Y9790D1*
G1X9263Y9816D1*
G1X9246Y9840D1*
G1X9226Y9862D1*
G1X9203Y9881D1*
G1X9178Y9897D1*
G1X9151Y9909D1*
G1X9123Y9919D1*
G1X9094Y9924D1*
G1X9064Y9926D1*
G1X9064Y10438D2*
G1X9182Y10438D1*
G1X9930Y10438D2*
G1X11348Y10438D1*
G1X12096Y10438D2*
G1X12214Y10438D1*
G1X12214Y8942D1*
G1X12096Y8942D1*
G1X11348Y8942D2*
G1X9930Y8942D1*
G1X10089Y9090D2*
G1X10239Y9240D1*
G1X10239Y9440D1*
G1X10539Y9440D1*
G1X10539Y9590D2*
G1X9939Y9590D1*
G1X9939Y9790D1*
G1X10539Y9790D1*
G1X10539Y9590D1*
G1X10539Y9940D2*
G1X10239Y9940D1*
G1X10239Y10140D1*
G1X10089Y10290D1*
G1X9939Y9940D2*
G1X10239Y9940D1*
G1X10239Y9440D2*
G1X9939Y9440D1*
G1X13439Y8840D2*
G1X13639Y8840D1*
G1X13439Y8840D2*
G1X13439Y10590D1*
G1X13639Y10590D1*
G1X14739Y10590D2*
G1X14939Y10590D1*
G1X14939Y9940D1*
G1X14939Y9690D2*
G1X14939Y9440D1*
G1X14939Y9690D2*
G1X14939Y9940D1*
G1X14939Y9440D2*
G1X14939Y8840D1*
G1X14739Y8840D1*
G1X12789Y15640D2*
G1X12789Y16140D1*
G1X12739Y16140D1*
G1X12739Y15640D1*
G1X12789Y15640D1*
G1X12839Y15690D1*
G1X12839Y15820D1*
G1X12524Y15820D1*
G1X12524Y16140D1*
G1X12539Y16140D1*
G1X12539Y15820D1*
G1X12589Y15820D2*
G1X12589Y16140D1*
G1X12634Y16140D1*
G1X12634Y15640D1*
G1X12639Y15640D2*
G1X12639Y16140D1*
G1X12689Y16140D1*
G1X12689Y15640D1*
G1X12739Y15640D1*
G1X12689Y15640D2*
G1X12639Y15640D1*
G1X12189Y15640D1*
G1X12189Y16140D1*
G1X12239Y16140D1*
G1X12239Y16040D1*
G1X12339Y16140D1*
G1X12389Y16140D1*
G1X12239Y15990D1*
G1X12239Y15985D1*
G1X12394Y16140D1*
G1X12524Y16140D1*
G1X12539Y16140D2*
G1X12589Y16140D1*
G1X12634Y16140D2*
G1X12639Y16140D1*
G1X12689Y16140D2*
G1X12739Y16140D1*
G1X12739Y17440D1*
G1X12139Y17440D1*
G1X12139Y17540D1*
G1X12739Y17540D1*
G1X12789Y17540D1*
G1X12839Y17490D1*
G1X12839Y16140D1*
G1X12839Y15820D1*
G1X12839Y16140D2*
G1X12789Y16140D1*
G1X12394Y16140D2*
G1X12389Y16140D1*
G1X12339Y16140D2*
G1X12239Y16140D1*
G1X12189Y16140D2*
G1X12139Y16140D1*
G1X12139Y15640D1*
G1X12189Y15640D1*
G1X12139Y15640D2*
G1X12089Y15640D1*
G1X12089Y16140D1*
G1X12139Y16140D1*
G1X12139Y17440D1*
G1X12139Y17540D2*
G1X12089Y17540D1*
G1X12039Y17490D1*
G1X12039Y16140D1*
G1X12039Y15690D1*
G1X12089Y15640D1*
G1X12239Y15640D2*
G1X12239Y15985D1*
G1X12239Y15990D2*
G1X12239Y16040D1*
G1X12089Y16140D2*
G1X12039Y16140D1*
G1X12289Y15850D2*
G1X12344Y15850D1*
G1X12344Y15820D1*
G1X12289Y15820D1*
G1X12289Y15850D1*
G1X12339Y15850D2*
G1X12339Y15820D1*
G1X11339Y15690D2*
G1X11289Y15640D1*
G1X11289Y16140D1*
G1X11239Y16140D1*
G1X11239Y15640D1*
G1X11289Y15640D1*
G1X11239Y15640D2*
G1X11189Y15640D1*
G1X11189Y16140D1*
G1X11239Y16140D1*
G1X11239Y17440D1*
G1X10639Y17440D1*
G1X10639Y17540D1*
G1X11239Y17540D1*
G1X11289Y17540D1*
G1X11339Y17490D1*
G1X11339Y16140D1*
G1X11339Y15690D1*
G1X11189Y15640D2*
G1X11139Y15640D1*
G1X11139Y16140D1*
G1X11189Y16140D1*
G1X11139Y16140D2*
G1X10739Y16140D1*
G1X10739Y15640D1*
G1X10689Y15640D2*
G1X10689Y16140D1*
G1X10739Y16140D1*
G1X10689Y16140D2*
G1X10639Y16140D1*
G1X10639Y15640D1*
G1X10689Y15640D1*
G1X11139Y15640D1*
G1X11289Y16140D2*
G1X11339Y16140D1*
G1X10639Y16140D2*
G1X10589Y16140D1*
G1X10589Y15640D1*
G1X10639Y15640D1*
G1X10589Y15640D2*
G1X10539Y15690D1*
G1X10539Y16140D1*
G1X10589Y16140D1*
G1X10539Y16140D2*
G1X10539Y17490D1*
G1X10589Y17540D1*
G1X10639Y17540D1*
G1X10639Y17440D2*
G1X10639Y16140D1*
G1X9839Y16140D2*
G1X9839Y17490D1*
G1X9789Y17540D1*
G1X9739Y17540D1*
G1X9139Y17540D1*
G1X9139Y17440D1*
G1X9139Y16140D1*
G1X9139Y15640D1*
G1X9189Y15640D1*
G1X9189Y16140D1*
G1X9239Y16140D1*
G1X9239Y15990D1*
G1X9389Y16140D1*
G1X9449Y16140D2*
G1X9249Y15940D1*
G1X9239Y15990D2*
G1X9239Y15800D1*
G1X9399Y15800D1*
G1X9399Y15640D1*
G1X9389Y15640D1*
G1X9389Y15800D1*
G1X9339Y15800D2*
G1X9339Y15640D1*
G1X9289Y15640D2*
G1X9289Y15800D1*
G1X9239Y15800D2*
G1X9239Y15640D1*
G1X9189Y15640D2*
G1X9639Y15640D1*
G1X9639Y16140D1*
G1X9689Y16140D1*
G1X9689Y15640D1*
G1X9739Y15640D1*
G1X9739Y16140D1*
G1X9789Y16140D1*
G1X9789Y15640D1*
G1X9839Y15690D1*
G1X9839Y16140D1*
G1X9789Y16140D1*
G1X9739Y16140D2*
G1X9739Y17440D1*
G1X9139Y17440D1*
G1X9139Y17540D2*
G1X9089Y17540D1*
G1X9039Y17490D1*
G1X9039Y16140D1*
G1X9039Y15690D1*
G1X9089Y15640D1*
G1X9089Y16140D1*
G1X9139Y16140D1*
G1X9189Y16140D1*
G1X9239Y16140D2*
G1X9639Y16140D1*
G1X9689Y16140D2*
G1X9739Y16140D1*
G1X9579Y16140D2*
G1X9579Y15980D1*
G1X9579Y15800D2*
G1X9579Y15640D1*
G1X9639Y15640D2*
G1X9689Y15640D1*
G1X9739Y15640D2*
G1X9789Y15640D1*
G1X9139Y15640D2*
G1X9089Y15640D1*
G1X9089Y16140D2*
G1X9039Y16140D1*
G1X8339Y16140D2*
G1X8339Y15690D1*
G1X8289Y15640D1*
G1X8289Y16140D1*
G1X8239Y16140D1*
G1X8239Y15640D1*
G1X8289Y15640D1*
G1X8239Y15640D2*
G1X8189Y15640D1*
G1X8189Y16140D1*
G1X8239Y16140D1*
G1X8239Y17440D1*
G1X7639Y17440D1*
G1X7639Y17540D1*
G1X8239Y17540D1*
G1X8289Y17540D1*
G1X8339Y17490D1*
G1X8339Y16140D1*
G1X8289Y16140D1*
G1X8189Y16140D2*
G1X8139Y16140D1*
G1X8139Y15640D1*
G1X8189Y15640D1*
G1X8139Y15640D2*
G1X7689Y15640D1*
G1X7689Y16140D1*
G1X7739Y16140D1*
G1X7739Y15640D1*
G1X7689Y15640D2*
G1X7639Y15640D1*
G1X7639Y16140D1*
G1X7589Y16140D1*
G1X7589Y15640D1*
G1X7639Y15640D1*
G1X7589Y15640D2*
G1X7539Y15690D1*
G1X7539Y16140D1*
G1X7589Y16140D1*
G1X7539Y16140D2*
G1X7539Y17490D1*
G1X7589Y17540D1*
G1X7639Y17540D1*
G1X7639Y17440D2*
G1X7639Y16140D1*
G1X7689Y16140D1*
G1X7739Y16140D2*
G1X8139Y16140D1*
G1X8239Y17440D2*
G1X8239Y17540D1*
G1X8339Y17640D2*
G1X9039Y17640D1*
G1X9089Y17690D1*
G1X9089Y17740D1*
G1X8989Y17740D1*
G1X8989Y19040D1*
G1X8939Y19040D1*
G1X8939Y19540D1*
G1X8989Y19540D1*
G1X9039Y19540D1*
G1X9089Y19490D1*
G1X9089Y17740D1*
G1X8989Y17740D2*
G1X8389Y17740D1*
G1X8289Y17740D1*
G1X8289Y17690D1*
G1X8339Y17640D1*
G1X8289Y17740D2*
G1X8289Y19490D1*
G1X8339Y19540D1*
G1X8389Y19540D1*
G1X8389Y19040D1*
G1X8389Y17740D1*
G1X7589Y17740D2*
G1X7589Y17690D1*
G1X7539Y17640D1*
G1X6839Y17640D1*
G1X6789Y17690D1*
G1X6789Y17740D1*
G1X6889Y17740D1*
G1X6889Y19040D1*
G1X6889Y19540D1*
G1X6939Y19540D1*
G1X6939Y19040D1*
G1X6989Y19040D1*
G1X6989Y19540D1*
G1X7389Y19540D1*
G1X7389Y19040D1*
G1X7439Y19040D2*
G1X7439Y19540D1*
G1X7489Y19540D1*
G1X7539Y19540D1*
G1X7589Y19490D1*
G1X7589Y17740D1*
G1X7489Y17740D1*
G1X7489Y19040D1*
G1X7439Y19040D1*
G1X6989Y19040D1*
G1X6939Y19040D2*
G1X6889Y19040D1*
G1X6789Y19490D2*
G1X6789Y17740D1*
G1X6889Y17740D2*
G1X7489Y17740D1*
G1X6839Y17490D2*
G1X6839Y16140D1*
G1X6839Y15785D1*
G1X6694Y15640D1*
G1X6789Y15640D1*
G1X6839Y15690D1*
G1X6839Y15785D1*
G1X6794Y15735D2*
G1X6794Y16140D1*
G1X6739Y16140D1*
G1X6739Y17440D1*
G1X6139Y17440D1*
G1X6139Y17540D1*
G1X6739Y17540D1*
G1X6789Y17540D1*
G1X6839Y17490D1*
G1X6739Y17540D2*
G1X6739Y17440D1*
G1X6139Y17440D2*
G1X6139Y16140D1*
G1X6039Y16140D1*
G1X6039Y15975D1*
G1X6204Y16140D1*
G1X6324Y16140D1*
G1X6324Y15820D1*
G1X6409Y15820D1*
G1X6409Y16140D1*
G1X6569Y16140D1*
G1X6369Y15940D1*
G1X6419Y15940D2*
G1X6619Y16140D1*
G1X6739Y16140D1*
G1X6794Y16140D2*
G1X6839Y16140D1*
G1X6619Y16140D2*
G1X6569Y16140D1*
G1X6409Y16140D2*
G1X6374Y16140D1*
G1X6374Y15820D1*
G1X6144Y15820D2*
G1X6039Y15820D1*
G1X6039Y15690D1*
G1X6089Y15640D1*
G1X6694Y15640D1*
G1X6374Y16140D2*
G1X6324Y16140D1*
G1X6204Y16140D2*
G1X6139Y16140D1*
G1X6039Y16140D2*
G1X6039Y17490D1*
G1X6089Y17540D1*
G1X6139Y17540D1*
G1X6039Y17640D2*
G1X6089Y17690D1*
G1X6089Y17740D1*
G1X5989Y17740D1*
G1X5989Y19040D1*
G1X5949Y19040D1*
G1X6049Y19140D1*
G1X6051Y19040D2*
G1X6051Y19528D1*
G1X6089Y19490D1*
G1X6089Y19450D1*
G1X5999Y19540D1*
G1X6039Y19540D1*
G1X6051Y19528D1*
G1X5999Y19540D2*
G1X5859Y19540D1*
G1X5649Y19330D1*
G1X5649Y19430D1*
G1X5759Y19540D1*
G1X5859Y19540D1*
G1X5759Y19540D2*
G1X5649Y19540D1*
G1X5649Y19430D1*
G1X5579Y19490D2*
G1X5529Y19540D1*
G1X5579Y19540D1*
G1X5579Y19490D1*
G1X5579Y19220D1*
G1X5649Y19220D1*
G1X5649Y19330D1*
G1X5649Y19540D2*
G1X5579Y19540D1*
G1X5529Y19540D2*
G1X5448Y19540D1*
G1X5289Y19381D1*
G1X5289Y19250D1*
G1X5389Y19250D1*
G1X5389Y19220D1*
G1X5289Y19220D1*
G1X5289Y19090D1*
G1X5389Y18990D1*
G1X5389Y17740D1*
G1X5289Y17740D1*
G1X5289Y17690D1*
G1X5339Y17640D1*
G1X6039Y17640D1*
G1X5989Y17740D2*
G1X5389Y17740D1*
G1X5289Y17740D2*
G1X5289Y19090D1*
G1X5389Y19040D2*
G1X5389Y18990D1*
G1X5389Y19040D2*
G1X5689Y19040D1*
G1X5689Y19110D1*
G1X5689Y19040D2*
G1X5949Y19040D1*
G1X5979Y19350D2*
G1X6089Y19350D1*
G1X6089Y17740D1*
G1X5339Y17490D2*
G1X5339Y16140D1*
G1X5339Y15995D1*
G1X5194Y16140D1*
G1X5239Y16140D1*
G1X5299Y16140D1*
G1X5299Y15650D1*
G1X5289Y15640D1*
G1X5249Y15640D1*
G1X5339Y15730D1*
G1X5339Y15690D1*
G1X5299Y15650D1*
G1X5249Y15640D2*
G1X4644Y15640D1*
G1X4539Y15745D1*
G1X4539Y15690D1*
G1X4589Y15640D1*
G1X4644Y15640D1*
G1X4539Y15745D2*
G1X4539Y16035D1*
G1X4644Y16140D1*
G1X4824Y16140D1*
G1X4919Y16045D1*
G1X5014Y16140D1*
G1X5194Y16140D1*
G1X5239Y16140D2*
G1X5239Y17440D1*
G1X4639Y17440D1*
G1X4639Y17540D1*
G1X5239Y17540D1*
G1X5289Y17540D1*
G1X5339Y17490D1*
G1X5239Y17540D2*
G1X5239Y17440D1*
G1X4639Y17440D2*
G1X4639Y16140D1*
G1X4539Y16140D1*
G1X4539Y16035D1*
G1X4539Y16140D2*
G1X4539Y17490D1*
G1X4589Y17540D1*
G1X4639Y17540D1*
G1X4639Y16140D2*
G1X4644Y16140D1*
G1X4824Y16140D2*
G1X4919Y16140D1*
G1X4919Y16045D1*
G1X4919Y16140D2*
G1X5014Y16140D1*
G1X4934Y15935D2*
G1X4934Y15795D1*
G1X5299Y16140D2*
G1X5339Y16140D1*
G1X5339Y15995D2*
G1X5339Y15730D1*
G1X6039Y15820D2*
G1X6039Y15855D1*
G1X6144Y15855D1*
G1X6039Y15855D2*
G1X6039Y15975D1*
G1X7489Y19040D2*
G1X7489Y19540D1*
G1X7439Y19540D2*
G1X7389Y19540D1*
G1X6989Y19540D2*
G1X6939Y19540D1*
G1X6889Y19540D2*
G1X6839Y19540D1*
G1X6789Y19490D1*
G1X6089Y19450D2*
G1X6089Y19350D1*
G1X5448Y19540D2*
G1X5439Y19540D1*
G1X5289Y19390D1*
G1X5289Y19381D1*
G1X5289Y19390D2*
G1X5289Y19490D1*
G1X5339Y19540D1*
G1X5439Y19540D1*
G1X5289Y19250D2*
G1X5289Y19220D1*
G1X4789Y20840D2*
G1X12589Y20840D1*
G1X12628Y20842D1*
G1X12667Y20848D1*
G1X12705Y20857D1*
G1X12742Y20870D1*
G1X12778Y20887D1*
G1X12811Y20907D1*
G1X12843Y20931D1*
G1X12872Y20957D1*
G1X12898Y20986D1*
G1X12922Y21018D1*
G1X12942Y21051D1*
G1X12959Y21087D1*
G1X12972Y21124D1*
G1X12981Y21162D1*
G1X12987Y21201D1*
G1X12989Y21240D1*
G1X12987Y21279D1*
G1X12981Y21318D1*
G1X12972Y21356D1*
G1X12959Y21393D1*
G1X12942Y21429D1*
G1X12922Y21462D1*
G1X12898Y21494D1*
G1X12872Y21523D1*
G1X12843Y21549D1*
G1X12811Y21573D1*
G1X12778Y21593D1*
G1X12742Y21610D1*
G1X12705Y21623D1*
G1X12667Y21632D1*
G1X12628Y21638D1*
G1X12589Y21640D1*
G1X4789Y21640D1*
G1X4750Y21638D1*
G1X4711Y21632D1*
G1X4673Y21623D1*
G1X4636Y21610D1*
G1X4600Y21593D1*
G1X4567Y21573D1*
G1X4535Y21549D1*
G1X4506Y21523D1*
G1X4480Y21494D1*
G1X4456Y21462D1*
G1X4436Y21429D1*
G1X4419Y21393D1*
G1X4406Y21356D1*
G1X4397Y21318D1*
G1X4391Y21279D1*
G1X4389Y21240D1*
G1X4391Y21201D1*
G1X4397Y21162D1*
G1X4406Y21124D1*
G1X4419Y21087D1*
G1X4436Y21051D1*
G1X4456Y21018D1*
G1X4480Y20986D1*
G1X4506Y20957D1*
G1X4535Y20931D1*
G1X4567Y20907D1*
G1X4600Y20887D1*
G1X4636Y20870D1*
G1X4673Y20857D1*
G1X4711Y20848D1*
G1X4750Y20842D1*
G1X4789Y20840D1*
G1X8389Y19540D2*
G1X8439Y19540D1*
G1X8439Y19040D1*
G1X8489Y19040D1*
G1X8489Y19200D1*
G1X8649Y19200D1*
G1X8649Y19040D1*
G1X8829Y19040D1*
G1X8829Y19200D1*
G1X8829Y19040D2*
G1X8939Y19040D1*
G1X8889Y19040D2*
G1X8889Y19540D1*
G1X8939Y19540D1*
G1X8889Y19540D2*
G1X8829Y19540D1*
G1X8829Y19380D1*
G1X8829Y19540D2*
G1X8699Y19540D1*
G1X8499Y19340D1*
G1X8489Y19390D2*
G1X8639Y19540D1*
G1X8699Y19540D1*
G1X8639Y19540D2*
G1X8489Y19540D1*
G1X8489Y19390D1*
G1X8489Y19200D1*
G1X8539Y19200D2*
G1X8539Y19040D1*
G1X8589Y19040D1*
G1X8589Y19200D1*
G1X8639Y19200D2*
G1X8639Y19040D1*
G1X8649Y19040D1*
G1X8639Y19040D2*
G1X8589Y19040D1*
G1X8539Y19040D2*
G1X8489Y19040D1*
G1X8439Y19040D2*
G1X8389Y19040D1*
G1X8439Y19540D2*
G1X8489Y19540D1*
G1X8989Y19540D2*
G1X8989Y19040D1*
G1X9789Y19490D2*
G1X9789Y17740D1*
G1X9789Y17690D1*
G1X9839Y17640D1*
G1X10539Y17640D1*
G1X10589Y17690D1*
G1X10589Y17740D1*
G1X10489Y17740D1*
G1X10489Y19040D1*
G1X9989Y19040D1*
G1X9989Y19540D1*
G1X10389Y19540D1*
G1X10389Y19040D1*
G1X10489Y19040D2*
G1X10489Y19540D1*
G1X10539Y19540D1*
G1X10589Y19490D1*
G1X10589Y17740D1*
G1X10489Y17740D2*
G1X9889Y17740D1*
G1X9789Y17740D1*
G1X9889Y17740D2*
G1X9889Y19040D1*
G1X9889Y19540D1*
G1X9989Y19540D1*
G1X9889Y19540D2*
G1X9839Y19540D1*
G1X9789Y19490D1*
G1X9889Y19040D2*
G1X9989Y19040D1*
G1X10389Y19540D2*
G1X10489Y19540D1*
G1X11289Y19490D2*
G1X11289Y17740D1*
G1X11289Y17690D1*
G1X11339Y17640D1*
G1X12039Y17640D1*
G1X12089Y17690D1*
G1X12089Y17740D1*
G1X11989Y17740D1*
G1X11989Y19040D1*
G1X11889Y19040D1*
G1X11489Y19040D1*
G1X11489Y19195D1*
G1X11489Y19235D1*
G1X11489Y19275D1*
G1X11489Y19350D1*
G1X11489Y19400D1*
G1X11489Y19540D1*
G1X11629Y19540D1*
G1X11679Y19540D1*
G1X11754Y19540D1*
G1X11889Y19540D1*
G1X11889Y19195D1*
G1X11889Y19040D1*
G1X11989Y19040D2*
G1X11989Y19540D1*
G1X12039Y19540D1*
G1X12089Y19490D1*
G1X12089Y17740D1*
G1X11989Y17740D2*
G1X11389Y17740D1*
G1X11289Y17740D1*
G1X11389Y17740D2*
G1X11389Y19040D1*
G1X11489Y19040D1*
G1X11389Y19040D2*
G1X11389Y19540D1*
G1X11339Y19540D1*
G1X11289Y19490D1*
G1X11389Y19540D2*
G1X11489Y19540D1*
G1X11809Y19515D2*
G1X11809Y19220D1*
G1X11889Y19540D2*
G1X11989Y19540D1*
G1X11239Y17540D2*
G1X11239Y17440D1*
G1X9739Y17440D2*
G1X9739Y17540D1*
G1X12739Y17540D2*
G1X12739Y17440D1*
G1X12749Y11881D2*
G54D24*
G1X12989Y11881D1*
G1X13069Y11801D1*
G1X13069Y11480D1*
G1X12989Y11400D1*
G1X12749Y11400D1*
G1X12749Y11881D1*
G1X13301Y11721D2*
G1X13301Y11400D1*
G1X13301Y11641D2*
G1X13622Y11641D1*
G1X13622Y11721D2*
G1X13622Y11400D1*
G1X13622Y11721D2*
G1X13462Y11881D1*
G1X13301Y11721D1*
G1X13854Y11881D2*
G1X14174Y11881D1*
G1X14014Y11881D2*
G1X14014Y11400D1*
G1X14406Y11400D2*
G1X14406Y11881D1*
G1X14727Y11881D1*
G1X14566Y11641D2*
G1X14406Y11641D1*
G1X14406Y11400D2*
G1X14727Y11400D1*
G1X4442Y11400D2*
G1X4122Y11400D1*
G1X4122Y11881D1*
G1X4442Y11881D1*
G1X4282Y11641D2*
G1X4122Y11641D1*
G1X3890Y11881D2*
G1X3890Y11400D1*
G1X3730Y11721D2*
G1X3890Y11881D1*
G1X3730Y11721D2*
G1X3570Y11881D1*
G1X3570Y11400D1*
G1X3362Y11400D2*
G1X3201Y11400D1*
G1X3282Y11400D2*
G1X3282Y11881D1*
G1X3362Y11881D2*
G1X3201Y11881D1*
G1X2969Y11881D2*
G1X2649Y11881D1*
G1X2809Y11881D2*
G1X2809Y11400D1*
G1X4454Y14755D2*
G54D25*
G1X4454Y15286D1*
G1X4631Y15109D1*
G1X4808Y15286D1*
G1X4808Y14755D1*
G1X5062Y14755D2*
G1X5239Y14755D1*
G1X5150Y14755D2*
G1X5150Y15109D1*
G1X5062Y15109D1*
G1X5150Y15286D2*
G1X5150Y15374D1*
G1X5467Y15109D2*
G1X5732Y15109D1*
G1X5821Y15021D1*
G1X5821Y14755D1*
G1X6075Y14844D2*
G1X6163Y14755D1*
G1X6428Y14755D1*
G1X6428Y15109D1*
G1X6682Y15109D2*
G1X6859Y15109D1*
G1X6771Y15197D2*
G1X6771Y14844D1*
G1X6859Y14755D1*
G1X7087Y14844D2*
G1X7087Y15021D1*
G1X7176Y15109D1*
G1X7353Y15109D1*
G1X7441Y15021D1*
G1X7441Y14932D1*
G1X7087Y14932D1*
G1X7087Y14844D2*
G1X7176Y14755D1*
G1X7353Y14755D1*
G1X7695Y14755D2*
G1X7960Y14755D1*
G1X8049Y14844D1*
G1X7960Y14932D1*
G1X7784Y14932D1*
G1X7695Y15021D1*
G1X7784Y15109D1*
G1X8049Y15109D1*
G1X6075Y15109D2*
G1X6075Y14844D1*
G1X5467Y14755D2*
G1X5467Y15109D1*
G1X5308Y19855D2*
G1X5308Y20386D1*
G1X5308Y20121D2*
G1X4954Y20121D1*
G1X4954Y20386D2*
G1X4954Y19855D1*
G1X5562Y19944D2*
G1X5650Y19855D1*
G1X5827Y19855D1*
G1X5915Y19944D1*
G1X5915Y20121D1*
G1X5827Y20209D1*
G1X5650Y20209D1*
G1X5562Y20121D1*
G1X5562Y19944D1*
G1X6169Y19944D2*
G1X6258Y19855D1*
G1X6523Y19855D1*
G1X6523Y20209D1*
G1X6777Y20209D2*
G1X6777Y19855D1*
G1X6777Y20032D2*
G1X6954Y20209D1*
G1X7042Y20209D1*
G1X7284Y20121D2*
G1X7372Y20209D1*
G1X7637Y20209D1*
G1X7549Y20032D2*
G1X7372Y20032D1*
G1X7284Y20121D1*
G1X7284Y19855D2*
G1X7549Y19855D1*
G1X7637Y19944D1*
G1X7549Y20032D1*
G1X6169Y19944D2*
G1X6169Y20209D1*
G1X9854Y20386D2*
G1X9854Y19855D1*
G1X10031Y20209D2*
G1X10208Y20386D1*
G1X10208Y19855D1*
G1X10031Y20209D2*
G1X9854Y20386D1*
G1X10462Y20121D2*
G1X10462Y19944D1*
G1X10550Y19855D1*
G1X10727Y19855D1*
G1X10815Y19944D1*
G1X10815Y20121D1*
G1X10727Y20209D1*
G1X10550Y20209D1*
G1X10462Y20121D1*
G1X11069Y20209D2*
G1X11069Y19855D1*
G1X11069Y20209D2*
G1X11335Y20209D1*
G1X11423Y20121D1*
G1X11423Y19855D1*
G1X11677Y20209D2*
G1X11854Y20209D1*
G1X11766Y20297D2*
G1X11766Y19944D1*
G1X11854Y19855D1*
G1X12082Y19855D2*
G1X12082Y20386D1*
G1X12171Y20209D2*
G1X12348Y20209D1*
G1X12436Y20121D1*
G1X12436Y19855D1*
G1X12082Y20121D2*
G1X12171Y20209D1*
G1X12690Y20121D2*
G1X12778Y20209D1*
G1X13044Y20209D1*
G1X12955Y20032D2*
G1X13044Y19944D1*
G1X12955Y19855D1*
G1X12690Y19855D1*
G1X12778Y20032D2*
G1X12690Y20121D1*
G1X12778Y20032D2*
G1X12955Y20032D1*
G1X12340Y15109D2*
G1X12163Y15109D1*
G1X12075Y15021D1*
G1X12075Y14844D1*
G1X12163Y14755D1*
G1X12340Y14755D1*
G1X12428Y14932D2*
G1X12075Y14932D1*
G1X12340Y15109D2*
G1X12428Y15021D1*
G1X12428Y14932D1*
G1X11846Y14755D2*
G1X11758Y14844D1*
G1X11758Y15197D1*
G1X11846Y15109D2*
G1X11669Y15109D1*
G1X11415Y15021D2*
G1X11415Y14755D1*
G1X11150Y14755D1*
G1X11062Y14844D1*
G1X11150Y14932D1*
G1X11415Y14932D1*
G1X11415Y15021D2*
G1X11327Y15109D1*
G1X11150Y15109D1*
G1X10808Y15197D2*
G1X10808Y14844D1*
G1X10719Y14755D1*
G1X10454Y14755D1*
G1X10454Y15286D1*
G1X10719Y15286D1*
G1X10808Y15197D1*
G1X10789Y16690D2*
G54D26*
G1X10939Y16890D1*
G1X11089Y16690D1*
G1X10789Y16690D1*
G1X10789Y16890D2*
G1X10939Y16890D1*
G1X11089Y16890D1*
G1X11539Y18290D2*
G1X11689Y18490D1*
G1X11839Y18290D1*
G1X11539Y18290D1*
G1X11539Y18490D2*
G1X11689Y18490D1*
G1X11839Y18490D1*
G1X12289Y16890D2*
G1X12439Y16890D1*
G1X12289Y16690D1*
G1X12589Y16690D1*
G1X12439Y16890D1*
G1X12589Y16890D1*
G1X10897Y13645D2*
G1X6881Y13645D1*
G1X6881Y11892D1*
G1X7038Y11736D1*
G1X10897Y11736D1*
G1X10897Y13645D1*
G1X9589Y16690D2*
G1X9289Y16690D1*
G1X9439Y16890D1*
G1X9589Y16690D1*
G1X9589Y16890D2*
G1X9439Y16890D1*
G1X9289Y16890D1*
G1X8839Y18290D2*
G1X8539Y18290D1*
G1X8689Y18490D1*
G1X8839Y18290D1*
G1X8839Y18490D2*
G1X8689Y18490D1*
G1X8539Y18490D1*
G1X8089Y16890D2*
G1X7939Y16890D1*
G1X7789Y16690D1*
G1X8089Y16690D1*
G1X7939Y16890D1*
G1X7789Y16890D1*
G1X7339Y18290D2*
G1X7039Y18290D1*
G1X7189Y18490D1*
G1X7339Y18290D1*
G1X7339Y18490D2*
G1X7189Y18490D1*
G1X7039Y18490D1*
G1X6589Y16890D2*
G1X6439Y16890D1*
G1X6289Y16690D1*
G1X6589Y16690D1*
G1X6439Y16890D1*
G1X6289Y16890D1*
G1X5839Y18290D2*
G1X5539Y18290D1*
G1X5689Y18490D1*
G1X5839Y18290D1*
G1X5839Y18490D2*
G1X5689Y18490D1*
G1X5539Y18490D1*
G1X5089Y16890D2*
G1X4939Y16890D1*
G1X4789Y16690D1*
G1X5089Y16690D1*
G1X4939Y16890D1*
G1X4789Y16890D1*
G1X7055Y12149D2*
G1X7057Y12176D1*
G1X7063Y12202D1*
G1X7073Y12228D1*
G1X7086Y12251D1*
G1X7103Y12272D1*
G1X7123Y12291D1*
G1X7146Y12306D1*
G1X7170Y12317D1*
G1X7196Y12325D1*
G1X7222Y12329D1*
G1X7250Y12329D1*
G1X7276Y12325D1*
G1X7302Y12317D1*
G1X7327Y12306D1*
G1X7349Y12291D1*
G1X7369Y12272D1*
G1X7386Y12251D1*
G1X7399Y12228D1*
G1X7409Y12202D1*
G1X7415Y12176D1*
G1X7417Y12149D1*
G1X7415Y12122D1*
G1X7409Y12096D1*
G1X7399Y12070D1*
G1X7386Y12047D1*
G1X7369Y12026D1*
G1X7349Y12007D1*
G1X7326Y11992D1*
G1X7302Y11981D1*
G1X7276Y11973D1*
G1X7250Y11969D1*
G1X7222Y11969D1*
G1X7196Y11973D1*
G1X7170Y11981D1*
G1X7145Y11992D1*
G1X7123Y12007D1*
G1X7103Y12026D1*
G1X7086Y12047D1*
G1X7073Y12070D1*
G1X7063Y12096D1*
G1X7057Y12122D1*
G1X7055Y12149D1*
G1X10039Y18290D2*
G1X10189Y18490D1*
G1X10339Y18290D1*
G1X10039Y18290D1*
G1X10039Y18490D2*
G1X10189Y18490D1*
G1X10339Y18490D1*
G1X10314Y19085D2*
G54D27*
G1X10339Y19085D1*
G1X10339Y19090D2*
G1X10319Y19090D1*
G1X10314Y19085D1*
G1X10339Y19110D1*
G1X10334Y19105D1*
G1X10334Y19095D1*
G1X10339Y19090D2*
G1X10339Y19110D1*
G1X10339Y19150D1*
G1X10339Y19170D1*
G1X10329Y19170D1*
G1X10334Y19165D1*
G1X10339Y19175D2*
G1X10339Y19315D1*
G1X10204Y19180D1*
G1X10334Y19180D1*
G1X10334Y19300D1*
G1X10219Y19185D1*
G1X10329Y19185D1*
G1X10329Y19285D1*
G1X10234Y19190D1*
G1X10324Y19190D1*
G1X10324Y19270D1*
G1X10249Y19195D1*
G1X10319Y19195D1*
G1X10319Y19255D1*
G1X10264Y19200D1*
G1X10314Y19200D1*
G1X10314Y19240D1*
G1X10279Y19205D1*
G1X10309Y19205D1*
G1X10309Y19225D1*
G1X10294Y19210D1*
G1X10304Y19210D1*
G1X10314Y19175D2*
G1X10339Y19150D1*
G1X10339Y19175D2*
G1X10314Y19175D1*
G1X10189Y19175D1*
G1X10339Y19325D1*
G1X10339Y19415D1*
G1X10339Y19490D1*
G1X10274Y19490D1*
G1X10334Y19430D1*
G1X10334Y19485D1*
G1X10284Y19485D1*
G1X10329Y19440D1*
G1X10329Y19480D1*
G1X10294Y19480D1*
G1X10324Y19450D1*
G1X10324Y19475D1*
G1X10309Y19475D1*
G1X10319Y19465D1*
G1X10274Y19490D2*
G1X10269Y19490D1*
G1X10259Y19495D2*
G1X10339Y19415D1*
G1X10339Y19320D2*
G1X10339Y19315D1*
G1X10244Y19360D2*
G1X10244Y19380D1*
G1X10219Y19405D1*
G1X10149Y19405D1*
G1X10094Y19350D1*
G1X10059Y19350D1*
G1X10039Y19350D1*
G1X10039Y19360D1*
G1X10044Y19355D1*
G1X10039Y19350D2*
G1X10034Y19350D1*
G1X10034Y19375D1*
G1X10059Y19350D1*
G1X10044Y19345D2*
G1X10044Y19180D1*
G1X10234Y19370D1*
G1X10234Y19380D1*
G1X10219Y19395D1*
G1X10149Y19395D1*
G1X10089Y19335D1*
G1X10049Y19335D1*
G1X10049Y19195D1*
G1X10229Y19375D1*
G1X10229Y19380D1*
G1X10219Y19390D1*
G1X10154Y19390D1*
G1X10094Y19330D1*
G1X10054Y19330D1*
G1X10054Y19205D1*
G1X10219Y19370D1*
G1X10219Y19385D1*
G1X10159Y19385D1*
G1X10094Y19320D1*
G1X10059Y19320D1*
G1X10059Y19220D1*
G1X10214Y19375D1*
G1X10214Y19380D1*
G1X10164Y19380D1*
G1X10099Y19315D1*
G1X10064Y19315D1*
G1X10064Y19235D1*
G1X10204Y19375D1*
G1X10164Y19375D1*
G1X10099Y19310D1*
G1X10069Y19310D1*
G1X10069Y19250D1*
G1X10189Y19370D1*
G1X10164Y19370D1*
G1X10099Y19305D1*
G1X10074Y19305D1*
G1X10074Y19265D1*
G1X10174Y19365D1*
G1X10164Y19365D1*
G1X10079Y19280D1*
G1X10079Y19300D1*
G1X10089Y19300D1*
G1X10084Y19295D1*
G1X10094Y19345D2*
G1X10044Y19345D1*
G1X10039Y19345D2*
G1X10039Y19165D1*
G1X10239Y19365D1*
G1X10239Y19380D1*
G1X10219Y19400D1*
G1X10149Y19400D1*
G1X10094Y19345D1*
G1X10034Y19415D2*
G1X10034Y19425D1*
G1X10099Y19490D1*
G1X10039Y19490D1*
G1X10039Y19440D1*
G1X10084Y19485D1*
G1X10044Y19485D1*
G1X10044Y19455D1*
G1X10069Y19480D1*
G1X10049Y19480D1*
G1X10049Y19470D1*
G1X10054Y19475D1*
G1X10114Y19495D2*
G1X10034Y19415D1*
G1X10244Y19360D2*
G1X10034Y19150D1*
G1X10034Y19110D2*
G1X10059Y19085D1*
G1X10039Y19085D1*
G1X10039Y19095D1*
G1X10044Y19090D1*
G1X8839Y19250D2*
G1X8839Y19270D1*
G1X8814Y19245D1*
G1X8834Y19245D1*
G1X8834Y19255D1*
G1X8829Y19250D1*
G1X8809Y19245D2*
G1X8784Y19245D1*
G1X8784Y19220D1*
G1X8804Y19240D1*
G1X8789Y19240D1*
G1X8789Y19235D1*
G1X8839Y19270D2*
G1X8839Y19310D1*
G1X8839Y19330D1*
G1X8824Y19330D1*
G1X8834Y19320D1*
G1X8839Y19310D2*
G1X8814Y19335D1*
G1X8809Y19335D2*
G1X8789Y19355D1*
G1X8789Y19340D1*
G1X8794Y19340D1*
G1X8784Y19335D2*
G1X8809Y19335D1*
G1X8784Y19335D2*
G1X8784Y19360D1*
G1X8699Y19350D2*
G1X8699Y19330D1*
G1X8694Y19335D1*
G1X8699Y19330D2*
G1X8679Y19330D1*
G1X8699Y19350D1*
G1X8694Y19245D2*
G1X8669Y19245D1*
G1X8689Y19225D1*
G1X8689Y19240D1*
G1X8679Y19240D1*
G1X8694Y19245D2*
G1X8694Y19215D1*
G1X8694Y19110D2*
G1X8694Y19090D1*
G1X8704Y19090D1*
G1X8699Y19095D1*
G1X8694Y19110D2*
G1X8719Y19085D1*
G1X8759Y19085D2*
G1X8779Y19085D1*
G1X8779Y19095D1*
G1X8774Y19090D1*
G1X8759Y19085D2*
G1X8784Y19110D1*
G1X8784Y19470D2*
G1X8759Y19495D1*
G1X8769Y19490D2*
G1X8779Y19480D1*
G1X8784Y19470D2*
G1X8784Y19490D1*
G1X8769Y19490D1*
G1X8534Y19270D2*
G1X8559Y19245D1*
G1X8539Y19245D1*
G1X8539Y19255D1*
G1X8544Y19250D1*
G1X7339Y19255D2*
G1X7339Y19315D1*
G1X7314Y19290D1*
G1X7334Y19270D1*
G1X7334Y19300D1*
G1X7324Y19290D1*
G1X7329Y19285D1*
G1X7304Y19290D2*
G1X7339Y19255D1*
G1X7339Y19165D1*
G1X7259Y19085D1*
G1X7334Y19085D1*
G1X7334Y19150D1*
G1X7274Y19090D1*
G1X7329Y19090D1*
G1X7329Y19135D1*
G1X7289Y19095D1*
G1X7324Y19095D1*
G1X7324Y19120D1*
G1X7304Y19100D1*
G1X7319Y19100D1*
G1X7319Y19110D1*
G1X7339Y19090D2*
G1X7339Y19165D1*
G1X7249Y19200D2*
G1X7224Y19175D1*
G1X7149Y19175D1*
G1X7124Y19200D1*
G1X7124Y19220D1*
G1X7149Y19245D1*
G1X7224Y19245D1*
G1X7249Y19220D1*
G1X7249Y19200D1*
G1X7244Y19200D2*
G1X7244Y19205D1*
G1X7219Y19180D1*
G1X7224Y19180D1*
G1X7219Y19180D2*
G1X7154Y19180D1*
G1X7129Y19205D1*
G1X7129Y19200D1*
G1X7129Y19205D2*
G1X7129Y19215D1*
G1X7149Y19235D1*
G1X7159Y19235D1*
G1X7134Y19210D1*
G1X7159Y19185D1*
G1X7169Y19185D1*
G1X7159Y19195D1*
G1X7169Y19195D1*
G1X7159Y19205D1*
G1X7174Y19220D1*
G1X7169Y19220D2*
G1X7204Y19220D1*
G1X7204Y19215D2*
G1X7169Y19215D1*
G1X7169Y19205D2*
G1X7204Y19205D1*
G1X7214Y19215D1*
G1X7219Y19210D1*
G1X7204Y19195D1*
G1X7214Y19195D1*
G1X7229Y19210D1*
G1X7214Y19225D1*
G1X7204Y19225D1*
G1X7214Y19215D1*
G1X7214Y19225D2*
G1X7204Y19235D1*
G1X7214Y19235D1*
G1X7239Y19210D1*
G1X7214Y19185D1*
G1X7219Y19185D1*
G1X7214Y19185D2*
G1X7204Y19185D1*
G1X7214Y19195D1*
G1X7214Y19190D2*
G1X7159Y19190D1*
G1X7159Y19185D2*
G1X7154Y19185D1*
G1X7154Y19180D2*
G1X7149Y19180D1*
G1X7159Y19195D2*
G1X7144Y19210D1*
G1X7159Y19225D1*
G1X7169Y19225D1*
G1X7154Y19210D1*
G1X7159Y19205D1*
G1X7169Y19200D2*
G1X7199Y19200D1*
G1X7204Y19205D1*
G1X7204Y19200D2*
G1X7199Y19200D1*
G1X7204Y19195D2*
G1X7169Y19195D1*
G1X7169Y19185D2*
G1X7204Y19185D1*
G1X7204Y19225D2*
G1X7169Y19225D1*
G1X7159Y19225D2*
G1X7169Y19235D1*
G1X7204Y19235D1*
G1X7214Y19235D2*
G1X7219Y19235D1*
G1X7219Y19240D2*
G1X7244Y19215D1*
G1X7244Y19205D1*
G1X7239Y19205D2*
G1X7239Y19210D1*
G1X7239Y19215D1*
G1X7244Y19215D2*
G1X7244Y19220D1*
G1X7224Y19240D2*
G1X7219Y19240D1*
G1X7149Y19240D1*
G1X7149Y19235D2*
G1X7154Y19240D1*
G1X7159Y19235D2*
G1X7169Y19235D1*
G1X7159Y19230D2*
G1X7214Y19230D1*
G1X7134Y19215D2*
G1X7134Y19210D1*
G1X7134Y19205D1*
G1X7129Y19215D2*
G1X7129Y19220D1*
G1X7069Y19290D2*
G1X7034Y19255D1*
G1X7034Y19315D1*
G1X7059Y19290D1*
G1X7039Y19270D1*
G1X7039Y19300D1*
G1X7049Y19290D1*
G1X7044Y19285D1*
G1X7044Y19290D1*
G1X7069Y19290D2*
G1X7029Y19330D1*
G1X7034Y19415D2*
G1X7034Y19490D1*
G1X7099Y19490D1*
G1X7039Y19430D1*
G1X7039Y19485D1*
G1X7084Y19485D1*
G1X7044Y19445D1*
G1X7044Y19480D1*
G1X7069Y19480D1*
G1X7049Y19460D1*
G1X7049Y19475D1*
G1X7054Y19475D1*
G1X7114Y19495D2*
G1X7034Y19415D1*
G1X7124Y19380D2*
G1X7149Y19405D1*
G1X7224Y19405D1*
G1X7249Y19380D1*
G1X7249Y19360D1*
G1X7224Y19335D1*
G1X7149Y19335D1*
G1X7124Y19360D1*
G1X7124Y19380D1*
G1X7129Y19380D2*
G1X7129Y19375D1*
G1X7149Y19395D1*
G1X7159Y19395D1*
G1X7134Y19370D1*
G1X7159Y19345D1*
G1X7169Y19345D1*
G1X7159Y19355D1*
G1X7169Y19355D1*
G1X7159Y19365D1*
G1X7174Y19380D1*
G1X7169Y19380D2*
G1X7204Y19380D1*
G1X7204Y19375D2*
G1X7169Y19375D1*
G1X7169Y19365D2*
G1X7204Y19365D1*
G1X7214Y19375D1*
G1X7219Y19370D1*
G1X7204Y19355D1*
G1X7214Y19355D1*
G1X7229Y19370D1*
G1X7214Y19385D1*
G1X7204Y19385D1*
G1X7214Y19375D1*
G1X7214Y19385D2*
G1X7204Y19395D1*
G1X7214Y19395D1*
G1X7239Y19370D1*
G1X7214Y19345D1*
G1X7219Y19345D1*
G1X7219Y19340D2*
G1X7244Y19365D1*
G1X7244Y19360D1*
G1X7244Y19365D2*
G1X7244Y19375D1*
G1X7219Y19400D1*
G1X7224Y19400D1*
G1X7219Y19400D2*
G1X7149Y19400D1*
G1X7149Y19395D2*
G1X7154Y19400D1*
G1X7159Y19395D2*
G1X7169Y19395D1*
G1X7159Y19385D1*
G1X7169Y19385D1*
G1X7154Y19370D1*
G1X7159Y19365D1*
G1X7159Y19355D2*
G1X7144Y19370D1*
G1X7159Y19385D1*
G1X7159Y19390D2*
G1X7214Y19390D1*
G1X7214Y19395D2*
G1X7219Y19395D1*
G1X7204Y19395D2*
G1X7169Y19395D1*
G1X7169Y19385D2*
G1X7204Y19385D1*
G1X7204Y19365D2*
G1X7199Y19360D1*
G1X7204Y19360D1*
G1X7204Y19355D2*
G1X7169Y19355D1*
G1X7169Y19360D2*
G1X7199Y19360D1*
G1X7204Y19345D2*
G1X7214Y19355D1*
G1X7214Y19350D2*
G1X7159Y19350D1*
G1X7159Y19345D2*
G1X7154Y19345D1*
G1X7154Y19340D2*
G1X7129Y19365D1*
G1X7129Y19360D1*
G1X7129Y19365D2*
G1X7129Y19375D1*
G1X7134Y19375D2*
G1X7134Y19370D1*
G1X7134Y19365D1*
G1X7149Y19340D2*
G1X7154Y19340D1*
G1X7219Y19340D1*
G1X7224Y19340D1*
G1X7214Y19345D2*
G1X7204Y19345D1*
G1X7169Y19345D1*
G1X7239Y19365D2*
G1X7239Y19370D1*
G1X7239Y19375D1*
G1X7244Y19375D2*
G1X7244Y19380D1*
G1X7339Y19415D2*
G1X7259Y19495D1*
G1X7274Y19490D2*
G1X7334Y19490D1*
G1X7334Y19440D1*
G1X7289Y19485D1*
G1X7329Y19485D1*
G1X7329Y19455D1*
G1X7304Y19480D1*
G1X7324Y19480D1*
G1X7324Y19470D1*
G1X7319Y19475D1*
G1X7339Y19490D2*
G1X7339Y19425D1*
G1X7274Y19490D1*
G1X7339Y19425D2*
G1X7339Y19415D1*
G1X7339Y19325D1*
G1X7304Y19290D1*
G1X7339Y19315D2*
G1X7339Y19325D1*
G1X7114Y19085D2*
G1X7034Y19085D1*
G1X7034Y19155D1*
G1X7099Y19090D1*
G1X7039Y19090D1*
G1X7039Y19140D1*
G1X7084Y19095D1*
G1X7044Y19095D1*
G1X7044Y19125D1*
G1X7069Y19100D1*
G1X7049Y19100D1*
G1X7049Y19110D1*
G1X7054Y19105D1*
G1X7034Y19165D2*
G1X7114Y19085D1*
G1X6011Y19170D2*
G1X5921Y19080D1*
G1X5889Y19175D2*
G1X5819Y19175D1*
G1X5790Y19204D1*
G1X5790Y19245D1*
G1X5799Y19240D1*
G1X5799Y19200D1*
G1X5819Y19180D1*
G1X5889Y19180D1*
G1X5909Y19200D1*
G1X5909Y19220D1*
G1X5889Y19240D1*
G1X5804Y19240D1*
G1X5804Y19205D1*
G1X5824Y19185D1*
G1X5889Y19185D1*
G1X5904Y19200D1*
G1X5904Y19220D1*
G1X5889Y19235D1*
G1X5809Y19235D1*
G1X5809Y19210D1*
G1X5829Y19190D1*
G1X5884Y19190D1*
G1X5899Y19205D1*
G1X5899Y19220D1*
G1X5889Y19230D1*
G1X5814Y19230D1*
G1X5814Y19215D1*
G1X5834Y19195D1*
G1X5884Y19195D1*
G1X5894Y19205D1*
G1X5894Y19220D1*
G1X5889Y19225D1*
G1X5819Y19225D1*
G1X5819Y19215D1*
G1X5834Y19200D1*
G1X5879Y19200D1*
G1X5889Y19210D1*
G1X5889Y19215D1*
G1X5834Y19215D1*
G1X5834Y19210D1*
G1X5884Y19210D1*
G1X5889Y19215D1*
G1X5889Y19220D1*
G1X5824Y19220D1*
G1X5834Y19210D1*
G1X5839Y19205D1*
G1X5879Y19205D1*
G1X5884Y19210D1*
G1X5916Y19202D2*
G1X5916Y19218D1*
G1X5889Y19245D1*
G1X5790Y19245D1*
G1X5697Y19196D2*
G1X5676Y19175D1*
G1X5692Y19175D1*
G1X5692Y19183D1*
G1X5697Y19170D2*
G1X5782Y19085D1*
G1X5740Y19085D1*
G1X5740Y19119D1*
G1X5770Y19089D1*
G1X5748Y19089D1*
G1X5748Y19107D1*
G1X5761Y19094D1*
G1X5749Y19094D1*
G1X5702Y19165D2*
G1X5623Y19165D1*
G1X5619Y19170D1*
G1X5697Y19170D1*
G1X5697Y19196D1*
G1X5702Y19165D2*
G1X5702Y19309D1*
G1X5698Y19304D2*
G1X5827Y19433D1*
G1X5819Y19430D2*
G1X5879Y19490D1*
G1X5929Y19490D1*
G1X5849Y19450D1*
G1X5882Y19483D1*
G1X5906Y19483D1*
G1X5873Y19466D1*
G1X5885Y19479D1*
G1X5959Y19500D2*
G1X5819Y19430D1*
G1X5881Y19360D2*
G1X5856Y19335D1*
G1X5929Y19335D1*
G1X5929Y19371D1*
G1X5944Y19385D1*
G1X5884Y19354D1*
G1X5870Y19340D1*
G1X5924Y19340D1*
G1X5924Y19368D1*
G1X5888Y19351D1*
G1X5884Y19345D1*
G1X5918Y19345D1*
G1X5918Y19359D1*
G1X5899Y19350D1*
G1X5914Y19350D1*
G1X5923Y19338D2*
G1X5985Y19276D1*
G1X6004Y19257D1*
G1X6004Y19300D1*
G1X5970Y19300D1*
G1X5999Y19271D1*
G1X5999Y19295D1*
G1X5982Y19295D1*
G1X5994Y19283D1*
G1X5994Y19292D1*
G1X5966Y19391D2*
G1X5975Y19400D1*
G1X6000Y19400D1*
G1X6000Y19418D1*
G1X5986Y19404D1*
G1X5997Y19404D1*
G1X5986Y19413D2*
G1X5881Y19360D1*
G1X5966Y19392D2*
G1X5966Y19391D1*
G1X5966Y19392D2*
G1X6006Y19432D1*
G1X5916Y19202D2*
G1X5889Y19175D1*
G1X5666Y19161D2*
G1X5636Y19161D1*
G1X5647Y19150D1*
G1X5653Y19156D1*
G1X5646Y19156D1*
G1X5638Y19154D2*
G1X5638Y19111D1*
G1X5611Y19084D1*
G1X5633Y19084D1*
G1X5633Y19105D1*
G1X5626Y19098D1*
G1X5626Y19090D1*
G1X5638Y19087D2*
G1X5644Y19093D1*
G1X5644Y19145D1*
G1X5646Y19141D2*
G1X5666Y19161D1*
G1X5646Y19141D2*
G1X5637Y19150D1*
G1X5609Y19178D1*
G1X5609Y19180D1*
G1X5619Y19168D2*
G1X5637Y19150D1*
G1X5638Y19111D2*
G1X5638Y19087D1*
G1X5557Y19175D2*
G1X5537Y19195D1*
G1X5537Y19181D1*
G1X5543Y19181D1*
G1X5531Y19175D2*
G1X5557Y19175D1*
G1X5531Y19175D2*
G1X5531Y19468D1*
G1X5532Y19469D1*
G1X5505Y19496D1*
G1X5440Y19341D2*
G1X5440Y19175D1*
G1X5360Y19175D1*
G1X5335Y19150D1*
G1X5335Y19168D1*
G1X5345Y19168D1*
G1X5340Y19163D1*
G1X5345Y19168D2*
G1X5346Y19169D1*
G1X5336Y19108D2*
G1X5358Y19086D1*
G1X5360Y19084D1*
G1X5372Y19084D1*
G1X5420Y19180D2*
G1X5429Y19189D1*
G1X5434Y19195D2*
G1X5434Y19180D1*
G1X5420Y19180D1*
G1X5434Y19274D2*
G1X5434Y19321D1*
G1X5414Y19301D1*
G1X5429Y19286D1*
G1X5429Y19308D1*
G1X5422Y19301D1*
G1X5407Y19301D2*
G1X5434Y19274D1*
G1X5407Y19301D2*
G1X5434Y19328D1*
G1X5440Y19341D2*
G1X5397Y19298D1*
G1X5360Y19298D1*
G1X5358Y19300D1*
G1X5333Y19325D1*
G1X5339Y19312D2*
G1X5339Y19301D1*
G1X5350Y19301D1*
G1X5340Y19311D1*
G1X5139Y16005D2*
G1X5069Y16005D1*
G1X5014Y15950D1*
G1X4979Y15950D1*
G1X4984Y15945D2*
G1X5019Y15945D1*
G1X5074Y16000D1*
G1X5134Y16000D1*
G1X5159Y15975D1*
G1X5159Y15965D1*
G1X4989Y15795D1*
G1X4989Y15940D1*
G1X5024Y15940D1*
G1X5079Y15995D1*
G1X5129Y15995D1*
G1X5154Y15970D1*
G1X5154Y15965D1*
G1X4994Y15805D1*
G1X4994Y15935D1*
G1X5029Y15935D1*
G1X5084Y15990D1*
G1X5129Y15990D1*
G1X5149Y15970D1*
G1X4999Y15820D1*
G1X4999Y15930D1*
G1X5029Y15930D1*
G1X5084Y15985D1*
G1X5129Y15985D1*
G1X5144Y15970D1*
G1X5004Y15830D1*
G1X5004Y15925D1*
G1X5034Y15925D1*
G1X5089Y15980D1*
G1X5124Y15980D1*
G1X5134Y15970D1*
G1X5009Y15845D1*
G1X5009Y15920D1*
G1X5039Y15920D1*
G1X5094Y15975D1*
G1X5124Y15975D1*
G1X5124Y15970D1*
G1X5014Y15860D1*
G1X5014Y15915D1*
G1X5039Y15915D1*
G1X5094Y15970D1*
G1X5114Y15970D1*
G1X5019Y15875D1*
G1X5019Y15910D1*
G1X5044Y15910D1*
G1X5099Y15965D1*
G1X5099Y15960D1*
G1X5034Y15895D1*
G1X5029Y15900D1*
G1X5034Y15905D2*
G1X5034Y15895D1*
G1X5024Y15885D1*
G1X5024Y15905D1*
G1X5034Y15905D1*
G1X4984Y15945D2*
G1X4984Y15790D1*
G1X4954Y15760D1*
G1X4954Y15750D1*
G1X5164Y15960D1*
G1X5164Y15980D1*
G1X5139Y16005D1*
G1X5254Y15925D2*
G1X5104Y15775D1*
G1X5229Y15775D1*
G1X5254Y15750D1*
G1X5254Y15760D1*
G1X5234Y15780D1*
G1X5119Y15780D1*
G1X5249Y15910D1*
G1X5249Y15775D1*
G1X5239Y15785D1*
G1X5134Y15785D1*
G1X5244Y15895D1*
G1X5244Y15790D1*
G1X5149Y15790D1*
G1X5239Y15880D1*
G1X5239Y15795D1*
G1X5164Y15795D1*
G1X5234Y15865D1*
G1X5234Y15800D1*
G1X5179Y15800D1*
G1X5229Y15850D1*
G1X5229Y15805D1*
G1X5194Y15805D1*
G1X5224Y15835D1*
G1X5224Y15810D1*
G1X5209Y15810D1*
G1X5219Y15820D1*
G1X4979Y15685D2*
G1X4954Y15710D1*
G1X4954Y15745D1*
G1X4914Y15745D1*
G1X4894Y15765D1*
G1X4819Y15690D1*
G1X4964Y15690D1*
G1X4949Y15705D1*
G1X4949Y15740D1*
G1X4909Y15740D1*
G1X4894Y15755D1*
G1X4834Y15695D1*
G1X4949Y15695D1*
G1X4944Y15700D1*
G1X4944Y15735D1*
G1X4909Y15735D1*
G1X4894Y15750D1*
G1X4844Y15700D1*
G1X4939Y15700D1*
G1X4939Y15715D1*
G1X4884Y15715D1*
G1X4894Y15725D1*
G1X4899Y15720D1*
G1X4929Y15720D1*
G1X4929Y15710D1*
G1X4869Y15710D1*
G1X4894Y15735D1*
G1X4904Y15725D1*
G1X4934Y15725D1*
G1X4934Y15705D1*
G1X4859Y15705D1*
G1X4894Y15740D1*
G1X4904Y15730D1*
G1X4939Y15730D1*
G1X4939Y15715D1*
G1X4979Y15685D2*
G1X4809Y15685D1*
G1X4889Y15765D1*
G1X4889Y15780D1*
G1X4889Y15855D2*
G1X4889Y15915D1*
G1X4864Y15890D1*
G1X4884Y15870D1*
G1X4884Y15900D1*
G1X4874Y15890D1*
G1X4879Y15885D1*
G1X4854Y15890D2*
G1X4889Y15855D1*
G1X4854Y15890D2*
G1X4889Y15925D1*
G1X4889Y15955D2*
G1X4914Y15980D1*
G1X4954Y15980D1*
G1X4954Y16010D1*
G1X4939Y15995D1*
G1X4894Y15995D1*
G1X4894Y15970D1*
G1X4914Y15985D1*
G1X4949Y15985D1*
G1X4949Y15995D1*
G1X4944Y15990D1*
G1X4899Y15990D1*
G1X4899Y15980D1*
G1X4904Y15985D1*
G1X4889Y16010D2*
G1X4889Y15955D1*
G1X4794Y15960D2*
G1X4769Y15935D1*
G1X4719Y15935D1*
G1X4694Y15910D1*
G1X4694Y15870D1*
G1X4719Y15845D1*
G1X4769Y15845D1*
G1X4794Y15820D1*
G1X4794Y15800D1*
G1X4769Y15775D1*
G1X4699Y15775D1*
G1X4644Y15830D1*
G1X4614Y15830D1*
G1X4584Y15800D1*
G1X4584Y15810D1*
G1X4589Y15815D1*
G1X4589Y15965D1*
G1X4609Y15945D1*
G1X4649Y15945D1*
G1X4704Y16000D1*
G1X4764Y16000D1*
G1X4789Y15975D1*
G1X4789Y15960D1*
G1X4769Y15940D1*
G1X4714Y15940D1*
G1X4689Y15915D1*
G1X4689Y15865D1*
G1X4714Y15840D1*
G1X4764Y15840D1*
G1X4789Y15815D1*
G1X4789Y15805D1*
G1X4764Y15780D1*
G1X4699Y15780D1*
G1X4644Y15835D1*
G1X4609Y15835D1*
G1X4594Y15820D1*
G1X4594Y15950D1*
G1X4604Y15940D1*
G1X4649Y15940D1*
G1X4704Y15995D1*
G1X4759Y15995D1*
G1X4784Y15970D1*
G1X4784Y15965D1*
G1X4764Y15945D1*
G1X4709Y15945D1*
G1X4684Y15920D1*
G1X4684Y15865D1*
G1X4714Y15835D1*
G1X4764Y15835D1*
G1X4784Y15815D1*
G1X4784Y15805D1*
G1X4764Y15785D1*
G1X4704Y15785D1*
G1X4649Y15840D1*
G1X4604Y15840D1*
G1X4599Y15835D1*
G1X4599Y15935D1*
G1X4654Y15935D1*
G1X4709Y15990D1*
G1X4759Y15990D1*
G1X4779Y15970D1*
G1X4759Y15950D1*
G1X4704Y15950D1*
G1X4679Y15925D1*
G1X4679Y15860D1*
G1X4709Y15830D1*
G1X4759Y15830D1*
G1X4779Y15810D1*
G1X4759Y15790D1*
G1X4709Y15790D1*
G1X4654Y15845D1*
G1X4604Y15845D1*
G1X4604Y15930D1*
G1X4659Y15930D1*
G1X4714Y15985D1*
G1X4754Y15985D1*
G1X4769Y15970D1*
G1X4754Y15955D1*
G1X4704Y15955D1*
G1X4674Y15925D1*
G1X4674Y15855D1*
G1X4704Y15825D1*
G1X4754Y15825D1*
G1X4769Y15810D1*
G1X4754Y15795D1*
G1X4709Y15795D1*
G1X4654Y15850D1*
G1X4609Y15850D1*
G1X4609Y15925D1*
G1X4664Y15925D1*
G1X4719Y15980D1*
G1X4749Y15980D1*
G1X4759Y15970D1*
G1X4749Y15960D1*
G1X4709Y15960D1*
G1X4724Y15975D1*
G1X4749Y15975D1*
G1X4749Y15970D1*
G1X4724Y15970D1*
G1X4724Y15965D1*
G1X4749Y15965D1*
G1X4769Y16005D2*
G1X4699Y16005D1*
G1X4644Y15950D1*
G1X4614Y15950D1*
G1X4584Y15980D1*
G1X4614Y15920D2*
G1X4614Y15855D1*
G1X4659Y15855D1*
G1X4714Y15800D1*
G1X4749Y15800D1*
G1X4759Y15810D1*
G1X4749Y15820D1*
G1X4699Y15820D1*
G1X4669Y15850D1*
G1X4669Y15915D1*
G1X4619Y15915D1*
G1X4619Y15860D1*
G1X4664Y15860D1*
G1X4664Y15910D1*
G1X4624Y15910D1*
G1X4624Y15865D1*
G1X4659Y15865D1*
G1X4659Y15905D1*
G1X4629Y15905D1*
G1X4629Y15870D1*
G1X4654Y15870D1*
G1X4654Y15900D1*
G1X4634Y15900D1*
G1X4634Y15875D1*
G1X4649Y15875D1*
G1X4649Y15895D1*
G1X4644Y15895D1*
G1X4644Y15880D1*
G1X4639Y15880D1*
G1X4639Y15895D1*
G1X4644Y15895D1*
G1X4669Y15920D2*
G1X4614Y15920D1*
G1X4709Y15815D2*
G1X4719Y15805D1*
G1X4749Y15805D1*
G1X4749Y15815D1*
G1X4719Y15815D1*
G1X4719Y15810D1*
G1X4744Y15810D1*
G1X4794Y15960D2*
G1X4794Y15980D1*
G1X4769Y16005D1*
G1X6084Y15925D2*
G1X6109Y15900D1*
G1X6094Y15900D1*
G1X6084Y15910D1*
G1X6089Y15910D1*
G1X6094Y15905D1*
G1X6139Y15890D2*
G1X6184Y15890D1*
G1X6184Y15925D1*
G1X6164Y15905D1*
G1X6169Y15900D1*
G1X6179Y15910D1*
G1X6179Y15895D1*
G1X6174Y15895D1*
G1X6169Y15900D1*
G1X6139Y15890D2*
G1X6189Y15940D1*
G1X6189Y15875D1*
G1X6189Y15800D2*
G1X6189Y15775D1*
G1X6164Y15775D1*
G1X6184Y15795D1*
G1X6184Y15780D1*
G1X6179Y15780D1*
G1X6109Y15775D2*
G1X6084Y15750D1*
G1X6084Y15770D1*
G1X6094Y15770D1*
G1X6089Y15765D1*
G1X6084Y15710D2*
G1X6109Y15685D1*
G1X6114Y15685D1*
G1X6279Y15775D2*
G1X6304Y15775D1*
G1X6284Y15795D1*
G1X6284Y15780D1*
G1X6289Y15780D1*
G1X6279Y15775D2*
G1X6279Y15800D1*
G1X6359Y15775D2*
G1X6434Y15775D1*
G1X6449Y15790D1*
G1X6449Y15760D1*
G1X6519Y15690D1*
G1X6374Y15690D1*
G1X6394Y15710D1*
G1X6394Y15745D1*
G1X6369Y15770D1*
G1X6434Y15770D1*
G1X6444Y15780D1*
G1X6444Y15760D1*
G1X6509Y15695D1*
G1X6389Y15695D1*
G1X6399Y15705D1*
G1X6399Y15745D1*
G1X6379Y15765D1*
G1X6439Y15765D1*
G1X6439Y15755D1*
G1X6494Y15700D1*
G1X6404Y15700D1*
G1X6404Y15750D1*
G1X6394Y15760D1*
G1X6434Y15760D1*
G1X6434Y15755D1*
G1X6484Y15705D1*
G1X6409Y15705D1*
G1X6409Y15755D1*
G1X6429Y15755D1*
G1X6474Y15710D1*
G1X6414Y15710D1*
G1X6414Y15750D1*
G1X6429Y15750D1*
G1X6464Y15715D1*
G1X6419Y15715D1*
G1X6419Y15745D1*
G1X6424Y15745D1*
G1X6449Y15720D1*
G1X6424Y15720D1*
G1X6424Y15735D1*
G1X6434Y15725D1*
G1X6454Y15765D2*
G1X6534Y15685D1*
G1X6359Y15685D1*
G1X6389Y15715D1*
G1X6389Y15745D1*
G1X6359Y15775D1*
G1X6454Y15765D2*
G1X6454Y15800D1*
G1X6544Y15800D2*
G1X6569Y15775D1*
G1X6639Y15775D1*
G1X6664Y15800D1*
G1X6664Y15820D1*
G1X6639Y15845D1*
G1X6544Y15845D1*
G1X6549Y15840D1*
G1X6549Y15800D1*
G1X6569Y15780D1*
G1X6639Y15780D1*
G1X6659Y15800D1*
G1X6659Y15820D1*
G1X6639Y15840D1*
G1X6554Y15840D1*
G1X6554Y15805D1*
G1X6574Y15785D1*
G1X6639Y15785D1*
G1X6654Y15800D1*
G1X6654Y15820D1*
G1X6639Y15835D1*
G1X6559Y15835D1*
G1X6559Y15810D1*
G1X6579Y15790D1*
G1X6634Y15790D1*
G1X6649Y15805D1*
G1X6649Y15820D1*
G1X6639Y15830D1*
G1X6564Y15830D1*
G1X6564Y15815D1*
G1X6584Y15795D1*
G1X6634Y15795D1*
G1X6644Y15805D1*
G1X6644Y15820D1*
G1X6639Y15825D1*
G1X6569Y15825D1*
G1X6569Y15815D1*
G1X6584Y15800D1*
G1X6629Y15800D1*
G1X6639Y15810D1*
G1X6639Y15815D1*
G1X6584Y15815D1*
G1X6584Y15810D1*
G1X6634Y15810D1*
G1X6639Y15815D1*
G1X6639Y15820D1*
G1X6574Y15820D1*
G1X6584Y15810D1*
G1X6589Y15805D1*
G1X6629Y15805D1*
G1X6634Y15810D1*
G1X6544Y15800D2*
G1X6544Y15845D1*
G1X6604Y15935D2*
G1X6629Y15960D1*
G1X6739Y16015D1*
G1X6749Y16025D1*
G1X6749Y15870D1*
G1X6679Y15940D1*
G1X6619Y15940D1*
G1X6634Y15955D1*
G1X6744Y16010D1*
G1X6744Y15885D1*
G1X6684Y15945D1*
G1X6634Y15945D1*
G1X6739Y16000D1*
G1X6739Y15900D1*
G1X6689Y15950D1*
G1X6654Y15950D1*
G1X6734Y15990D1*
G1X6734Y15915D1*
G1X6694Y15955D1*
G1X6679Y15955D1*
G1X6729Y15980D1*
G1X6729Y15930D1*
G1X6699Y15960D1*
G1X6724Y15970D1*
G1X6724Y15940D1*
G1X6709Y15955D1*
G1X6719Y15965D1*
G1X6719Y15955D1*
G1X6674Y15935D2*
G1X6604Y15935D1*
G1X6674Y15935D2*
G1X6749Y15860D1*
G1X6749Y16075D2*
G1X6749Y16085D1*
G1X6739Y16095D1*
G1X6729Y16095D2*
G1X6749Y16075D1*
G1X6699Y16095D2*
G1X6644Y16095D1*
G1X6604Y16055D1*
G1X6679Y16090D1*
G1X6644Y16090D1*
G1X6629Y16075D1*
G1X6654Y16085D1*
G1X6699Y16095D2*
G1X6589Y16040D1*
G1X6579Y16040D1*
G1X6279Y16070D2*
G1X6279Y16080D1*
G1X6264Y16095D1*
G1X6254Y16095D2*
G1X6279Y16070D1*
G1X7784Y16090D2*
G1X7849Y16090D1*
G1X7789Y16030D1*
G1X7789Y16085D1*
G1X7834Y16085D1*
G1X7794Y16045D1*
G1X7794Y16080D1*
G1X7819Y16080D1*
G1X7799Y16060D1*
G1X7799Y16075D1*
G1X7804Y16075D1*
G1X7784Y16090D2*
G1X7784Y16015D1*
G1X7864Y16095D1*
G1X7899Y16005D2*
G1X7974Y16005D1*
G1X7999Y15980D1*
G1X7999Y15960D1*
G1X7974Y15935D1*
G1X7899Y15935D1*
G1X7874Y15960D1*
G1X7874Y15980D1*
G1X7899Y16005D1*
G1X7899Y16000D2*
G1X7969Y16000D1*
G1X7994Y15975D1*
G1X7994Y15965D1*
G1X7969Y15940D1*
G1X7974Y15940D1*
G1X7969Y15940D2*
G1X7904Y15940D1*
G1X7879Y15965D1*
G1X7879Y15960D1*
G1X7879Y15965D2*
G1X7879Y15975D1*
G1X7899Y15995D1*
G1X7909Y15995D1*
G1X7884Y15970D1*
G1X7909Y15945D1*
G1X7919Y15945D1*
G1X7909Y15955D1*
G1X7919Y15955D1*
G1X7909Y15965D1*
G1X7924Y15980D1*
G1X7919Y15980D2*
G1X7954Y15980D1*
G1X7954Y15975D2*
G1X7919Y15975D1*
G1X7919Y15965D2*
G1X7954Y15965D1*
G1X7964Y15975D1*
G1X7969Y15970D1*
G1X7954Y15955D1*
G1X7964Y15955D1*
G1X7979Y15970D1*
G1X7964Y15985D1*
G1X7954Y15985D1*
G1X7964Y15975D1*
G1X7964Y15985D2*
G1X7954Y15995D1*
G1X7964Y15995D1*
G1X7989Y15970D1*
G1X7964Y15945D1*
G1X7969Y15945D1*
G1X7964Y15945D2*
G1X7954Y15945D1*
G1X7964Y15955D1*
G1X7964Y15950D2*
G1X7909Y15950D1*
G1X7909Y15945D2*
G1X7904Y15945D1*
G1X7904Y15940D2*
G1X7899Y15940D1*
G1X7909Y15955D2*
G1X7894Y15970D1*
G1X7909Y15985D1*
G1X7919Y15985D1*
G1X7904Y15970D1*
G1X7909Y15965D1*
G1X7919Y15960D2*
G1X7949Y15960D1*
G1X7954Y15965D1*
G1X7954Y15960D2*
G1X7949Y15960D1*
G1X7954Y15955D2*
G1X7919Y15955D1*
G1X7919Y15945D2*
G1X7954Y15945D1*
G1X7954Y15985D2*
G1X7919Y15985D1*
G1X7909Y15985D2*
G1X7919Y15995D1*
G1X7954Y15995D1*
G1X7964Y15995D2*
G1X7969Y15995D1*
G1X7969Y16000D2*
G1X7974Y16000D1*
G1X7964Y15990D2*
G1X7909Y15990D1*
G1X7909Y15995D2*
G1X7919Y15995D1*
G1X7904Y16000D2*
G1X7899Y15995D1*
G1X7884Y15975D2*
G1X7884Y15970D1*
G1X7884Y15965D1*
G1X7879Y15975D2*
G1X7879Y15980D1*
G1X7819Y15890D2*
G1X7784Y15855D1*
G1X7784Y15915D1*
G1X7809Y15890D1*
G1X7789Y15870D1*
G1X7789Y15900D1*
G1X7799Y15890D1*
G1X7794Y15885D1*
G1X7794Y15890D1*
G1X7819Y15890D2*
G1X7779Y15930D1*
G1X7874Y15820D2*
G1X7899Y15845D1*
G1X7974Y15845D1*
G1X7999Y15820D1*
G1X7999Y15800D1*
G1X7974Y15775D1*
G1X7899Y15775D1*
G1X7874Y15800D1*
G1X7874Y15820D1*
G1X7879Y15820D2*
G1X7879Y15815D1*
G1X7899Y15835D1*
G1X7909Y15835D1*
G1X7884Y15810D1*
G1X7909Y15785D1*
G1X7919Y15785D1*
G1X7909Y15795D1*
G1X7919Y15795D1*
G1X7909Y15805D1*
G1X7924Y15820D1*
G1X7919Y15820D2*
G1X7954Y15820D1*
G1X7954Y15815D2*
G1X7919Y15815D1*
G1X7919Y15805D2*
G1X7954Y15805D1*
G1X7964Y15815D1*
G1X7969Y15810D1*
G1X7954Y15795D1*
G1X7964Y15795D1*
G1X7979Y15810D1*
G1X7964Y15825D1*
G1X7954Y15825D1*
G1X7964Y15815D1*
G1X7964Y15825D2*
G1X7954Y15835D1*
G1X7964Y15835D1*
G1X7989Y15810D1*
G1X7964Y15785D1*
G1X7969Y15785D1*
G1X7969Y15780D2*
G1X7994Y15805D1*
G1X7994Y15800D1*
G1X7994Y15805D2*
G1X7994Y15815D1*
G1X7969Y15840D1*
G1X7974Y15840D1*
G1X7969Y15840D2*
G1X7899Y15840D1*
G1X7899Y15835D2*
G1X7904Y15840D1*
G1X7909Y15835D2*
G1X7919Y15835D1*
G1X7909Y15825D1*
G1X7919Y15825D1*
G1X7904Y15810D1*
G1X7909Y15805D1*
G1X7909Y15795D2*
G1X7894Y15810D1*
G1X7909Y15825D1*
G1X7909Y15830D2*
G1X7964Y15830D1*
G1X7964Y15835D2*
G1X7969Y15835D1*
G1X7954Y15835D2*
G1X7919Y15835D1*
G1X7919Y15825D2*
G1X7954Y15825D1*
G1X7954Y15805D2*
G1X7949Y15800D1*
G1X7954Y15800D1*
G1X7954Y15795D2*
G1X7919Y15795D1*
G1X7919Y15800D2*
G1X7949Y15800D1*
G1X7954Y15785D2*
G1X7964Y15795D1*
G1X7964Y15790D2*
G1X7909Y15790D1*
G1X7909Y15785D2*
G1X7904Y15785D1*
G1X7904Y15780D2*
G1X7879Y15805D1*
G1X7879Y15800D1*
G1X7879Y15805D2*
G1X7879Y15815D1*
G1X7884Y15815D2*
G1X7884Y15810D1*
G1X7884Y15805D1*
G1X7899Y15780D2*
G1X7904Y15780D1*
G1X7969Y15780D1*
G1X7974Y15780D1*
G1X7964Y15785D2*
G1X7954Y15785D1*
G1X7919Y15785D1*
G1X7989Y15805D2*
G1X7989Y15810D1*
G1X7989Y15815D1*
G1X7994Y15815D2*
G1X7994Y15820D1*
G1X8054Y15890D2*
G1X8089Y15855D1*
G1X8089Y15915D1*
G1X8064Y15890D1*
G1X8084Y15870D1*
G1X8084Y15900D1*
G1X8074Y15890D1*
G1X8079Y15885D1*
G1X8054Y15890D2*
G1X8089Y15925D1*
G1X8089Y15915D1*
G1X8089Y15925D2*
G1X8089Y16015D1*
G1X8089Y16025D1*
G1X8024Y16090D1*
G1X8084Y16090D1*
G1X8084Y16040D1*
G1X8039Y16085D1*
G1X8079Y16085D1*
G1X8079Y16055D1*
G1X8054Y16080D1*
G1X8074Y16080D1*
G1X8074Y16070D1*
G1X8069Y16075D1*
G1X8089Y16090D2*
G1X8089Y16025D1*
G1X8089Y16015D2*
G1X8009Y16095D1*
G1X7994Y15980D2*
G1X7994Y15975D1*
G1X7989Y15975D2*
G1X7989Y15970D1*
G1X7989Y15965D1*
G1X7994Y15965D2*
G1X7994Y15960D1*
G1X8089Y15855D2*
G1X8089Y15765D1*
G1X8009Y15685D1*
G1X8084Y15685D1*
G1X8084Y15750D1*
G1X8024Y15690D1*
G1X8079Y15690D1*
G1X8079Y15735D1*
G1X8039Y15695D1*
G1X8074Y15695D1*
G1X8074Y15720D1*
G1X8054Y15700D1*
G1X8069Y15700D1*
G1X8069Y15710D1*
G1X8089Y15690D2*
G1X8089Y15765D1*
G1X7864Y15685D2*
G1X7784Y15685D1*
G1X7784Y15755D1*
G1X7849Y15690D1*
G1X7789Y15690D1*
G1X7789Y15740D1*
G1X7834Y15695D1*
G1X7794Y15695D1*
G1X7794Y15725D1*
G1X7819Y15700D1*
G1X7799Y15700D1*
G1X7799Y15710D1*
G1X7804Y15705D1*
G1X7784Y15765D2*
G1X7864Y15685D1*
G1X9284Y15870D2*
G1X9309Y15845D1*
G1X9289Y15845D1*
G1X9289Y15855D1*
G1X9294Y15850D1*
G1X9419Y15845D2*
G1X9439Y15825D1*
G1X9439Y15840D1*
G1X9429Y15840D1*
G1X9419Y15845D2*
G1X9444Y15845D1*
G1X9444Y15815D1*
G1X9534Y15820D2*
G1X9554Y15840D1*
G1X9539Y15840D1*
G1X9539Y15835D1*
G1X9534Y15845D2*
G1X9534Y15820D1*
G1X9534Y15845D2*
G1X9559Y15845D1*
G1X9564Y15845D2*
G1X9584Y15845D1*
G1X9584Y15855D1*
G1X9579Y15850D1*
G1X9589Y15850D2*
G1X9589Y15870D1*
G1X9564Y15845D1*
G1X9589Y15870D2*
G1X9589Y15910D1*
G1X9589Y15930D1*
G1X9574Y15930D1*
G1X9584Y15920D1*
G1X9589Y15910D2*
G1X9564Y15935D1*
G1X9559Y15935D2*
G1X9539Y15955D1*
G1X9539Y15940D1*
G1X9544Y15940D1*
G1X9534Y15935D2*
G1X9559Y15935D1*
G1X9534Y15935D2*
G1X9534Y15960D1*
G1X9449Y15950D2*
G1X9449Y15930D1*
G1X9444Y15935D1*
G1X9449Y15930D2*
G1X9429Y15930D1*
G1X9449Y15950D1*
G1X9534Y16070D2*
G1X9509Y16095D1*
G1X9519Y16090D2*
G1X9529Y16080D1*
G1X9534Y16070D2*
G1X9534Y16090D1*
G1X9519Y16090D1*
G1X9534Y15710D2*
G1X9509Y15685D1*
G1X9529Y15685D1*
G1X9529Y15695D1*
G1X9524Y15690D1*
G1X9469Y15685D2*
G1X9444Y15710D1*
G1X9444Y15690D1*
G1X9454Y15690D1*
G1X9449Y15695D1*
G1X10784Y15710D2*
G1X10809Y15685D1*
G1X10789Y15685D1*
G1X10789Y15695D1*
G1X10794Y15690D1*
G1X10784Y15750D2*
G1X10994Y15960D1*
G1X10994Y15980D1*
G1X10969Y16005D1*
G1X10899Y16005D1*
G1X10844Y15950D1*
G1X10809Y15950D1*
G1X10789Y15950D1*
G1X10789Y15960D1*
G1X10794Y15955D1*
G1X10789Y15950D2*
G1X10784Y15950D1*
G1X10784Y15975D1*
G1X10809Y15950D1*
G1X10794Y15945D2*
G1X10794Y15780D1*
G1X10984Y15970D1*
G1X10984Y15980D1*
G1X10969Y15995D1*
G1X10899Y15995D1*
G1X10839Y15935D1*
G1X10799Y15935D1*
G1X10799Y15795D1*
G1X10979Y15975D1*
G1X10979Y15980D1*
G1X10969Y15990D1*
G1X10904Y15990D1*
G1X10844Y15930D1*
G1X10804Y15930D1*
G1X10804Y15805D1*
G1X10969Y15970D1*
G1X10969Y15985D1*
G1X10909Y15985D1*
G1X10844Y15920D1*
G1X10809Y15920D1*
G1X10809Y15820D1*
G1X10964Y15975D1*
G1X10964Y15980D1*
G1X10914Y15980D1*
G1X10849Y15915D1*
G1X10814Y15915D1*
G1X10814Y15835D1*
G1X10954Y15975D1*
G1X10914Y15975D1*
G1X10849Y15910D1*
G1X10819Y15910D1*
G1X10819Y15850D1*
G1X10939Y15970D1*
G1X10914Y15970D1*
G1X10849Y15905D1*
G1X10824Y15905D1*
G1X10824Y15865D1*
G1X10924Y15965D1*
G1X10914Y15965D1*
G1X10829Y15880D1*
G1X10829Y15900D1*
G1X10839Y15900D1*
G1X10834Y15895D1*
G1X10844Y15945D2*
G1X10794Y15945D1*
G1X10789Y15945D2*
G1X10789Y15765D1*
G1X10989Y15965D1*
G1X10989Y15980D1*
G1X10969Y16000D1*
G1X10899Y16000D1*
G1X10844Y15945D1*
G1X10784Y16015D2*
G1X10864Y16095D1*
G1X10849Y16090D2*
G1X10789Y16090D1*
G1X10789Y16040D1*
G1X10834Y16085D1*
G1X10794Y16085D1*
G1X10794Y16055D1*
G1X10819Y16080D1*
G1X10799Y16080D1*
G1X10799Y16070D1*
G1X10804Y16075D1*
G1X10849Y16090D2*
G1X10784Y16025D1*
G1X10784Y16015D1*
G1X10939Y15775D2*
G1X11064Y15775D1*
G1X11089Y15750D1*
G1X11089Y15710D1*
G1X11084Y15705D1*
G1X11084Y15695D1*
G1X11089Y15690D2*
G1X11069Y15690D1*
G1X11064Y15685D1*
G1X11089Y15710D1*
G1X11089Y15690D1*
G1X11089Y15685D2*
G1X11064Y15685D1*
G1X11089Y15750D2*
G1X11089Y15770D1*
G1X11079Y15770D1*
G1X11084Y15765D1*
G1X11089Y15775D2*
G1X11089Y15915D1*
G1X10954Y15780D1*
G1X11084Y15780D1*
G1X11084Y15900D1*
G1X10969Y15785D1*
G1X11079Y15785D1*
G1X11079Y15885D1*
G1X10984Y15790D1*
G1X11074Y15790D1*
G1X11074Y15870D1*
G1X10999Y15795D1*
G1X11069Y15795D1*
G1X11069Y15855D1*
G1X11014Y15800D1*
G1X11064Y15800D1*
G1X11064Y15840D1*
G1X11029Y15805D1*
G1X11059Y15805D1*
G1X11059Y15825D1*
G1X11044Y15810D1*
G1X11054Y15810D1*
G1X11064Y15775D2*
G1X11089Y15775D1*
G1X11089Y15915D2*
G1X11089Y15920D1*
G1X11089Y15925D2*
G1X10939Y15775D1*
G1X11089Y15925D2*
G1X11089Y16015D1*
G1X11089Y16090D1*
G1X11024Y16090D1*
G1X11084Y16030D1*
G1X11084Y16085D1*
G1X11034Y16085D1*
G1X11079Y16040D1*
G1X11079Y16080D1*
G1X11044Y16080D1*
G1X11074Y16050D1*
G1X11074Y16075D1*
G1X11059Y16075D1*
G1X11069Y16065D1*
G1X11024Y16090D2*
G1X11019Y16090D1*
G1X11009Y16095D2*
G1X11089Y16015D1*
G1X12284Y15965D2*
G1X12414Y16095D1*
G1X12454Y16095D2*
G1X12459Y16090D1*
G1X12464Y16085D1*
G1X12474Y16085D1*
G1X12479Y16090D2*
G1X12459Y16090D1*
G1X12479Y16070D1*
G1X12479Y16090D1*
G1X12389Y15940D2*
G1X12389Y15775D1*
G1X12359Y15775D1*
G1X12364Y15780D1*
G1X12384Y15780D1*
G1X12384Y15785D1*
G1X12309Y15775D2*
G1X12284Y15750D1*
G1X12284Y15770D1*
G1X12294Y15770D1*
G1X12289Y15765D1*
G1X12284Y15710D2*
G1X12309Y15685D1*
G1X12289Y15685D1*
G1X12289Y15695D1*
G1X12294Y15690D1*
G1X12479Y15775D2*
G1X12509Y15775D1*
G1X12504Y15780D1*
G1X12484Y15780D1*
G1X12484Y15785D1*
G1X12479Y15775D2*
G1X12479Y15800D1*
G1X12559Y15775D2*
G1X12589Y15745D1*
G1X12589Y15760D1*
G1X12574Y15775D1*
G1X12569Y15770D2*
G1X12584Y15755D1*
G1X12589Y15760D2*
G1X12589Y15770D1*
G1X12569Y15770D1*
G1X12589Y15715D2*
G1X12559Y15685D1*
G1X12584Y15685D1*
G1X12584Y15700D1*
G1X12574Y15690D1*
G1X12384Y15880D2*
G1X12384Y15925D1*
G1X12359Y15900D1*
G1X12379Y15880D1*
G1X12379Y15910D1*
G1X12369Y15900D1*
G1X12374Y15895D1*
G1X12349Y15900D2*
G1X12314Y15900D1*
G1X12314Y15895D2*
G1X12289Y15895D1*
G1X12289Y15910D1*
G1X12299Y15900D1*
G1X12294Y15900D1*
G1X12314Y15895D2*
G1X12284Y15925D1*
G1X12349Y15900D2*
G1X12389Y15940D1*
G1X11839Y19085D2*
G1X11839Y19100D1*
G1X11829Y19090D1*
G1X11839Y19085D2*
G1X11814Y19085D1*
G1X11839Y19110D1*
G1X11839Y19150D1*
G1X11839Y19170D1*
G1X11829Y19170D1*
G1X11834Y19165D1*
G1X11834Y19160D1*
G1X11839Y19150D2*
G1X11809Y19180D1*
G1X11744Y19175D2*
G1X11734Y19185D1*
G1X11734Y19175D1*
G1X11744Y19175D1*
G1X11639Y19175D2*
G1X11619Y19175D1*
G1X11614Y19180D2*
G1X11564Y19180D1*
G1X11534Y19150D1*
G1X11534Y19170D1*
G1X11544Y19170D1*
G1X11539Y19165D1*
G1X11534Y19110D2*
G1X11534Y19085D1*
G1X11559Y19085D1*
G1X11534Y19110D1*
G1X11539Y19095D2*
G1X11544Y19090D1*
G1X11539Y19090D1*
G1X11539Y19095D1*
G1X11639Y19175D2*
G1X11639Y19290D1*
G1X11639Y19340D1*
G1X11634Y19335D1*
G1X11634Y19295D1*
G1X11599Y19295D1*
G1X11629Y19325D1*
G1X11629Y19300D1*
G1X11614Y19300D1*
G1X11624Y19310D1*
G1X11624Y19305D1*
G1X11639Y19290D2*
G1X11589Y19290D1*
G1X11634Y19335D1*
G1X11594Y19300D2*
G1X11559Y19300D1*
G1X11549Y19300D1*
G1X11544Y19305D1*
G1X11539Y19300D2*
G1X11539Y19320D1*
G1X11559Y19300D1*
G1X11539Y19300D1*
G1X11534Y19365D2*
G1X11664Y19495D1*
G1X11704Y19495D1*
G1X11709Y19490D1*
G1X11714Y19485D1*
G1X11724Y19485D1*
G1X11724Y19480D2*
G1X11734Y19480D1*
G1X11734Y19490D1*
G1X11709Y19490D1*
G1X11734Y19465D1*
G1X11734Y19480D1*
G1X13482Y9690D2*
G54D28*
G1X13484Y9715D1*
G1X13490Y9740D1*
G1X13500Y9763D1*
G1X13513Y9784D1*
G1X13530Y9803D1*
G1X13550Y9819D1*
G1X13572Y9832D1*
G1X13595Y9841D1*
G1X13620Y9846D1*
G1X13645Y9847D1*
G1X13670Y9844D1*
G1X13695Y9837D1*
G1X13717Y9826D1*
G1X13738Y9812D1*
G1X13757Y9794D1*
G1X13772Y9774D1*
G1X13783Y9752D1*
G1X13791Y9728D1*
G1X13795Y9703D1*
G1X13795Y9677D1*
G1X13791Y9652D1*
G1X13783Y9628D1*
G1X13772Y9606D1*
G1X13757Y9586D1*
G1X13738Y9568D1*
G1X13718Y9554D1*
G1X13695Y9543D1*
G1X13670Y9536D1*
G1X13645Y9533D1*
G1X13620Y9534D1*
G1X13595Y9539D1*
G1X13572Y9548D1*
G1X13550Y9561D1*
G1X13530Y9577D1*
G1X13513Y9596D1*
G1X13500Y9617D1*
G1X13490Y9640D1*
G1X13484Y9665D1*
G1X13482Y9690D1*
G1X14532Y9690D2*
G1X14534Y9715D1*
G1X14540Y9740D1*
G1X14550Y9763D1*
G1X14563Y9784D1*
G1X14580Y9803D1*
G1X14600Y9819D1*
G1X14622Y9832D1*
G1X14645Y9841D1*
G1X14670Y9846D1*
G1X14695Y9847D1*
G1X14720Y9844D1*
G1X14745Y9837D1*
G1X14767Y9826D1*
G1X14788Y9812D1*
G1X14807Y9794D1*
G1X14822Y9774D1*
G1X14833Y9752D1*
G1X14841Y9728D1*
G1X14845Y9703D1*
G1X14845Y9677D1*
G1X14841Y9652D1*
G1X14833Y9628D1*
G1X14822Y9606D1*
G1X14807Y9586D1*
G1X14788Y9568D1*
G1X14768Y9554D1*
G1X14745Y9543D1*
G1X14720Y9536D1*
G1X14695Y9533D1*
G1X14670Y9534D1*
G1X14645Y9539D1*
G1X14622Y9548D1*
G1X14600Y9561D1*
G1X14580Y9577D1*
G1X14563Y9596D1*
G1X14550Y9617D1*
G1X14540Y9640D1*
G1X14534Y9665D1*
G1X14532Y9690D1*
G1X3582Y9690D2*
G1X3584Y9715D1*
G1X3590Y9740D1*
G1X3600Y9763D1*
G1X3613Y9784D1*
G1X3630Y9803D1*
G1X3650Y9819D1*
G1X3672Y9832D1*
G1X3695Y9841D1*
G1X3720Y9846D1*
G1X3745Y9847D1*
G1X3770Y9844D1*
G1X3795Y9837D1*
G1X3817Y9826D1*
G1X3838Y9812D1*
G1X3857Y9794D1*
G1X3872Y9774D1*
G1X3883Y9752D1*
G1X3891Y9728D1*
G1X3895Y9703D1*
G1X3895Y9677D1*
G1X3891Y9652D1*
G1X3883Y9628D1*
G1X3872Y9606D1*
G1X3857Y9586D1*
G1X3838Y9568D1*
G1X3818Y9554D1*
G1X3795Y9543D1*
G1X3770Y9536D1*
G1X3745Y9533D1*
G1X3720Y9534D1*
G1X3695Y9539D1*
G1X3672Y9548D1*
G1X3650Y9561D1*
G1X3630Y9577D1*
G1X3613Y9596D1*
G1X3600Y9617D1*
G1X3590Y9640D1*
G1X3584Y9665D1*
G1X3582Y9690D1*
G1X2532Y9690D2*
G1X2534Y9715D1*
G1X2540Y9740D1*
G1X2550Y9763D1*
G1X2563Y9784D1*
G1X2580Y9803D1*
G1X2600Y9819D1*
G1X2622Y9832D1*
G1X2645Y9841D1*
G1X2670Y9846D1*
G1X2695Y9847D1*
G1X2720Y9844D1*
G1X2745Y9837D1*
G1X2767Y9826D1*
G1X2788Y9812D1*
G1X2807Y9794D1*
G1X2822Y9774D1*
G1X2833Y9752D1*
G1X2841Y9728D1*
G1X2845Y9703D1*
G1X2845Y9677D1*
G1X2841Y9652D1*
G1X2833Y9628D1*
G1X2822Y9606D1*
G1X2807Y9586D1*
G1X2788Y9568D1*
G1X2768Y9554D1*
G1X2745Y9543D1*
G1X2720Y9536D1*
G1X2695Y9533D1*
G1X2670Y9534D1*
G1X2645Y9539D1*
G1X2622Y9548D1*
G1X2600Y9561D1*
G1X2580Y9577D1*
G1X2563Y9596D1*
G1X2550Y9617D1*
G1X2540Y9640D1*
G1X2534Y9665D1*
G1X2532Y9690D1*
G1X11489Y19195D2*
G54D29*
G1X11619Y19195D1*
G1X11619Y19235D2*
G1X11489Y19235D1*
G1X11489Y19275D2*
G1X11619Y19275D1*
G1X11489Y19350D2*
G1X11679Y19540D1*
G1X11629Y19540D2*
G1X11489Y19400D1*
G1X11464Y19425D2*
G1X11554Y19515D1*
G1X11754Y19540D2*
G1X11754Y19195D1*
G1X11889Y19195D1*
G1X2439Y9440D2*
G54D20*
G1X2393Y9440D1*
G1X2439Y9690D2*
G1X2393Y9690D1*
G1X2439Y9940D2*
G1X2393Y9940D1*
G1X14939Y9940D2*
G1X14975Y9940D1*
G1X14939Y9690D2*
G1X14975Y9690D1*
G1X14939Y9440D2*
G1X14975Y9440D1*
M2*
