*
%LPD*%
%LNBinaryWatch_Rev_A.sol*%
%FSLAX24Y24*%
%MOIN*%
%AD*%
%ADD11C,0.039400*%
%ADD13O,0.078000X0.039000*%
%ADD19C,0.031700*%
%ADD20C,0.010000*%
%ADD21C,0.039600*%
%ADD22C,0.040000*%
%ADD30C,0.511800*%
%ADD31R,0.228300X0.228300*%
%ADD32C,0.035000*%
G54D13*
G1X3389Y14860D3*
G1X3389Y15352D3*
G1X3389Y15844D3*
G1X3389Y16336D3*
G1X3389Y16829D3*
G1X3389Y17321D3*
G54D30*
G1X8689Y13090D3*
G54D31*
G1X3664Y13090D3*
G1X13714Y13090D3*
G54D11*
G1X13939Y21440D3*
G1X3439Y21440D3*
G1X3439Y7440D3*
G54D19*
G1X3189Y9690D3*
G1X5339Y15190D3*
G1X5639Y15490D3*
G1X6039Y15590D3*
G1X5689Y16790D3*
G1X6089Y18040D3*
G1X6439Y18740D3*
G1X7589Y18040D3*
G1X7939Y18740D3*
G1X9089Y17890D3*
G1X9539Y18090D3*
G1X9439Y18740D3*
G1X10639Y17990D3*
G1X10939Y17690D3*
G1X11089Y18090D3*
G1X10939Y18690D3*
G1X11939Y17140D3*
G1X12439Y18390D3*
G1X12739Y15990D3*
G1X11939Y15440D3*
G1X10989Y15990D3*
G1X7189Y16790D3*
G1X4939Y18740D3*
G1X3736Y6712D2*
G54D20*
G1X3673Y6690D1*
G1X13835Y6690D1*
G1X13939Y6690D1*
G1X13998Y6693D1*
G1X14114Y6711D1*
G1X14226Y6747D1*
G1X14331Y6801D1*
G1X14426Y6870D1*
G1X14509Y6953D1*
G1X14579Y7048D1*
G1X14632Y7153D1*
G1X14668Y7265D1*
G1X14687Y7381D1*
G1X14689Y7440D1*
G1X14689Y7544D1*
G1X14689Y9333D1*
G1X14618Y9333D1*
G1X14487Y9387D1*
G1X14386Y9488D1*
G1X14332Y9619D1*
G1X14332Y9761D1*
G1X14386Y9893D1*
G1X14487Y9993D1*
G1X14618Y10048D1*
G1X14689Y10048D1*
G1X14689Y11749D1*
G1X12489Y11749D1*
G1X12372Y11866D1*
G1X12372Y14315D1*
G1X12389Y14332D1*
G1X12389Y14656D1*
G1X12623Y14890D1*
G1X12955Y14890D1*
G1X13189Y14656D1*
G1X13189Y14432D1*
G1X14689Y14432D1*
G1X14689Y21208D1*
G1X14673Y21160D1*
G1X14645Y21095D1*
G1X14611Y21032D1*
G1X14611Y21032D1*
G1X14571Y20973D1*
G1X14571Y20973D1*
G1X14526Y20917D1*
G1X14526Y20917D1*
G1X14476Y20866D1*
G1X14476Y20866D1*
G1X14475Y20866D1*
G1X14421Y20819D1*
G1X14421Y20819D1*
G1X14363Y20778D1*
G1X14363Y20778D1*
G1X14301Y20742D1*
G1X14301Y20742D1*
G1X14236Y20712D1*
G1X14236Y20712D1*
G1X14168Y20688D1*
G1X14168Y20688D1*
G1X14099Y20671D1*
G1X14099Y20671D1*
G1X14028Y20659D1*
G1X14028Y20659D1*
G1X13957Y20654D1*
G1X13957Y20654D1*
G1X13885Y20656D1*
G1X13885Y20656D1*
G1X13814Y20664D1*
G1X13814Y20664D1*
G1X13744Y20679D1*
G1X13744Y20679D1*
G1X13676Y20700D1*
G1X13676Y20700D1*
G1X13610Y20727D1*
G1X13610Y20727D1*
G1X13546Y20760D1*
G1X13546Y20760D1*
G1X13486Y20798D1*
G1X13486Y20798D1*
G1X13429Y20842D1*
G1X13429Y20842D1*
G1X13377Y20891D1*
G1X13377Y20891D1*
G1X13329Y20944D1*
G1X13329Y20944D1*
G1X13287Y21002D1*
G1X13287Y21002D1*
G1X13250Y21063D1*
G1X13250Y21063D1*
G1X13228Y21106D1*
G1X13228Y21104D1*
G1X13228Y21104D1*
G1X13186Y20975D1*
G1X13186Y20974D1*
G1X13118Y20856D1*
G1X13118Y20856D1*
G1X13026Y20755D1*
G1X13026Y20755D1*
G1X13026Y20755D1*
G1X12916Y20674D1*
G1X12916Y20674D1*
G1X12791Y20619D1*
G1X12791Y20619D1*
G1X12702Y20600D1*
G1X12693Y20590D1*
G1X12598Y20590D1*
G1X12589Y20590D1*
G1X12485Y20590D1*
G1X4893Y20590D1*
G1X4789Y20590D1*
G1X4779Y20590D1*
G1X4686Y20590D1*
G1X4676Y20600D1*
G1X4587Y20619D1*
G1X4587Y20619D1*
G1X4462Y20674D1*
G1X4462Y20674D1*
G1X4352Y20755D1*
G1X4352Y20755D1*
G1X4260Y20856D1*
G1X4260Y20856D1*
G1X4192Y20974D1*
G1X4192Y20975D1*
G1X4150Y21104D1*
G1X4150Y21104D1*
G1X4150Y21106D1*
G1X4145Y21095D1*
G1X4145Y21095D1*
G1X4111Y21032D1*
G1X4111Y21032D1*
G1X4071Y20973D1*
G1X4071Y20973D1*
G1X4026Y20917D1*
G1X4026Y20917D1*
G1X3976Y20866D1*
G1X3976Y20866D1*
G1X3975Y20866D1*
G1X3921Y20819D1*
G1X3921Y20819D1*
G1X3863Y20778D1*
G1X3863Y20778D1*
G1X3801Y20742D1*
G1X3801Y20742D1*
G1X3736Y20712D1*
G1X3736Y20712D1*
G1X3668Y20688D1*
G1X3668Y20688D1*
G1X3599Y20671D1*
G1X3599Y20671D1*
G1X3528Y20659D1*
G1X3528Y20659D1*
G1X3457Y20654D1*
G1X3457Y20654D1*
G1X3385Y20656D1*
G1X3385Y20656D1*
G1X3314Y20664D1*
G1X3314Y20664D1*
G1X3244Y20679D1*
G1X3244Y20679D1*
G1X3176Y20700D1*
G1X3176Y20700D1*
G1X3110Y20727D1*
G1X3110Y20727D1*
G1X3046Y20760D1*
G1X3046Y20760D1*
G1X2986Y20798D1*
G1X2986Y20798D1*
G1X2929Y20842D1*
G1X2929Y20842D1*
G1X2877Y20891D1*
G1X2877Y20891D1*
G1X2829Y20944D1*
G1X2829Y20944D1*
G1X2787Y21002D1*
G1X2787Y21002D1*
G1X2750Y21063D1*
G1X2718Y21127D1*
G1X2693Y21194D1*
G1X2689Y21207D1*
G1X2689Y14432D1*
G1X3689Y14432D1*
G1X3689Y14465D1*
G1X3030Y14465D1*
G1X2799Y14696D1*
G1X2799Y15024D1*
G1X2882Y15106D1*
G1X2799Y15189D1*
G1X2799Y15516D1*
G1X2846Y15563D1*
G1X2749Y15660D1*
G1X2749Y15835D1*
G1X3380Y15835D1*
G1X3380Y15853D1*
G1X2749Y15853D1*
G1X2749Y16029D1*
G1X2846Y16126D1*
G1X2799Y16173D1*
G1X2799Y16500D1*
G1X2882Y16582D1*
G1X2799Y16665D1*
G1X2799Y16992D1*
G1X2882Y17075D1*
G1X2799Y17157D1*
G1X2799Y17484D1*
G1X3030Y17716D1*
G1X3748Y17716D1*
G1X3979Y17484D1*
G1X3979Y17157D1*
G1X3900Y17078D1*
G1X4197Y17078D1*
G1X4404Y17078D1*
G1X5634Y15849D1*
G1X5710Y15849D1*
G1X5767Y15826D1*
G1X5836Y15894D1*
G1X5968Y15949D1*
G1X6110Y15949D1*
G1X6242Y15894D1*
G1X6343Y15794D1*
G1X6398Y15662D1*
G1X6398Y15519D1*
G1X6343Y15387D1*
G1X6242Y15286D1*
G1X6236Y15284D1*
G1X6143Y15190D1*
G1X5239Y14287D1*
G1X5239Y11594D1*
G1X5239Y11387D1*
G1X3874Y10021D1*
G1X3942Y9993D1*
G1X4042Y9893D1*
G1X4096Y9761D1*
G1X4096Y9619D1*
G1X4042Y9488D1*
G1X3942Y9387D1*
G1X3810Y9333D1*
G1X3668Y9333D1*
G1X3537Y9387D1*
G1X3465Y9459D1*
G1X3392Y9386D1*
G1X3260Y9332D1*
G1X3118Y9332D1*
G1X2986Y9386D1*
G1X2938Y9434D1*
G1X2892Y9387D1*
G1X2760Y9333D1*
G1X2689Y9333D1*
G1X2689Y7674D1*
G1X2693Y7687D1*
G1X2693Y7687D1*
G1X2718Y7753D1*
G1X2718Y7753D1*
G1X2750Y7818D1*
G1X2750Y7818D1*
G1X2787Y7879D1*
G1X2787Y7879D1*
G1X2829Y7936D1*
G1X2829Y7936D1*
G1X2877Y7990D1*
G1X2877Y7990D1*
G1X2929Y8039D1*
G1X2929Y8039D1*
G1X2986Y8082D1*
G1X2986Y8082D1*
G1X3046Y8121D1*
G1X3046Y8121D1*
G1X3110Y8154D1*
G1X3110Y8154D1*
G1X3176Y8181D1*
G1X3176Y8181D1*
G1X3244Y8202D1*
G1X3244Y8202D1*
G1X3314Y8216D1*
G1X3314Y8216D1*
G1X3385Y8224D1*
G1X3385Y8224D1*
G1X3457Y8226D1*
G1X3457Y8226D1*
G1X3528Y8221D1*
G1X3528Y8221D1*
G1X3599Y8210D1*
G1X3599Y8210D1*
G1X3668Y8192D1*
G1X3668Y8192D1*
G1X3736Y8168D1*
G1X3736Y8168D1*
G1X3801Y8138D1*
G1X3801Y8138D1*
G1X3863Y8102D1*
G1X3863Y8102D1*
G1X3921Y8061D1*
G1X3921Y8061D1*
G1X3975Y8015D1*
G1X3976Y8015D1*
G1X4026Y7964D1*
G1X4026Y7964D1*
G1X4071Y7908D1*
G1X4071Y7908D1*
G1X4111Y7849D1*
G1X4145Y7786D1*
G1X4145Y7786D1*
G1X4150Y7775D1*
G1X4150Y7776D1*
G1X4150Y7776D1*
G1X4192Y7906D1*
G1X4192Y7906D1*
G1X4260Y8024D1*
G1X4260Y8024D1*
G1X4352Y8126D1*
G1X4352Y8126D1*
G1X4462Y8206D1*
G1X4462Y8206D1*
G1X4587Y8262D1*
G1X4587Y8262D1*
G1X4676Y8281D1*
G1X4686Y8290D1*
G1X12485Y8290D1*
G1X12504Y8290D1*
G1X12693Y8290D1*
G1X12702Y8281D1*
G1X12791Y8262D1*
G1X12791Y8262D1*
G1X12916Y8206D1*
G1X12916Y8206D1*
G1X13026Y8126D1*
G1X13026Y8126D1*
G1X13118Y8024D1*
G1X13118Y8024D1*
G1X13186Y7906D1*
G1X13186Y7906D1*
G1X13228Y7776D1*
G1X13228Y7776D1*
G1X13243Y7640D1*
G1X13243Y7640D1*
G1X13228Y7504D1*
G1X13228Y7504D1*
G1X13186Y7375D1*
G1X13186Y7374D1*
G1X13118Y7256D1*
G1X13118Y7256D1*
G1X13026Y7155D1*
G1X12916Y7074D1*
G1X12916Y7074D1*
G1X12791Y7019D1*
G1X12702Y7000D1*
G1X12693Y6990D1*
G1X4686Y6990D1*
G1X4676Y7000D1*
G1X4587Y7019D1*
G1X4587Y7019D1*
G1X4462Y7074D1*
G1X4462Y7074D1*
G1X4352Y7155D1*
G1X4352Y7155D1*
G1X4260Y7256D1*
G1X4260Y7256D1*
G1X4217Y7332D1*
G1X4212Y7298D1*
G1X4212Y7298D1*
G1X4196Y7228D1*
G1X4196Y7228D1*
G1X4173Y7160D1*
G1X4173Y7160D1*
G1X4145Y7095D1*
G1X4145Y7095D1*
G1X4111Y7032D1*
G1X4111Y7032D1*
G1X4071Y6973D1*
G1X4071Y6973D1*
G1X4026Y6917D1*
G1X4026Y6917D1*
G1X3976Y6866D1*
G1X3976Y6866D1*
G1X3975Y6866D1*
G1X3921Y6819D1*
G1X3921Y6819D1*
G1X3863Y6778D1*
G1X3863Y6778D1*
G1X3801Y6742D1*
G1X3801Y6742D1*
G1X3736Y6712D1*
G1X3736Y6712D1*
G1X3787Y6736D2*
G1X14191Y6736D1*
G1X14377Y6834D2*
G1X3939Y6834D1*
G1X4039Y6933D2*
G1X14489Y6933D1*
G1X14566Y7032D2*
G1X12820Y7032D1*
G1X12993Y7130D2*
G1X14620Y7130D1*
G1X14656Y7229D2*
G1X13093Y7229D1*
G1X13159Y7327D2*
G1X14678Y7327D1*
G1X14689Y7426D2*
G1X13203Y7426D1*
G1X13230Y7524D2*
G1X14689Y7524D1*
G1X14689Y7623D2*
G1X13241Y7623D1*
G1X13234Y7721D2*
G1X14689Y7721D1*
G1X14689Y7820D2*
G1X13214Y7820D1*
G1X13179Y7918D2*
G1X14689Y7918D1*
G1X14689Y8017D2*
G1X13122Y8017D1*
G1X13036Y8116D2*
G1X14689Y8116D1*
G1X14689Y8214D2*
G1X12898Y8214D1*
G1X13437Y9387D2*
G1X13568Y9333D1*
G1X13710Y9333D1*
G1X13842Y9387D1*
G1X13942Y9488D1*
G1X13996Y9619D1*
G1X13996Y9761D1*
G1X13942Y9893D1*
G1X13842Y9993D1*
G1X13710Y10048D1*
G1X13568Y10048D1*
G1X13437Y9993D1*
G1X13336Y9893D1*
G1X13282Y9761D1*
G1X13282Y9619D1*
G1X13336Y9488D1*
G1X13437Y9387D1*
G1X13427Y9397D2*
G1X3951Y9397D1*
G1X4045Y9495D2*
G1X13333Y9495D1*
G1X13292Y9594D2*
G1X4086Y9594D1*
G1X4096Y9692D2*
G1X13282Y9692D1*
G1X13294Y9791D2*
G1X4084Y9791D1*
G1X4044Y9889D2*
G1X13335Y9889D1*
G1X13431Y9988D2*
G1X3947Y9988D1*
G1X3939Y10086D2*
G1X14689Y10086D1*
G1X14689Y10185D2*
G1X4037Y10185D1*
G1X4136Y10284D2*
G1X7523Y10284D1*
G1X7525Y10281D2*
G1X8639Y10281D1*
G1X8639Y13040D1*
G1X8739Y13040D1*
G1X8739Y10281D1*
G1X9853Y10281D1*
G1X11498Y11927D1*
G1X11498Y13040D1*
G1X8739Y13040D1*
G1X8739Y13140D1*
G1X11498Y13140D1*
G1X11498Y14254D1*
G1X9853Y15899D1*
G1X8739Y15899D1*
G1X8739Y13140D1*
G1X8639Y13140D1*
G1X8639Y13040D1*
G1X5880Y13040D1*
G1X5880Y11927D1*
G1X7525Y10281D1*
G1X7425Y10382D2*
G1X4234Y10382D1*
G1X4333Y10481D2*
G1X7326Y10481D1*
G1X7228Y10579D2*
G1X4431Y10579D1*
G1X4530Y10678D2*
G1X7129Y10678D1*
G1X7031Y10776D2*
G1X4628Y10776D1*
G1X4727Y10875D2*
G1X6932Y10875D1*
G1X6833Y10973D2*
G1X4826Y10973D1*
G1X4924Y11072D2*
G1X6735Y11072D1*
G1X6636Y11170D2*
G1X5023Y11170D1*
G1X5121Y11269D2*
G1X6538Y11269D1*
G1X6439Y11367D2*
G1X5220Y11367D1*
G1X5239Y11466D2*
G1X6341Y11466D1*
G1X6242Y11565D2*
G1X5239Y11565D1*
G1X5239Y11663D2*
G1X6144Y11663D1*
G1X6045Y11762D2*
G1X5239Y11762D1*
G1X5239Y11860D2*
G1X5947Y11860D1*
G1X5880Y11959D2*
G1X5239Y11959D1*
G1X5239Y12057D2*
G1X5880Y12057D1*
G1X5880Y12156D2*
G1X5239Y12156D1*
G1X5239Y12254D2*
G1X5880Y12254D1*
G1X5880Y12353D2*
G1X5239Y12353D1*
G1X5239Y12451D2*
G1X5880Y12451D1*
G1X5880Y12550D2*
G1X5239Y12550D1*
G1X5239Y12649D2*
G1X5880Y12649D1*
G1X5880Y12747D2*
G1X5239Y12747D1*
G1X5239Y12846D2*
G1X5880Y12846D1*
G1X5880Y12944D2*
G1X5239Y12944D1*
G1X5239Y13043D2*
G1X8639Y13043D1*
G1X8639Y13140D2*
G1X5880Y13140D1*
G1X5880Y14254D1*
G1X7525Y15899D1*
G1X8639Y15899D1*
G1X8639Y13140D1*
G1X8639Y13141D2*
G1X8739Y13141D1*
G1X8739Y13043D2*
G1X12372Y13043D1*
G1X12372Y13141D2*
G1X11498Y13141D1*
G1X11498Y13240D2*
G1X12372Y13240D1*
G1X12372Y13338D2*
G1X11498Y13338D1*
G1X11498Y13437D2*
G1X12372Y13437D1*
G1X12372Y13535D2*
G1X11498Y13535D1*
G1X11498Y13634D2*
G1X12372Y13634D1*
G1X12372Y13733D2*
G1X11498Y13733D1*
G1X11498Y13831D2*
G1X12372Y13831D1*
G1X12372Y13930D2*
G1X11498Y13930D1*
G1X11498Y14028D2*
G1X12372Y14028D1*
G1X12372Y14127D2*
G1X11498Y14127D1*
G1X11498Y14225D2*
G1X12372Y14225D1*
G1X12381Y14324D2*
G1X11428Y14324D1*
G1X11330Y14422D2*
G1X12389Y14422D1*
G1X12389Y14521D2*
G1X11231Y14521D1*
G1X11133Y14619D2*
G1X12389Y14619D1*
G1X12451Y14718D2*
G1X11034Y14718D1*
G1X10935Y14816D2*
G1X12550Y14816D1*
G1X12423Y15090D2*
G1X12755Y15090D1*
G1X12989Y15325D1*
G1X12989Y15656D1*
G1X12950Y15694D1*
G1X13043Y15787D1*
G1X13098Y15919D1*
G1X13098Y16062D1*
G1X13043Y16194D1*
G1X12942Y16294D1*
G1X12810Y16349D1*
G1X12668Y16349D1*
G1X12608Y16324D1*
G1X11439Y17494D1*
G1X11298Y17635D1*
G1X11298Y17762D1*
G1X11288Y17785D1*
G1X11292Y17786D1*
G1X11393Y17887D1*
G1X11448Y18019D1*
G1X11448Y18162D1*
G1X11393Y18294D1*
G1X11292Y18394D1*
G1X11160Y18449D1*
G1X11084Y18449D1*
G1X10993Y18540D1*
G1X10786Y18540D1*
G1X9636Y18540D1*
G1X9544Y18449D1*
G1X9468Y18449D1*
G1X9336Y18394D1*
G1X9235Y18294D1*
G1X9208Y18229D1*
G1X9160Y18249D1*
G1X9018Y18249D1*
G1X8886Y18194D1*
G1X8785Y18094D1*
G1X8730Y17962D1*
G1X8730Y17840D1*
G1X8143Y17840D1*
G1X7948Y18035D1*
G1X7948Y18112D1*
G1X7893Y18244D1*
G1X7792Y18344D1*
G1X7660Y18399D1*
G1X7518Y18399D1*
G1X7386Y18344D1*
G1X7285Y18244D1*
G1X7230Y18112D1*
G1X7230Y17969D1*
G1X7285Y17837D1*
G1X7386Y17736D1*
G1X7518Y17682D1*
G1X7594Y17682D1*
G1X7636Y17640D1*
G1X6843Y17640D1*
G1X6448Y18035D1*
G1X6448Y18112D1*
G1X6393Y18244D1*
G1X6292Y18344D1*
G1X6160Y18399D1*
G1X6018Y18399D1*
G1X5886Y18344D1*
G1X5785Y18244D1*
G1X5730Y18112D1*
G1X5730Y17969D1*
G1X5785Y17837D1*
G1X5886Y17736D1*
G1X6018Y17682D1*
G1X6094Y17682D1*
G1X6636Y17140D1*
G1X6843Y17140D1*
G1X8289Y17140D1*
G1X8289Y16875D1*
G1X8523Y16640D1*
G1X10873Y16640D1*
G1X11273Y16240D1*
G1X11246Y16240D1*
G1X11192Y16294D1*
G1X11060Y16349D1*
G1X10918Y16349D1*
G1X10786Y16294D1*
G1X10685Y16194D1*
G1X10630Y16062D1*
G1X10630Y15919D1*
G1X10685Y15787D1*
G1X10786Y15686D1*
G1X10918Y15632D1*
G1X11060Y15632D1*
G1X11192Y15686D1*
G1X11246Y15740D1*
G1X11286Y15740D1*
G1X11580Y15446D1*
G1X11580Y15369D1*
G1X11635Y15237D1*
G1X11736Y15136D1*
G1X11868Y15082D1*
G1X12010Y15082D1*
G1X12142Y15136D1*
G1X12243Y15237D1*
G1X12253Y15261D1*
G1X12423Y15090D1*
G1X12402Y15112D2*
G1X12084Y15112D1*
G1X12217Y15211D2*
G1X12303Y15211D1*
G1X11939Y15440D2*
G1X11389Y15990D1*
G1X10989Y15990D1*
G1X11209Y15703D2*
G1X11322Y15703D1*
G1X11421Y15605D2*
G1X10147Y15605D1*
G1X10049Y15703D2*
G1X10769Y15703D1*
G1X10679Y15802D2*
G1X9950Y15802D1*
G1X10246Y15506D2*
G1X11520Y15506D1*
G1X11580Y15408D2*
G1X10344Y15408D1*
G1X10443Y15309D2*
G1X11605Y15309D1*
G1X11661Y15211D2*
G1X10541Y15211D1*
G1X10640Y15112D2*
G1X11794Y15112D1*
G1X12589Y15990D2*
G1X11189Y17390D1*
G1X6739Y17390D1*
G1X6089Y18040D1*
G1X5933Y18364D2*
G1X2689Y18364D1*
G1X2689Y18266D2*
G1X5807Y18266D1*
G1X5753Y18167D2*
G1X2689Y18167D1*
G1X2689Y18068D2*
G1X5730Y18068D1*
G1X5730Y17970D2*
G1X2689Y17970D1*
G1X2689Y17871D2*
G1X5771Y17871D1*
G1X5849Y17773D2*
G1X2689Y17773D1*
G1X2689Y17674D2*
G1X2989Y17674D1*
G1X2891Y17576D2*
G1X2689Y17576D1*
G1X2689Y17477D2*
G1X2799Y17477D1*
G1X2799Y17379D2*
G1X2689Y17379D1*
G1X2689Y17280D2*
G1X2799Y17280D1*
G1X2799Y17182D2*
G1X2689Y17182D1*
G1X2689Y17083D2*
G1X2873Y17083D1*
G1X2799Y16984D2*
G1X2689Y16984D1*
G1X2689Y16886D2*
G1X2799Y16886D1*
G1X2799Y16787D2*
G1X2689Y16787D1*
G1X2689Y16689D2*
G1X2799Y16689D1*
G1X2874Y16590D2*
G1X2689Y16590D1*
G1X2689Y16492D2*
G1X2799Y16492D1*
G1X2799Y16393D2*
G1X2689Y16393D1*
G1X2689Y16295D2*
G1X2799Y16295D1*
G1X2799Y16196D2*
G1X2689Y16196D1*
G1X2689Y16098D2*
G1X2818Y16098D1*
G1X2749Y15999D2*
G1X2689Y15999D1*
G1X2689Y15900D2*
G1X2749Y15900D1*
G1X2749Y15802D2*
G1X2689Y15802D1*
G1X2689Y15703D2*
G1X2749Y15703D1*
G1X2804Y15605D2*
G1X2689Y15605D1*
G1X2689Y15506D2*
G1X2799Y15506D1*
G1X2799Y15408D2*
G1X2689Y15408D1*
G1X2689Y15309D2*
G1X2799Y15309D1*
G1X2799Y15211D2*
G1X2689Y15211D1*
G1X2689Y15112D2*
G1X2875Y15112D1*
G1X2799Y15014D2*
G1X2689Y15014D1*
G1X2689Y14915D2*
G1X2799Y14915D1*
G1X2799Y14816D2*
G1X2689Y14816D1*
G1X2689Y14718D2*
G1X2799Y14718D1*
G1X2876Y14619D2*
G1X2689Y14619D1*
G1X2689Y14521D2*
G1X2975Y14521D1*
G1X3398Y15835D2*
G1X3398Y15853D1*
G1X4029Y15853D1*
G1X4029Y16029D1*
G1X3971Y16086D1*
G1X4089Y16086D1*
G1X4980Y15196D1*
G1X4980Y15119D1*
G1X5035Y14987D1*
G1X5134Y14888D1*
G1X4886Y14640D1*
G1X4739Y14494D1*
G1X4739Y14432D1*
G1X4489Y14432D1*
G1X4489Y14925D1*
G1X4489Y15256D1*
G1X4029Y15716D1*
G1X4029Y15835D1*
G1X3398Y15835D1*
G1X3389Y16336D2*
G1X4193Y16336D1*
G1X5339Y15190D1*
G1X5639Y15490D2*
G1X4301Y16829D1*
G1X3389Y16829D1*
G1X3905Y17083D2*
G1X8289Y17083D1*
G1X8289Y16984D2*
G1X4498Y16984D1*
G1X4597Y16886D2*
G1X8289Y16886D1*
G1X8376Y16787D2*
G1X4695Y16787D1*
G1X4794Y16689D2*
G1X8475Y16689D1*
G1X8639Y15802D2*
G1X8739Y15802D1*
G1X8739Y15703D2*
G1X8639Y15703D1*
G1X8639Y15605D2*
G1X8739Y15605D1*
G1X8739Y15506D2*
G1X8639Y15506D1*
G1X8639Y15408D2*
G1X8739Y15408D1*
G1X8739Y15309D2*
G1X8639Y15309D1*
G1X8639Y15211D2*
G1X8739Y15211D1*
G1X8739Y15112D2*
G1X8639Y15112D1*
G1X8639Y15014D2*
G1X8739Y15014D1*
G1X8739Y14915D2*
G1X8639Y14915D1*
G1X8639Y14816D2*
G1X8739Y14816D1*
G1X8739Y14718D2*
G1X8639Y14718D1*
G1X8639Y14619D2*
G1X8739Y14619D1*
G1X8739Y14521D2*
G1X8639Y14521D1*
G1X8639Y14422D2*
G1X8739Y14422D1*
G1X8739Y14324D2*
G1X8639Y14324D1*
G1X8639Y14225D2*
G1X8739Y14225D1*
G1X8739Y14127D2*
G1X8639Y14127D1*
G1X8639Y14028D2*
G1X8739Y14028D1*
G1X8739Y13930D2*
G1X8639Y13930D1*
G1X8639Y13831D2*
G1X8739Y13831D1*
G1X8739Y13733D2*
G1X8639Y13733D1*
G1X8639Y13634D2*
G1X8739Y13634D1*
G1X8739Y13535D2*
G1X8639Y13535D1*
G1X8639Y13437D2*
G1X8739Y13437D1*
G1X8739Y13338D2*
G1X8639Y13338D1*
G1X8639Y13240D2*
G1X8739Y13240D1*
G1X8739Y12944D2*
G1X8639Y12944D1*
G1X8639Y12846D2*
G1X8739Y12846D1*
G1X8739Y12747D2*
G1X8639Y12747D1*
G1X8639Y12649D2*
G1X8739Y12649D1*
G1X8739Y12550D2*
G1X8639Y12550D1*
G1X8639Y12451D2*
G1X8739Y12451D1*
G1X8739Y12353D2*
G1X8639Y12353D1*
G1X8639Y12254D2*
G1X8739Y12254D1*
G1X8739Y12156D2*
G1X8639Y12156D1*
G1X8639Y12057D2*
G1X8739Y12057D1*
G1X8739Y11959D2*
G1X8639Y11959D1*
G1X8639Y11860D2*
G1X8739Y11860D1*
G1X8739Y11762D2*
G1X8639Y11762D1*
G1X8639Y11663D2*
G1X8739Y11663D1*
G1X8739Y11565D2*
G1X8639Y11565D1*
G1X8639Y11466D2*
G1X8739Y11466D1*
G1X8739Y11367D2*
G1X8639Y11367D1*
G1X8639Y11269D2*
G1X8739Y11269D1*
G1X8739Y11170D2*
G1X8639Y11170D1*
G1X8639Y11072D2*
G1X8739Y11072D1*
G1X8739Y10973D2*
G1X8639Y10973D1*
G1X8639Y10875D2*
G1X8739Y10875D1*
G1X8739Y10776D2*
G1X8639Y10776D1*
G1X8639Y10678D2*
G1X8739Y10678D1*
G1X8739Y10579D2*
G1X8639Y10579D1*
G1X8639Y10481D2*
G1X8739Y10481D1*
G1X8739Y10382D2*
G1X8639Y10382D1*
G1X8639Y10284D2*
G1X8739Y10284D1*
G1X9855Y10284D2*
G1X14689Y10284D1*
G1X14689Y10382D2*
G1X9953Y10382D1*
G1X10052Y10481D2*
G1X14689Y10481D1*
G1X14689Y10579D2*
G1X10150Y10579D1*
G1X10249Y10678D2*
G1X14689Y10678D1*
G1X14689Y10776D2*
G1X10348Y10776D1*
G1X10446Y10875D2*
G1X14689Y10875D1*
G1X14689Y10973D2*
G1X10545Y10973D1*
G1X10643Y11072D2*
G1X14689Y11072D1*
G1X14689Y11170D2*
G1X10742Y11170D1*
G1X10840Y11269D2*
G1X14689Y11269D1*
G1X14689Y11367D2*
G1X10939Y11367D1*
G1X11037Y11466D2*
G1X14689Y11466D1*
G1X14689Y11565D2*
G1X11136Y11565D1*
G1X11234Y11663D2*
G1X14689Y11663D1*
G1X14481Y9988D2*
G1X13847Y9988D1*
G1X13944Y9889D2*
G1X14385Y9889D1*
G1X14344Y9791D2*
G1X13984Y9791D1*
G1X13996Y9692D2*
G1X14332Y9692D1*
G1X14342Y9594D2*
G1X13986Y9594D1*
G1X13945Y9495D2*
G1X14383Y9495D1*
G1X14477Y9397D2*
G1X13851Y9397D1*
G1X14689Y9298D2*
G1X2689Y9298D1*
G1X2689Y9200D2*
G1X14689Y9200D1*
G1X14689Y9101D2*
G1X2689Y9101D1*
G1X2689Y9002D2*
G1X14689Y9002D1*
G1X14689Y8904D2*
G1X2689Y8904D1*
G1X2689Y8805D2*
G1X14689Y8805D1*
G1X14689Y8707D2*
G1X2689Y8707D1*
G1X2689Y8608D2*
G1X14689Y8608D1*
G1X14689Y8510D2*
G1X2689Y8510D1*
G1X2689Y8411D2*
G1X14689Y8411D1*
G1X14689Y8313D2*
G1X2689Y8313D1*
G1X2689Y8214D2*
G1X3304Y8214D1*
G1X3573Y8214D2*
G1X4480Y8214D1*
G1X4352Y8126D2*
G1X4352Y8126D1*
G1X4342Y8116D2*
G1X3840Y8116D1*
G1X3973Y8017D2*
G1X4256Y8017D1*
G1X4199Y7918D2*
G1X4062Y7918D1*
G1X4126Y7820D2*
G1X4164Y7820D1*
G1X4216Y7327D2*
G1X4219Y7327D1*
G1X4196Y7229D2*
G1X4285Y7229D1*
G1X4385Y7130D2*
G1X4160Y7130D1*
G1X4110Y7032D2*
G1X4558Y7032D1*
G1X3038Y8116D2*
G1X2689Y8116D1*
G1X2689Y8017D2*
G1X2906Y8017D1*
G1X2816Y7918D2*
G1X2689Y7918D1*
G1X2689Y7820D2*
G1X2751Y7820D1*
G1X2706Y7721D2*
G1X2689Y7721D1*
G1X2901Y9397D2*
G1X2975Y9397D1*
G1X3189Y9690D2*
G1X4989Y11490D1*
G1X4989Y14390D1*
G1X6039Y15440D1*
G1X6039Y15590D1*
G1X6398Y15605D2*
G1X7231Y15605D1*
G1X7330Y15703D2*
G1X6380Y15703D1*
G1X6335Y15802D2*
G1X7428Y15802D1*
G1X7132Y15506D2*
G1X6393Y15506D1*
G1X6352Y15408D2*
G1X7034Y15408D1*
G1X6935Y15309D2*
G1X6265Y15309D1*
G1X6163Y15211D2*
G1X6837Y15211D1*
G1X6738Y15112D2*
G1X6064Y15112D1*
G1X5966Y15014D2*
G1X6640Y15014D1*
G1X6541Y14915D2*
G1X5867Y14915D1*
G1X5769Y14816D2*
G1X6443Y14816D1*
G1X6344Y14718D2*
G1X5670Y14718D1*
G1X5572Y14619D2*
G1X6246Y14619D1*
G1X6147Y14521D2*
G1X5473Y14521D1*
G1X5375Y14422D2*
G1X6048Y14422D1*
G1X5950Y14324D2*
G1X5276Y14324D1*
G1X5239Y14225D2*
G1X5880Y14225D1*
G1X5880Y14127D2*
G1X5239Y14127D1*
G1X5239Y14028D2*
G1X5880Y14028D1*
G1X5880Y13930D2*
G1X5239Y13930D1*
G1X5239Y13831D2*
G1X5880Y13831D1*
G1X5880Y13733D2*
G1X5239Y13733D1*
G1X5239Y13634D2*
G1X5880Y13634D1*
G1X5880Y13535D2*
G1X5239Y13535D1*
G1X5239Y13437D2*
G1X5880Y13437D1*
G1X5880Y13338D2*
G1X5239Y13338D1*
G1X5239Y13240D2*
G1X5880Y13240D1*
G1X5880Y13141D2*
G1X5239Y13141D1*
G1X4766Y14521D2*
G1X4489Y14521D1*
G1X4489Y14619D2*
G1X4865Y14619D1*
G1X4963Y14718D2*
G1X4489Y14718D1*
G1X4489Y14816D2*
G1X5062Y14816D1*
G1X5107Y14915D2*
G1X4489Y14915D1*
G1X4489Y15014D2*
G1X5024Y15014D1*
G1X4983Y15112D2*
G1X4489Y15112D1*
G1X4489Y15211D2*
G1X4965Y15211D1*
G1X4867Y15309D2*
G1X4436Y15309D1*
G1X4337Y15408D2*
G1X4768Y15408D1*
G1X4670Y15506D2*
G1X4239Y15506D1*
G1X4140Y15605D2*
G1X4571Y15605D1*
G1X4472Y15703D2*
G1X4042Y15703D1*
G1X4029Y15802D2*
G1X4374Y15802D1*
G1X4275Y15900D2*
G1X4029Y15900D1*
G1X4029Y15999D2*
G1X4177Y15999D1*
G1X4893Y16590D2*
G1X10923Y16590D1*
G1X11022Y16492D2*
G1X4991Y16492D1*
G1X5090Y16393D2*
G1X11121Y16393D1*
G1X11192Y16295D2*
G1X11219Y16295D1*
G1X10786Y16295D2*
G1X5188Y16295D1*
G1X5287Y16196D2*
G1X10688Y16196D1*
G1X10645Y16098D2*
G1X5385Y16098D1*
G1X5484Y15999D2*
G1X10630Y15999D1*
G1X10638Y15900D2*
G1X6228Y15900D1*
G1X5850Y15900D2*
G1X5582Y15900D1*
G1X6496Y17280D2*
G1X3979Y17280D1*
G1X3979Y17182D2*
G1X6594Y17182D1*
G1X6397Y17379D2*
G1X3979Y17379D1*
G1X3979Y17477D2*
G1X6299Y17477D1*
G1X6200Y17576D2*
G1X3888Y17576D1*
G1X3789Y17674D2*
G1X6102Y17674D1*
G1X6513Y17970D2*
G1X7230Y17970D1*
G1X7230Y18068D2*
G1X6448Y18068D1*
G1X6425Y18167D2*
G1X7253Y18167D1*
G1X7307Y18266D2*
G1X6371Y18266D1*
G1X6245Y18364D2*
G1X7433Y18364D1*
G1X7589Y18040D2*
G1X8039Y17590D1*
G1X10839Y17590D1*
G1X10939Y17690D1*
G1X10639Y17990D2*
G1X10439Y17790D1*
G1X9189Y17790D1*
G1X9089Y17890D1*
G1X8858Y18167D2*
G1X7925Y18167D1*
G1X7948Y18068D2*
G1X8775Y18068D1*
G1X8734Y17970D2*
G1X8013Y17970D1*
G1X8111Y17871D2*
G1X8730Y17871D1*
G1X9223Y18266D2*
G1X7871Y18266D1*
G1X7745Y18364D2*
G1X9305Y18364D1*
G1X9558Y18463D2*
G1X2689Y18463D1*
G1X2689Y18561D2*
G1X14689Y18561D1*
G1X14689Y18463D2*
G1X11070Y18463D1*
G1X10889Y18290D2*
G1X11089Y18090D1*
G1X10889Y18290D2*
G1X9739Y18290D1*
G1X9539Y18090D1*
G1X11293Y17773D2*
G1X14689Y17773D1*
G1X14689Y17871D2*
G1X11377Y17871D1*
G1X11427Y17970D2*
G1X14689Y17970D1*
G1X14689Y18068D2*
G1X11448Y18068D1*
G1X11446Y18167D2*
G1X14689Y18167D1*
G1X14689Y18266D2*
G1X11405Y18266D1*
G1X11323Y18364D2*
G1X14689Y18364D1*
G1X14689Y18660D2*
G1X2689Y18660D1*
G1X2689Y18758D2*
G1X14689Y18758D1*
G1X14689Y18857D2*
G1X2689Y18857D1*
G1X2689Y18955D2*
G1X14689Y18955D1*
G1X14689Y19054D2*
G1X2689Y19054D1*
G1X2689Y19152D2*
G1X14689Y19152D1*
G1X14689Y19251D2*
G1X2689Y19251D1*
G1X2689Y19349D2*
G1X14689Y19349D1*
G1X14689Y19448D2*
G1X2689Y19448D1*
G1X2689Y19547D2*
G1X14689Y19547D1*
G1X14689Y19645D2*
G1X2689Y19645D1*
G1X2689Y19744D2*
G1X14689Y19744D1*
G1X14689Y19842D2*
G1X2689Y19842D1*
G1X2689Y19941D2*
G1X14689Y19941D1*
G1X14689Y20039D2*
G1X2689Y20039D1*
G1X2689Y20138D2*
G1X14689Y20138D1*
G1X14689Y20236D2*
G1X2689Y20236D1*
G1X2689Y20335D2*
G1X14689Y20335D1*
G1X14689Y20433D2*
G1X2689Y20433D1*
G1X2689Y20532D2*
G1X14689Y20532D1*
G1X14689Y20631D2*
G1X12817Y20631D1*
G1X12991Y20729D2*
G1X13605Y20729D1*
G1X13448Y20828D2*
G1X13092Y20828D1*
G1X13158Y20926D2*
G1X13345Y20926D1*
G1X13377Y20891D2*
G1X13377Y20891D1*
G1X13273Y21025D2*
G1X13202Y21025D1*
G1X13161Y21550D2*
G1X13118Y21624D1*
G1X13118Y21624D1*
G1X13026Y21726D1*
G1X12916Y21806D1*
G1X12916Y21806D1*
G1X12791Y21862D1*
G1X12702Y21881D1*
G1X12693Y21890D1*
G1X12589Y21890D1*
G1X12559Y21890D1*
G1X12485Y21890D1*
G1X4686Y21890D1*
G1X4676Y21881D1*
G1X4587Y21862D1*
G1X4462Y21806D1*
G1X4352Y21726D1*
G1X4260Y21624D1*
G1X4217Y21549D1*
G1X4212Y21583D1*
G1X4196Y21652D1*
G1X4173Y21720D1*
G1X4145Y21786D1*
G1X4111Y21849D1*
G1X4071Y21908D1*
G1X4026Y21964D1*
G1X3976Y22015D1*
G1X3975Y22015D1*
G1X3921Y22061D1*
G1X3863Y22102D1*
G1X3863Y22102D1*
G1X3801Y22138D1*
G1X3801Y22138D1*
G1X3736Y22168D1*
G1X3736Y22168D1*
G1X3673Y22190D1*
G1X13707Y22190D1*
G1X13676Y22181D1*
G1X13676Y22181D1*
G1X13610Y22154D1*
G1X13610Y22154D1*
G1X13546Y22121D1*
G1X13486Y22082D1*
G1X13429Y22039D1*
G1X13377Y21990D1*
G1X13377Y21990D1*
G1X13329Y21936D1*
G1X13287Y21879D1*
G1X13250Y21818D1*
G1X13218Y21753D1*
G1X13193Y21687D1*
G1X13173Y21618D1*
G1X13161Y21550D1*
G1X13173Y21616D2*
G1X13123Y21616D1*
G1X13203Y21715D2*
G1X13037Y21715D1*
G1X13026Y21726D2*
G1X13026Y21726D1*
G1X12900Y21813D2*
G1X13247Y21813D1*
G1X13311Y21912D2*
G1X4068Y21912D1*
G1X4071Y21908D2*
G1X4071Y21908D1*
G1X4111Y21849D2*
G1X4111Y21849D1*
G1X4130Y21813D2*
G1X4478Y21813D1*
G1X4462Y21806D2*
G1X4462Y21806D1*
G1X4341Y21715D2*
G1X4175Y21715D1*
G1X4145Y21786D2*
G1X4145Y21786D1*
G1X4204Y21616D2*
G1X4255Y21616D1*
G1X4260Y21624D2*
G1X4260Y21624D1*
G1X4026Y21964D2*
G1X4026Y21964D1*
G1X3980Y22010D2*
G1X13399Y22010D1*
G1X13429Y22039D2*
G1X13429Y22039D1*
G1X13486Y22082D2*
G1X13486Y22082D1*
G1X13527Y22109D2*
G1X3852Y22109D1*
G1X3921Y22061D2*
G1X3921Y22061D1*
G1X4106Y21025D2*
G1X4176Y21025D1*
G1X4220Y20926D2*
G1X4033Y20926D1*
G1X3931Y20828D2*
G1X4286Y20828D1*
G1X4387Y20729D2*
G1X3772Y20729D1*
G1X3105Y20729D2*
G1X2689Y20729D1*
G1X2689Y20631D2*
G1X4561Y20631D1*
G1X2948Y20828D2*
G1X2689Y20828D1*
G1X2689Y20926D2*
G1X2845Y20926D1*
G1X2877Y20891D2*
G1X2877Y20891D1*
G1X2773Y21025D2*
G1X2689Y21025D1*
G1X2689Y21123D2*
G1X2720Y21123D1*
G1X6611Y17871D2*
G1X7271Y17871D1*
G1X7349Y17773D2*
G1X6710Y17773D1*
G1X6809Y17674D2*
G1X7602Y17674D1*
G1X10738Y15014D2*
G1X14689Y15014D1*
G1X14689Y15112D2*
G1X12776Y15112D1*
G1X12875Y15211D2*
G1X14689Y15211D1*
G1X14689Y15309D2*
G1X12974Y15309D1*
G1X12989Y15408D2*
G1X14689Y15408D1*
G1X14689Y15506D2*
G1X12989Y15506D1*
G1X12989Y15605D2*
G1X14689Y15605D1*
G1X14689Y15703D2*
G1X12959Y15703D1*
G1X13049Y15802D2*
G1X14689Y15802D1*
G1X14689Y15900D2*
G1X13090Y15900D1*
G1X13098Y15999D2*
G1X14689Y15999D1*
G1X14689Y16098D2*
G1X13083Y16098D1*
G1X13041Y16196D2*
G1X14689Y16196D1*
G1X14689Y16295D2*
G1X12942Y16295D1*
G1X12739Y15990D2*
G1X12589Y15990D1*
G1X12540Y16393D2*
G1X14689Y16393D1*
G1X14689Y16492D2*
G1X12441Y16492D1*
G1X12343Y16590D2*
G1X14689Y16590D1*
G1X14689Y16689D2*
G1X12244Y16689D1*
G1X12145Y16787D2*
G1X14689Y16787D1*
G1X14689Y16886D2*
G1X12047Y16886D1*
G1X11948Y16984D2*
G1X14689Y16984D1*
G1X14689Y17083D2*
G1X11850Y17083D1*
G1X11751Y17182D2*
G1X14689Y17182D1*
G1X14689Y17280D2*
G1X11653Y17280D1*
G1X11554Y17379D2*
G1X14689Y17379D1*
G1X14689Y17477D2*
G1X11456Y17477D1*
G1X11439Y17494D2*
G1X11439Y17494D1*
G1X11357Y17576D2*
G1X14689Y17576D1*
G1X14689Y17674D2*
G1X11298Y17674D1*
G1X10837Y14915D2*
G1X14689Y14915D1*
G1X14689Y14816D2*
G1X13028Y14816D1*
G1X13127Y14718D2*
G1X14689Y14718D1*
G1X14689Y14619D2*
G1X13189Y14619D1*
G1X13189Y14521D2*
G1X14689Y14521D1*
G1X12476Y11762D2*
G1X11333Y11762D1*
G1X11432Y11860D2*
G1X12378Y11860D1*
G1X12372Y11959D2*
G1X11498Y11959D1*
G1X11498Y12057D2*
G1X12372Y12057D1*
G1X12372Y12156D2*
G1X11498Y12156D1*
G1X11498Y12254D2*
G1X12372Y12254D1*
G1X12372Y12353D2*
G1X11498Y12353D1*
G1X11498Y12451D2*
G1X12372Y12451D1*
G1X12372Y12550D2*
G1X11498Y12550D1*
G1X11498Y12649D2*
G1X12372Y12649D1*
G1X12372Y12747D2*
G1X11498Y12747D1*
G1X11498Y12846D2*
G1X12372Y12846D1*
G1X12372Y12944D2*
G1X11498Y12944D1*
G1X14272Y20729D2*
G1X14689Y20729D1*
G1X14689Y20828D2*
G1X14431Y20828D1*
G1X14533Y20926D2*
G1X14689Y20926D1*
G1X14689Y21025D2*
G1X14606Y21025D1*
G1X14657Y21123D2*
G1X14689Y21123D1*
G1X13546Y22121D2*
G1X13546Y22121D1*
G1X12791Y21862D2*
G1X12791Y21862D1*
G1X12589Y21890D2*
G1X12589Y21890D1*
G1X4739Y11749D2*
G1X4739Y11594D1*
G1X3194Y10049D1*
G1X3118Y10049D1*
G1X2986Y9994D1*
G1X2938Y9947D1*
G1X2892Y9993D1*
G1X2760Y10048D1*
G1X2689Y10048D1*
G1X2689Y11749D1*
G1X4739Y11749D1*
G1X4739Y11663D2*
G1X2689Y11663D1*
G1X2689Y11565D2*
G1X4710Y11565D1*
G1X4611Y11466D2*
G1X2689Y11466D1*
G1X2689Y11367D2*
G1X4513Y11367D1*
G1X4414Y11269D2*
G1X2689Y11269D1*
G1X2689Y11170D2*
G1X4316Y11170D1*
G1X4217Y11072D2*
G1X2689Y11072D1*
G1X2689Y10973D2*
G1X4119Y10973D1*
G1X4020Y10875D2*
G1X2689Y10875D1*
G1X2689Y10776D2*
G1X3921Y10776D1*
G1X3823Y10678D2*
G1X2689Y10678D1*
G1X2689Y10579D2*
G1X3724Y10579D1*
G1X3626Y10481D2*
G1X2689Y10481D1*
G1X2689Y10382D2*
G1X3527Y10382D1*
G1X3429Y10284D2*
G1X2689Y10284D1*
G1X2689Y10185D2*
G1X3330Y10185D1*
G1X3232Y10086D2*
G1X2689Y10086D1*
G1X2897Y9988D2*
G1X2979Y9988D1*
G1X3403Y9397D2*
G1X3527Y9397D1*
G54D21*
G1X3939Y8990D3*
G1X3989Y10990D3*
G1X5889Y12740D3*
G1X6639Y15390D3*
G1X8689Y17040D3*
G1X9739Y15590D3*
G1X8889Y12690D3*
G1X7989Y9690D3*
G1X4289Y6890D3*
G1X4089Y17790D3*
G1X3139Y20340D3*
G1X4289Y21990D3*
G1X12189Y14540D3*
G1X12789Y14490D3*
G1X12589Y15490D3*
G1X13739Y14990D3*
G1X14239Y18540D3*
G1X13089Y21990D3*
G1X13439Y10990D3*
G1X13089Y6890D3*
G1X13439Y10990D2*
G54D22*
G1X10789Y10990D1*
G1X8689Y13090D1*
G1X9739Y14140D1*
G1X9739Y15590D1*
G1X10589Y14990D2*
G1X12189Y14990D1*
G1X13739Y14990D1*
G1X13739Y18040D1*
G1X14239Y18540D1*
G1X12589Y15490D2*
G1X11039Y17040D1*
G1X8689Y17040D1*
G1X10589Y14990D2*
G1X9739Y14140D1*
G1X8689Y13090D2*
G1X8339Y12740D1*
G1X7989Y12390D1*
G1X4589Y8990D1*
G1X3939Y8990D1*
G1X5889Y12740D2*
G1X8339Y12740D1*
G1X7989Y12390D2*
G1X7989Y9690D1*
G1X4089Y13515D2*
G1X4089Y15090D1*
G1X3827Y15352D1*
G1X4089Y13515D2*
G1X3664Y13090D1*
G1X4089Y17790D2*
G1X4089Y19390D1*
G1X3139Y20340D1*
G1X12189Y14990D2*
G1X12189Y14540D1*
G1X12789Y14490D2*
G1X12789Y14015D1*
G1X13714Y13090D1*
G1X3827Y15352D2*
G54D32*
G1X3389Y15352D1*
M2*
