M48
INCH,TZ
FMAT,2
ICI,OFF
%
T1C.015748
X003189Y009690
X005339Y015190
X005639Y015490
X006039Y015590
X005689Y016790
X006089Y018040
X006439Y018740
X007589Y018040
X007939Y018740
X009089Y017890
X009539Y018090
X009439Y018740
X010639Y017990
X010939Y017690
X011089Y018090
X010939Y018690
X011939Y017140
X012439Y018390
X012739Y015990
X011939Y015440
X010989Y015990
X007189Y016790
X004939Y018740
T2C.023622
X004289Y006890
X003939Y008990
X003989Y010990
X005889Y012740
X006639Y015390
X008689Y017040
X009739Y015590
X008889Y012690
X007989Y009690
X012189Y014540
X012789Y014490
X012589Y015490
X013739Y014990
X014239Y018540
X013089Y021990
X013439Y010990
X013089Y006890
X004089Y017790
X003389Y017320
X003389Y016828
X003389Y016336
X003389Y015844
X003389Y015352
X003389Y014860
X003139Y020340
X004289Y021990
T3C.031496
X003739Y009690
X002689Y009690
X013639Y009690
X014689Y009690
M30
